<svg width="768" height="667" viewBox="0 0 768 667" fill="none" xmlns="http://www.w3.org/2000/svg">
<g clip-path="url(#clip0_44_1802)">
<rect x="630.945" y="548.425" width="9.43735" height="23.7921" rx="4.71868" transform="rotate(108.015 630.945 548.425)" fill="#F5F5F5"/>
<path d="M624.943 488.221V594.221" stroke="#D7D7D7"/>
<path d="M318.4 264.614L364.34 236.221L412.4 264.614L366.46 291.221L318.4 264.614Z" fill="#A7A7A7"/>
<path d="M364.4 187.221V236.47L412.4 264.221V215.766L364.4 187.221Z" fill="#F5F5F5"/>
<path d="M319.809 215.732L364.4 187.221V236.988L318.4 265.221L319.809 215.732Z" fill="#D7D7D7"/>
<path d="M359.4 240.221L364.047 237.243M364.047 237.243L368.4 240.221M364.047 237.243V232.221" stroke="#414141" stroke-width="2"/>
<path d="M139.4 241.614L185.34 213.221L233.4 241.614L187.46 268.221L139.4 241.614Z" fill="#A7A7A7"/>
<path d="M185.4 164.221V213.47L233.4 241.221V192.766L185.4 164.221Z" fill="#F5F5F5"/>
<path d="M140.809 192.732L185.4 164.221V213.988L139.4 242.221L140.809 192.732Z" fill="#D7D7D7"/>
<path d="M180.4 217.221L185.047 214.243M185.047 214.243L189.4 217.221M185.047 214.243V209.221" stroke="#414141" stroke-width="2"/>
<path d="M591 426.421L601.102 439.638L611.731 426.804L621.832 439.638L631.406 427.762L641.658 440.021L650.78 427.953L659.525 439.829L669.4 427.57" stroke="#FFB800" stroke-width="0.4" stroke-miterlimit="10" stroke-linecap="round" stroke-linejoin="round"/>
<path d="M615.4 447.221L625.553 460.438L636.236 447.604L646.39 460.438L656.012 448.562L666.317 460.821L675.485 448.753L684.274 460.629L694.2 448.37" stroke="#FFB800" stroke-width="0.4" stroke-miterlimit="10" stroke-linecap="round" stroke-linejoin="round"/>
<circle cx="88.5996" cy="255.815" r="5.8" stroke="#C5C5C5" stroke-width="0.4"/>
<circle cx="29" cy="181.221" r="5.8" stroke="#C5C5C5" stroke-width="0.4"/>
<circle cx="524.2" cy="181.221" r="5.8" fill="#F5F5F5" stroke="#C5C5C5" stroke-width="0.4"/>
<circle cx="334.6" cy="169.221" r="5.8" stroke="#C5C5C5" stroke-width="0.4"/>
<path d="M38.6138 382.11L35.7652 368.064L49.3535 372.62L38.6138 382.11Z" stroke="#C5C5C5" stroke-width="0.4"/>
<circle cx="533.697" cy="164.371" r="29.3162" fill="#E1B48B"/>
<path fill-rule="evenodd" clip-rule="evenodd" d="M507.282 136.162C505.872 139.48 504.495 146.862 510.268 149.848C514.217 151.891 517.569 149.836 521.222 147.597C524.246 145.743 527.476 143.764 531.42 143.876C540.129 144.125 543.115 149.102 543.862 158.06C544.046 160.274 545.542 162.593 547.594 164.769V164.53V157.811C549.31 157.811 550.956 158.519 552.169 159.779C553.382 161.039 554.064 162.748 554.064 164.53C554.064 166.187 553.474 167.782 552.415 169.01C556.215 171.883 560.094 174.009 561.281 174.484C564.708 165.918 564.19 159.01 563.725 152.81C563.65 151.805 563.576 150.82 563.521 149.848C564.765 146.945 566.059 140.492 561.281 137.904C562.691 133.259 562.973 123.919 552.82 123.72C551.41 119.075 546.102 111.527 536.148 118.494C532.249 115.508 523.407 112.373 519.227 123.72C514.25 123.305 504.893 125.213 507.282 136.162Z" fill="#1F1F1F"/>
<rect width="28.8632" height="86.0182" rx="14.4316" transform="matrix(-0.653107 0.757266 -0.764513 -0.644608 520.772 211.696)" fill="#D49F6E"/>
<rect width="28.8632" height="82.5877" rx="14.4316" transform="matrix(-0.921053 0.389437 -0.399699 -0.916646 475.472 183.383)" fill="#D49F6E"/>
<path d="M539.526 219.463C548.579 227.096 549.649 240.554 541.915 249.521C534.181 258.488 520.572 259.57 511.519 251.937L465.792 213.381L493.798 180.907L539.526 219.463Z" fill="#EDAB00"/>
<path d="M482.169 441.43C483.168 427.842 495.019 417.652 508.604 418.7C522.153 419.746 532.29 431.579 531.244 445.128L520.453 584.898L471.621 584.898L482.169 441.43Z" fill="#1F1F1F"/>
<path d="M492.082 311.84L541.241 315.635L531.514 441.631C530.466 455.205 518.612 465.36 505.037 464.312C491.462 463.264 481.308 451.41 482.356 437.836L492.082 311.84Z" fill="#1F1F1F"/>
<path d="M525.146 314.225H574.451V440.595C574.451 454.211 563.414 465.248 549.799 465.248C536.184 465.248 525.146 454.211 525.146 440.595V314.225Z" fill="#414141"/>
<path d="M543.689 586.524L592.601 580.312L574.943 441.288C573.228 427.782 560.888 418.223 547.381 419.939C533.875 421.654 524.316 433.994 526.032 447.5L543.689 586.524Z" fill="#414141"/>
<path d="M429.98 600.502C429.98 591.732 437.089 584.622 445.859 584.622H515.93V609.174C515.93 613.155 512.703 616.382 508.722 616.382H445.859C437.089 616.382 429.98 609.272 429.98 600.502Z" fill="#C5C5C5" stroke="#7D7D7D" stroke-width="0.666277"/>
<path d="M487.835 246.042C487.835 221.143 508.02 200.958 532.92 200.958C557.819 200.958 578.004 221.143 578.004 246.043V299.567H487.835V246.042Z" fill="#FFB800"/>
<path d="M506.922 606.86C505.823 598.159 511.985 590.214 520.686 589.115L590.204 580.333L593.281 604.691C593.78 608.641 590.983 612.247 587.033 612.745L524.667 620.624C515.966 621.723 508.021 615.561 506.922 606.86Z" fill="#C5C5C5" stroke="#7D7D7D" stroke-width="0.666277"/>
<rect width="28.8541" height="86.0417" rx="14.427" transform="matrix(0.942365 -0.334588 0.340344 0.940301 529.406 251.579)" fill="#E1B48B"/>
<rect width="28.8541" height="82.6102" rx="14.427" transform="matrix(0.822238 0.569143 -0.564105 0.825703 563.752 295.125)" fill="#E1B48B"/>
<path d="M516.895 235.456C512.866 224.324 518.643 212.09 529.799 208.129C540.955 204.168 553.264 209.981 557.293 221.112L577.66 277.382L537.262 291.725L516.895 235.456Z" fill="#EDAB00"/>
<path d="M447.521 264.562C409.697 247.493 350.841 212.746 418.008 210.313C485.175 207.879 592.541 254.253 637.828 277.744C658.98 288.716 676.5 304.92 650.04 312.221" stroke="#1F1F1F"/>
<path d="M426.9 124.221C426.9 131.049 425.238 137.207 422.578 141.641C419.911 146.085 416.297 148.721 412.4 148.721C408.502 148.721 404.888 146.085 402.222 141.641C399.562 137.207 397.9 131.049 397.9 124.221C397.9 117.392 399.562 111.234 402.222 106.8C404.888 102.356 408.502 99.7207 412.4 99.7207C416.297 99.7207 419.911 102.356 422.578 106.8C425.238 111.234 426.9 117.392 426.9 124.221Z" stroke="#7128CE"/>
<path d="M424.4 103.309C427.585 99.4692 435.452 94.0937 441.435 103.309C448.915 114.828 446.006 131.803 444.967 135.239C443.928 138.674 436.035 151.81 424.4 143.524" stroke="#FFB800"/>
<path d="M53.3167 601.642C64.8244 565.248 99.8832 500.433 150.422 540.03C166.194 555.657 169.868 568.16 172.317 577.622" stroke="#169F32"/>
<rect x="56.653" y="242.928" width="20.7277" height="20.7277" transform="rotate(44.5693 56.653 242.928)" stroke="#169F32"/>
<ellipse cx="236.317" cy="319.142" rx="7" ry="6.5" fill="#F5F5F5"/>
<path d="M190.317 280.642V502.642" stroke="#D7D7D7"/>
<path d="M290.317 430.642C283.561 430.642 160.835 430.642 100.317 430.642" stroke="#D7D7D7"/>
<path d="M243.317 306.642H152.317" stroke="#D7D7D7"/>
<path d="M152.317 517.642L153.747 506.642L162.317 513.517L152.317 517.642Z" fill="#F5F5F5" stroke="#007618"/>
<rect x="256.734" y="409.113" width="16.8498" height="42.4794" rx="7.17084" transform="rotate(26.6117 256.734 409.113)" fill="#F5F5F5"/>
<path d="M312.282 588.69L320.088 598.778L328.301 588.983L336.107 598.778L343.505 589.714L351.427 599.071L358.476 589.86L365.233 598.925L372.864 589.568" stroke="#A7A7A7" stroke-miterlimit="10" stroke-linecap="round" stroke-linejoin="round"/>
<ellipse cx="706.943" cy="614.721" rx="19" ry="18.5" fill="#F5F5F5"/>
<path d="M701.943 482.221L690.943 483.267L697.763 491.221L701.943 482.221Z" fill="#F5F5F5" stroke="#169F32"/>
<rect x="653.945" y="514.425" width="9.43735" height="23.7921" rx="4.71868" transform="rotate(108.015 653.945 514.425)" fill="#F5F5F5"/>
<path d="M647.943 454.221V560.221" stroke="#D7D7D7"/>
<path d="M725.646 43.5739C725.646 46.7044 724.967 49.5137 723.893 51.5223C722.808 53.5521 721.395 54.6479 719.96 54.6479C718.526 54.6479 717.112 53.5521 716.028 51.5223C714.954 49.5137 714.275 46.7044 714.275 43.5739C714.275 40.4435 714.954 37.6342 716.028 35.6256C717.112 33.5958 718.526 32.5 719.96 32.5C721.395 32.5 722.808 33.5958 723.893 35.6256C724.967 37.6342 725.646 40.4435 725.646 43.5739Z" stroke="#169F32"/>
<path d="M732.069 42.0431C732.069 44.7508 731.481 47.1774 730.556 48.9089C729.619 50.6618 728.409 51.5862 727.201 51.5862C725.993 51.5862 724.784 50.6618 723.847 48.9089C722.921 47.1774 722.334 44.7508 722.334 42.0431C722.334 39.3354 722.921 36.9088 723.847 35.1772C724.784 33.4244 725.993 32.5 727.201 32.5C728.409 32.5 729.619 33.4244 730.556 35.1772C731.481 36.9088 732.069 39.3354 732.069 42.0431Z" stroke="#7128CE"/>
<path d="M693.4 144.221H867.4" stroke="#D7D7D7"/>
<path d="M622.8 96.5923L611.114 84.9065L622.8 73.2207" stroke="#570DB4"/>
<path d="M610.563 96.5923L598.877 84.9065L610.563 73.2207" stroke="#570DB4"/>
<path d="M598.326 96.5923L586.64 84.9065L598.326 73.2207" stroke="#570DB4"/>
<path d="M586.086 96.5923L574.4 84.9065L586.086 73.2207" stroke="#570DB4"/>
<path d="M310.4 474.744L318.206 484.832L326.419 475.037L334.225 484.832L341.623 475.768L349.546 485.124L356.594 475.914L363.351 484.978L370.982 475.621" stroke="#A7A7A7" stroke-miterlimit="10" stroke-linecap="round" stroke-linejoin="round"/>
<path d="M157.582 408.556L260.285 345.75L367.728 408.556L265.025 467.413L157.582 408.556Z" fill="#A7A7A7"/>
<path d="M260.102 234.221V345.704L367.791 408.522V298.837L260.102 234.221Z" fill="#F5F5F5"/>
<path d="M160.539 298.118L259.896 234.246V345.738L157.4 408.986L160.539 298.118Z" fill="#D7D7D7"/>
<path d="M249.522 352.916L260.242 346.564M260.242 346.564L270.284 352.916M260.242 346.564V335.848" stroke="#414141" stroke-width="2"/>
<path d="M349.4 139.805L380.189 121.221L412.4 139.805L381.61 157.221L349.4 139.805Z" fill="#A7A7A7"/>
<path d="M380.4 87.2207V121.12L412.4 140.221V106.869L380.4 87.2207Z" fill="#F5F5F5"/>
<path d="M350.349 106.594L380.4 87.2207V121.037L349.4 140.221L350.349 106.594Z" fill="#D7D7D7"/>
<path d="M349.4 136.221V139.778M349.4 139.778L351.4 141.221M349.4 139.778L351.4 138.182" stroke="#414141" stroke-width="2"/>
<path d="M378.4 156.221L381.573 157.221L384.4 156.221" stroke="#414141" stroke-width="2"/>
<path d="M350.4 111.221V106.898L353.4 105.221" stroke="#414141" stroke-width="2"/>
<path d="M412.4 111.221V106.898L409.4 105.221" stroke="#414141" stroke-width="2"/>
<path d="M412.4 135.221V139.94M412.4 139.94L409.4 142.221M412.4 139.94L409.4 138.165" stroke="#414141" stroke-width="2"/>
<path d="M376.4 123.221L380.014 121.36M380.014 121.36L383.4 123.221M380.014 121.36V118.221" stroke="#414141" stroke-width="2"/>
</g>
<defs>
<clipPath id="clip0_44_1802">
<rect width="768" height="667" fill="white"/>
</clipPath>
</defs>
</svg>
