<svg width="810" height="463" viewBox="0 0 810 463" fill="none" xmlns="http://www.w3.org/2000/svg">
<g clip-path="url(#clip0_1388_14840)">
<rect width="810" height="462.857" fill="white"/>
<circle cx="343.835" cy="187.613" r="1.90317" stroke="#FF842B" stroke-width="0.253756"/>
<path d="M49 428L559.22 428.323" stroke="#7D7D7D" stroke-width="0.938432"/>
<path d="M568.916 428.323L793 428.008" stroke="#7D7D7D" stroke-width="0.938432"/>
<path d="M155.697 66.9532C155.697 65.8745 156.572 65 157.65 65H664.84C665.918 65 666.793 65.8745 666.793 66.9532V425.046H155.697V66.9532Z" fill="#DAF4DF"/>
<path d="M175.203 120.904H647.284V405.713H175.203V120.904Z" fill="white"/>
<circle cx="198.614" cy="93.592" r="7.80299" fill="#CD2026"/>
<circle cx="225.926" cy="93.592" r="7.80299" fill="#FFB800"/>
<circle cx="253.235" cy="93.592" r="7.80299" fill="#169F32"/>
<path d="M217.614 97.6255L213.844 92.8263L218.814 89.7412L222.07 94.1975L217.614 97.6255Z" fill="#FFB800"/>
<path d="M550.729 168.494L560.969 155.375L595.188 156.956L550.729 168.494Z" fill="#FFB1B4"/>
<rect x="525.219" y="95.6104" width="186.582" height="62.68" rx="31.2329" fill="#FFB1B4"/>
<circle cx="605.906" cy="126.737" r="3.43121" fill="white"/>
<circle cx="618.599" cy="126.737" r="3.43121" fill="white"/>
<circle cx="631.293" cy="126.737" r="3.43121" fill="white"/>
<rect x="42" y="349.975" width="154.514" height="18.2209" fill="#C29FEF"/>
<rect x="46.375" y="355.078" width="145.553" height="8.38922" fill="white"/>
<rect x="48.0508" y="356.335" width="5.87246" height="5.87246" fill="#C29FEF"/>
<rect x="56.8574" y="356.335" width="5.87246" height="5.87246" fill="#C29FEF"/>
<rect x="65.668" y="356.335" width="5.87246" height="5.87246" fill="#C29FEF"/>
<rect x="74.4766" y="356.335" width="5.87246" height="5.87246" fill="#C29FEF"/>
<rect x="83.2852" y="356.335" width="5.87246" height="5.87246" fill="#C29FEF"/>
<rect x="92.0938" y="356.335" width="5.87246" height="5.87246" fill="#C29FEF"/>
<rect x="100.484" y="356.335" width="5.87246" height="5.87246" fill="#C29FEF"/>
<rect x="109.293" y="356.335" width="5.87246" height="5.87246" fill="#C29FEF"/>
<path fill-rule="evenodd" clip-rule="evenodd" d="M672.198 347.101C675.383 341.514 683.526 341.784 686.334 347.569L687.028 348.998C688.563 352.159 691.982 353.947 695.453 353.405L697.023 353.16C703.376 352.167 708.242 358.701 705.47 364.504L704.786 365.937C703.271 369.108 704.005 372.896 706.594 375.272L707.764 376.346C712.502 380.695 710.427 388.573 704.162 390.024L702.614 390.382C699.191 391.175 696.687 394.11 696.443 397.616L696.333 399.2C695.887 405.616 688.434 408.906 683.394 404.912L682.149 403.926C679.394 401.743 675.538 401.616 672.645 403.611L671.338 404.513C666.044 408.164 658.825 404.388 658.805 397.957L658.8 396.369C658.788 392.855 656.484 389.76 653.12 388.743L651.6 388.283C645.445 386.421 643.896 378.422 648.911 374.397L650.15 373.403C652.89 371.203 653.873 367.472 652.571 364.208L651.983 362.732C649.601 356.759 654.889 350.561 661.163 351.972L662.712 352.32C666.141 353.092 669.671 351.533 671.411 348.481L672.198 347.101ZM678.005 385.39C672.09 385.194 667.454 380.241 667.65 374.326C667.846 368.411 672.8 363.775 678.714 363.971C684.629 364.167 689.265 369.121 689.069 375.035C688.873 380.95 683.92 385.586 678.005 385.39Z" fill="#8A49DD"/>
<path fill-rule="evenodd" clip-rule="evenodd" d="M707.873 393.317C708.892 391.531 711.496 391.617 712.394 393.467L712.616 393.924C713.107 394.935 714.2 395.507 715.311 395.334L715.813 395.255C717.845 394.938 719.401 397.028 718.515 398.883L718.296 399.342C717.811 400.356 718.046 401.568 718.874 402.328L719.248 402.671C720.763 404.062 720.1 406.582 718.096 407.046L717.601 407.16C716.506 407.414 715.705 408.353 715.627 409.474L715.592 409.981C715.449 412.033 713.066 413.085 711.454 411.808L711.055 411.492C710.174 410.794 708.941 410.753 708.016 411.391L707.598 411.68C705.904 412.848 703.596 411.64 703.589 409.583L703.587 409.075C703.584 407.951 702.847 406.962 701.771 406.636L701.285 406.489C699.316 405.893 698.821 403.335 700.425 402.048L700.821 401.73C701.697 401.026 702.012 399.833 701.595 398.789L701.407 398.317C700.645 396.406 702.337 394.424 704.343 394.875L704.839 394.987C705.935 395.233 707.064 394.735 707.621 393.759L707.873 393.317ZM709.729 405.564C707.838 405.501 706.355 403.917 706.417 402.025C706.48 400.133 708.064 398.651 709.956 398.713C711.848 398.776 713.331 400.36 713.268 402.252C713.205 404.144 711.621 405.627 709.729 405.564Z" fill="#8A49DD"/>
<rect x="115.611" y="225.672" width="132.41" height="65.3976" rx="25.567" transform="rotate(-17.3401 115.611 225.672)" fill="#414141"/>
<path d="M123.231 250.077C119.023 236.598 126.538 222.26 140.016 218.052L179.063 205.86L198.555 268.286L159.508 280.477C146.029 284.686 131.691 277.171 127.483 263.692L123.231 250.077Z" fill="#616161"/>
<rect x="152.217" y="234.545" width="5.38252" height="26.6435" transform="rotate(-17.3401 152.217 234.545)" fill="#F5F5F5"/>
<rect width="5.38252" height="26.6435" transform="matrix(-0.298043 -0.954553 -0.954553 0.298043 172.275 245.056)" fill="#F5F5F5"/>
<circle cx="203.578" cy="223.862" r="5.38252" transform="rotate(-17.3401 203.578 223.862)" fill="#DD3B41"/>
<circle cx="208.551" cy="239.788" r="5.38252" transform="rotate(-17.3401 208.551 239.788)" fill="#EBEBEB"/>
<circle cx="219.424" cy="218.629" r="5.38252" transform="rotate(-17.3401 219.424 218.629)" fill="#43BE5C"/>
<circle cx="224.478" cy="234.817" r="5.38252" transform="rotate(-17.3401 224.478 234.817)" fill="#EDAB00"/>
<path fill-rule="evenodd" clip-rule="evenodd" d="M185.135 185.463C180.973 190.664 179.024 196.671 180.876 202.605L181.679 205.174L176.541 206.778L175.739 204.209C173.18 196.014 176.07 188.176 180.933 182.1C185.784 176.039 192.844 171.379 199.516 169.296C200.935 168.853 202.444 169.644 202.887 171.063C203.33 172.482 202.539 173.991 201.12 174.434C195.462 176.201 189.31 180.248 185.135 185.463Z" fill="#414141"/>
<path fill-rule="evenodd" clip-rule="evenodd" d="M312.544 86C307.528 86 303.463 90.0655 303.463 95.0806C303.463 100.096 307.528 104.161 312.544 104.161H348.214C348.508 108.94 355.261 111.219 359.494 111.525C357.788 109.824 357.361 105.691 357.361 103.837V96.3975C357.424 95.9676 357.456 95.5279 357.456 95.0806C357.456 90.0655 353.39 86 348.375 86H312.544Z" fill="#EBEBEB"/>
<path fill-rule="evenodd" clip-rule="evenodd" d="M404.185 88.7561C403.542 85.859 400.858 83.6855 397.644 83.6855C395.688 83.6855 393.929 84.4898 392.706 85.772C391.484 84.4898 389.724 83.6855 387.769 83.6855C384.459 83.6855 381.71 85.9911 381.176 89.0183C377.582 89.1273 374.704 91.9536 374.704 95.4243C374.704 96.3669 374.917 97.2619 375.298 98.0679C373.883 99.2431 372.988 100.978 372.988 102.913C372.988 104.138 373.346 105.283 373.969 106.257C373.959 106.601 373.959 106.947 373.967 107.295L374.169 116.05H414.587L414.833 107.402C414.852 106.712 414.838 106.03 414.79 105.356C415.419 104.379 415.781 103.228 415.781 101.996C415.781 99.7696 414.597 97.8082 412.799 96.6594C412.983 96.0729 413.082 95.4511 413.082 94.807C413.082 91.2672 410.088 88.3977 406.395 88.3977C405.62 88.3977 404.877 88.5239 404.185 88.7561Z" fill="#1F1F1F"/>
<circle cx="20.1739" cy="20.1739" r="20.1739" transform="matrix(-1 0 0 1 414.475 96.1074)" fill="#E1B48B"/>
<path d="M398.999 105.266L410.518 102.269C409.703 98.4997 405.02 91.3888 392.803 93.1003C380.586 94.8118 379.16 99.926 379.975 102.269L391.493 105.266C393.954 105.906 396.538 105.906 398.999 105.266Z" fill="#1F1F1F"/>
<rect x="427.133" y="186.598" width="25.3702" height="62.6614" rx="12.6851" transform="rotate(-105.25 427.133 186.598)" fill="#E1B48B"/>
<path d="M421.612 193.202C412.209 195.765 402.508 190.221 399.944 180.817C397.38 171.414 402.925 161.713 412.328 159.149L447.233 149.633L456.517 183.686L421.612 193.202Z" fill="#FFB800"/>
<rect x="348.809" y="165.484" width="25.3702" height="62.6614" rx="12.6851" transform="rotate(20.6614 348.809 165.484)" fill="#E1B48B"/>
<path d="M346.689 157.15C350.128 148.03 360.309 143.425 369.429 146.864C378.549 150.303 383.154 160.484 379.715 169.603L366.949 203.455L333.924 191.001L346.689 157.15Z" fill="#FFB800"/>
<rect x="359.885" y="211.787" width="25.3702" height="76.3442" rx="12.6851" transform="rotate(118.748 359.885 211.787)" fill="#E1B48B"/>
<path d="M434.105 310.196C434.105 299.392 425.347 290.634 414.543 290.634C403.739 290.634 394.98 299.392 394.98 310.196V403.119H434.105V310.196Z" fill="#414141"/>
<path d="M434.105 237.753H394.98V308.362C394.98 319.166 403.739 327.924 414.543 327.924C425.347 327.924 434.105 319.166 434.105 308.362V237.753Z" fill="#414141"/>
<path d="M392.523 310.196C392.523 299.392 383.765 290.634 372.961 290.634C362.157 290.634 353.398 299.392 353.398 310.196V403.119H392.523V310.196Z" fill="#414141"/>
<path d="M392.523 237.753H353.398V308.362C353.398 319.166 362.157 327.924 372.961 327.924C383.765 327.924 392.523 319.166 392.523 308.362V237.753Z" fill="#414141"/>
<path d="M453.429 414.124C453.429 408.173 448.605 403.349 442.654 403.349H395.2V419.894C395.2 422.658 397.44 424.899 400.204 424.899H442.654C448.605 424.899 453.429 420.075 453.429 414.124Z" fill="#C5C5C5" stroke="#7D7D7D" stroke-width="0.458498" stroke-linecap="round"/>
<path d="M334.678 414.124C334.678 408.173 339.502 403.349 345.453 403.349H392.602V419.894C392.602 422.658 390.361 424.899 387.597 424.899H345.453C339.502 424.899 334.678 420.075 334.678 414.124Z" fill="#C5C5C5" stroke="#7D7D7D" stroke-width="0.458498" stroke-linecap="round"/>
<ellipse cx="45.3913" cy="46.1555" rx="45.3913" ry="46.1555" transform="matrix(-1 0 0 1 440.51 140.551)" fill="#EDAB00"/>
<rect x="488.455" y="160.265" width="25.3702" height="88.7183" rx="12.6851" transform="rotate(137.768 488.455 160.265)" fill="#E1B48B"/>
<path fill-rule="evenodd" clip-rule="evenodd" d="M412.116 107.674C412.116 106.886 411.477 106.247 410.689 106.247H380.154C379.366 106.247 378.727 106.886 378.727 107.674V122.844C378.727 123.633 379.366 124.272 380.154 124.272H388.257C389.045 124.272 389.666 123.623 389.859 122.859C390.489 120.375 392.74 118.538 395.42 118.538C398.099 118.538 400.35 120.375 400.98 122.859C401.173 123.623 401.794 124.272 402.582 124.272H410.689C411.477 124.272 412.116 123.633 412.116 122.844V107.674Z" fill="#169F32"/>
<rect x="412.117" y="110.053" width="3.99286" height="10.4193" fill="#1F1F1F"/>
<rect x="374.766" y="110.052" width="3.95799" height="10.4193" fill="#1F1F1F"/>
<rect x="364.67" y="237.607" width="68.6219" height="26.4566" fill="#414141"/>
<path d="M310.35 178.43C347.69 286.908 340.666 107.107 375.053 118.964" stroke="black" stroke-width="1.18575"/>
<rect x="284.031" y="202.627" width="34.761" height="13.663" rx="3.27237" transform="rotate(-51.1398 284.031 202.627)" fill="#80060B"/>
<rect x="284.627" y="201.059" width="34.761" height="13.663" rx="3.27237" transform="rotate(-51.1398 284.627 201.059)" fill="#A70B11"/>
<path d="M341 188.618C341 186.067 343.067 184 345.618 184H449.52C452.07 184 454.138 186.067 454.138 188.618V249.227H341V188.618Z" fill="#414141"/>
<rect width="113.138" height="8.08127" transform="matrix(1 0 0 -1 341 257.308)" fill="#616161"/>
<mask id="mask0_1388_14840" style="mask-type:luminance" maskUnits="userSpaceOnUse" x="391" y="209" width="14" height="17">
<path d="M404.267 209.625H391.088V225.277H404.267V209.625Z" fill="white"/>
</mask>
<g mask="url(#mask0_1388_14840)">
<path d="M402.073 224.651C401.225 225.475 400.289 225.346 399.397 224.958C398.448 224.562 397.581 224.537 396.579 224.958C395.332 225.496 394.67 225.34 393.918 224.651C389.677 220.284 390.303 213.632 395.124 213.382C396.293 213.444 397.111 214.028 397.8 214.077C398.824 213.868 399.804 213.272 400.899 213.35C402.216 213.457 403.2 213.976 403.858 214.911C401.15 216.539 401.792 220.107 404.279 221.109C403.781 222.416 403.142 223.707 402.072 224.662L402.073 224.651ZM397.706 213.335C397.579 211.394 399.153 209.797 400.962 209.641C401.211 211.879 398.927 213.554 397.706 213.335Z" fill="white"/>
</g>
<g clip-path="url(#clip1_1388_14840)">
<circle cx="724.341" cy="34.3335" r="25.0443" transform="rotate(39.3458 724.341 34.3335)" fill="#FFB800"/>
<rect x="705.621" y="44.1816" width="16.4588" height="13.893" transform="rotate(39.3458 705.621 44.1816)" fill="#FFB800"/>
<path d="M709.918 46.1357L719.205 25.6289L721.741 30.2627L724.521 29.9874L724.797 32.7682L727.578 32.4929L727.853 35.2737L732.959 36.9051L715.113 50.3948" stroke="#EDAB00" stroke-width="0.952112" stroke-linecap="square" stroke-linejoin="round"/>
<path d="M690.148 62.1348L703.784 73.3137L710.775 64.7865L697.139 53.6075L690.148 62.1348Z" fill="#D19700"/>
</g>
<rect x="563.263" y="240.707" width="40.7487" height="47.8164" transform="rotate(44.5693 563.263 240.707)" stroke="#A70B11"/>
<path d="M42.0663 310.123L41.6669 316.002L47.5549 316.231L43.1154 320.106L47.1164 324.432L41.2375 324.033L41.0077 329.921L37.1331 325.481L32.8072 329.482L33.2066 323.603L27.3186 323.373L31.7581 319.499L27.7571 315.173L33.6361 315.572L33.8658 309.684L37.7404 314.124L42.0663 310.123Z" fill="#FFB800"/>
<circle cx="504.97" cy="225.93" r="1.90317" stroke="#FF842B" stroke-width="0.253756"/>
<path d="M489.492 289.623L491.473 292.183L493.557 289.697L495.538 292.183L497.415 289.883L499.426 292.257L501.214 289.92L502.929 292.22L504.865 289.846" stroke="#A7A7A7" stroke-width="0.253756" stroke-miterlimit="10" stroke-linecap="round" stroke-linejoin="round"/>
<path d="M221.395 188.882L216.954 184.441L221.395 180" stroke="#FF842B" stroke-width="0.380032"/>
<path d="M216.744 188.882L212.303 184.441L216.744 180" stroke="#FF842B" stroke-width="0.380032"/>
<path d="M212.094 188.882L207.653 184.441L212.094 180" stroke="#FF842B" stroke-width="0.380032"/>
<path d="M207.441 188.882L203 184.441L207.441 180" stroke="#FF842B" stroke-width="0.380032"/>
<rect x="239.746" y="254.731" width="1.5112" height="1.5112" stroke="#1F1F1F" stroke-width="0.253756"/>
<path d="M247.406 326.672L249.387 329.232L251.471 326.746L253.452 329.232L255.329 326.932L257.34 329.306L259.128 326.969L260.843 329.269L262.779 326.894" stroke="#A7A7A7" stroke-width="0.253756" stroke-miterlimit="10" stroke-linecap="round" stroke-linejoin="round"/>
<path d="M70 50.124L59.3766 39.5006L70 28.8772" stroke="#FF842B" stroke-width="0.909088"/>
<path d="M58.877 50.124L48.2535 39.5006L58.877 28.8772" stroke="#FF842B" stroke-width="0.909088"/>
<path d="M47.75 50.124L37.1266 39.5006L47.75 28.8772" stroke="#FF842B" stroke-width="0.909088"/>
<path d="M36.623 50.124L25.9996 39.5006L36.623 28.8772" stroke="#FF842B" stroke-width="0.909088"/>
<rect x="386.23" y="280.587" width="12.2054" height="134.259" fill="#C5C5C5"/>
<rect x="358.77" y="414.847" width="68.1468" height="13.2225" fill="#7D7D7D"/>
<rect x="313" y="256" width="159.481" height="11.0198" fill="#A6672E"/>
<rect x="358.77" y="267.021" width="68.8736" height="11.0198" fill="#A6672E"/>
</g>
<defs>
<clipPath id="clip0_1388_14840">
<rect width="810" height="462.857" fill="white"/>
</clipPath>
<clipPath id="clip1_1388_14840">
<rect width="63.119" height="71.0089" fill="white" transform="translate(716.02 -8) rotate(39.3458)"/>
</clipPath>
</defs>
</svg>
