<svg width="1601" height="608" viewBox="0 0 1601 608" fill="none" xmlns="http://www.w3.org/2000/svg">
<rect width="1601" height="608" fill="url(#paint0_linear_1529_17031)"/>
<g opacity="0.2">
<ellipse opacity="0.2" cx="15.7312" cy="311.236" rx="15.7312" ry="15.2364" fill="#FAFAFA"/>
<ellipse opacity="0.2" cx="87.3659" cy="311.236" rx="15.7312" ry="15.2364" fill="#FAFAFA"/>
<ellipse opacity="0.2" cx="158.999" cy="311.236" rx="15.7312" ry="15.2364" fill="#FAFAFA"/>
<ellipse opacity="0.2" cx="230.634" cy="311.236" rx="15.7312" ry="15.2364" fill="#FAFAFA"/>
<ellipse opacity="0.2" cx="302.268" cy="311.236" rx="15.7312" ry="15.2364" fill="#FAFAFA"/>
<ellipse opacity="0.2" cx="15.7312" cy="449.999" rx="15.7312" ry="15.2364" fill="#FAFAFA"/>
<ellipse opacity="0.2" cx="87.3659" cy="449.999" rx="15.7312" ry="15.2364" fill="#FAFAFA"/>
<ellipse opacity="0.2" cx="159.001" cy="449.999" rx="15.7312" ry="15.2364" fill="#FAFAFA"/>
<ellipse opacity="0.2" cx="230.634" cy="449.999" rx="15.7312" ry="15.2364" fill="#FAFAFA"/>
<ellipse opacity="0.2" cx="302.268" cy="449.999" rx="15.7312" ry="15.2364" fill="#FAFAFA"/>
<ellipse opacity="0.2" cx="15.7312" cy="380.617" rx="15.7312" ry="15.2364" fill="#FAFAFA"/>
<ellipse opacity="0.2" cx="87.3659" cy="380.617" rx="15.7312" ry="15.2364" fill="#FAFAFA"/>
<ellipse opacity="0.2" cx="159.001" cy="380.617" rx="15.7312" ry="15.2364" fill="#FAFAFA"/>
<ellipse opacity="0.2" cx="230.634" cy="380.617" rx="15.7312" ry="15.2364" fill="#FAFAFA"/>
<ellipse opacity="0.2" cx="302.268" cy="380.617" rx="15.7312" ry="15.2364" fill="#FAFAFA"/>
<ellipse opacity="0.2" cx="15.7312" cy="519.382" rx="15.7312" ry="15.2364" fill="#FAFAFA"/>
<ellipse opacity="0.2" cx="87.3659" cy="519.382" rx="15.7312" ry="15.2364" fill="#FAFAFA"/>
<ellipse opacity="0.2" cx="159.001" cy="519.382" rx="15.7312" ry="15.2364" fill="#FAFAFA"/>
<ellipse opacity="0.2" cx="230.634" cy="519.382" rx="15.7312" ry="15.2364" fill="#FAFAFA"/>
<ellipse opacity="0.2" cx="302.268" cy="519.382" rx="15.7312" ry="15.2364" fill="#FAFAFA"/>
<ellipse opacity="0.2" cx="15.7312" cy="588.762" rx="15.7312" ry="15.2364" fill="#FAFAFA"/>
<ellipse opacity="0.2" cx="87.3659" cy="588.762" rx="15.7312" ry="15.2364" fill="#FAFAFA"/>
<ellipse opacity="0.2" cx="159.001" cy="588.762" rx="15.7312" ry="15.2364" fill="#FAFAFA"/>
<ellipse opacity="0.2" cx="230.634" cy="588.762" rx="15.7312" ry="15.2364" fill="#FAFAFA"/>
<ellipse opacity="0.2" cx="302.268" cy="588.762" rx="15.7312" ry="15.2364" fill="#FAFAFA"/>
</g>
<path d="M101.904 231.744V262.848C101.904 266.256 102.792 268.872 104.568 270.696C106.344 272.472 108.84 273.36 112.056 273.36C115.32 273.36 117.84 272.472 119.616 270.696C121.392 268.872 122.28 266.256 122.28 262.848V231.744H132.432V262.776C132.432 267.048 131.496 270.672 129.624 273.648C127.8 276.576 125.328 278.784 122.208 280.272C119.136 281.76 115.704 282.504 111.912 282.504C108.168 282.504 104.76 281.76 101.688 280.272C98.664 278.784 96.264 276.576 94.488 273.648C92.712 270.672 91.824 267.048 91.824 262.776V231.744H101.904ZM172.267 282L161.395 265.08L151.531 282H140.155L155.995 256.656L139.939 231.744H151.531L162.403 248.592L172.195 231.744H183.571L167.803 257.016L183.859 282H172.267ZM245.335 247.296C245.335 249.984 244.687 252.504 243.391 254.856C242.143 257.208 240.151 259.104 237.415 260.544C234.727 261.984 231.319 262.704 227.191 262.704H218.767V282H208.687V231.744H227.191C231.079 231.744 234.391 232.416 237.127 233.76C239.863 235.104 241.903 236.952 243.247 239.304C244.639 241.656 245.335 244.32 245.335 247.296ZM226.759 254.568C229.543 254.568 231.607 253.944 232.951 252.696C234.295 251.4 234.967 249.6 234.967 247.296C234.967 242.4 232.231 239.952 226.759 239.952H218.767V254.568H226.759ZM262.571 248.304C263.867 246.192 265.547 244.536 267.611 243.336C269.723 242.136 272.123 241.536 274.811 241.536V252.12H272.147C268.979 252.12 266.579 252.864 264.947 254.352C263.363 255.84 262.571 258.432 262.571 262.128V282H252.491V242.112H262.571V248.304ZM299.313 282.648C295.473 282.648 292.017 281.808 288.945 280.128C285.873 278.4 283.449 275.976 281.673 272.856C279.945 269.736 279.081 266.136 279.081 262.056C279.081 257.976 279.969 254.376 281.745 251.256C283.569 248.136 286.041 245.736 289.161 244.056C292.281 242.328 295.761 241.464 299.601 241.464C303.441 241.464 306.921 242.328 310.041 244.056C313.161 245.736 315.609 248.136 317.385 251.256C319.209 254.376 320.121 257.976 320.121 262.056C320.121 266.136 319.185 269.736 317.313 272.856C315.489 275.976 312.993 278.4 309.825 280.128C306.705 281.808 303.201 282.648 299.313 282.648ZM299.313 273.864C301.137 273.864 302.841 273.432 304.425 272.568C306.057 271.656 307.353 270.312 308.313 268.536C309.273 266.76 309.753 264.6 309.753 262.056C309.753 258.264 308.745 255.36 306.729 253.344C304.761 251.28 302.337 250.248 299.457 250.248C296.577 250.248 294.153 251.28 292.185 253.344C290.265 255.36 289.305 258.264 289.305 262.056C289.305 265.848 290.241 268.776 292.113 270.84C294.033 272.856 296.433 273.864 299.313 273.864ZM345.803 250.392H338.819V282H328.595V250.392H324.059V242.112H328.595V240.096C328.595 235.2 329.987 231.6 332.771 229.296C335.555 226.992 339.755 225.912 345.371 226.056V234.552C342.923 234.504 341.219 234.912 340.259 235.776C339.299 236.64 338.819 238.2 338.819 240.456V242.112H345.803V250.392ZM389.415 261.192C389.415 262.632 389.319 263.928 389.127 265.08H359.967C360.207 267.96 361.215 270.216 362.991 271.848C364.767 273.48 366.951 274.296 369.543 274.296C373.287 274.296 375.951 272.688 377.535 269.472H388.407C387.255 273.312 385.047 276.48 381.783 278.976C378.519 281.424 374.511 282.648 369.759 282.648C365.919 282.648 362.463 281.808 359.391 280.128C356.367 278.4 353.991 275.976 352.263 272.856C350.583 269.736 349.743 266.136 349.743 262.056C349.743 257.928 350.583 254.304 352.263 251.184C353.943 248.064 356.295 245.664 359.319 243.984C362.343 242.304 365.823 241.464 369.759 241.464C373.551 241.464 376.935 242.28 379.911 243.912C382.935 245.544 385.263 247.872 386.895 250.896C388.575 253.872 389.415 257.304 389.415 261.192ZM378.975 258.312C378.927 255.72 377.991 253.656 376.167 252.12C374.343 250.536 372.111 249.744 369.471 249.744C366.975 249.744 364.863 250.512 363.135 252.048C361.455 253.536 360.423 255.624 360.039 258.312H378.975ZM412.037 282.648C408.773 282.648 405.845 282.072 403.253 280.92C400.661 279.72 398.597 278.112 397.061 276.096C395.573 274.08 394.757 271.848 394.613 269.4H404.765C404.957 270.936 405.701 272.208 406.997 273.216C408.341 274.224 409.997 274.728 411.965 274.728C413.885 274.728 415.373 274.344 416.429 273.576C417.533 272.808 418.085 271.824 418.085 270.624C418.085 269.328 417.413 268.368 416.069 267.744C414.773 267.072 412.685 266.352 409.805 265.584C406.829 264.864 404.381 264.12 402.461 263.352C400.589 262.584 398.957 261.408 397.565 259.824C396.221 258.24 395.549 256.104 395.549 253.416C395.549 251.208 396.173 249.192 397.421 247.368C398.717 245.544 400.541 244.104 402.893 243.048C405.293 241.992 408.101 241.464 411.317 241.464C416.069 241.464 419.861 242.664 422.693 245.064C425.525 247.416 427.085 250.608 427.373 254.64H417.725C417.581 253.056 416.909 251.808 415.709 250.896C414.557 249.936 412.997 249.456 411.029 249.456C409.205 249.456 407.789 249.792 406.781 250.464C405.821 251.136 405.341 252.072 405.341 253.272C405.341 254.616 406.013 255.648 407.357 256.368C408.701 257.04 410.789 257.736 413.621 258.456C416.501 259.176 418.877 259.92 420.749 260.688C422.621 261.456 424.229 262.656 425.573 264.288C426.965 265.872 427.685 267.984 427.733 270.624C427.733 272.928 427.085 274.992 425.789 276.816C424.541 278.64 422.717 280.08 420.317 281.136C417.965 282.144 415.205 282.648 412.037 282.648ZM451.271 282.648C448.007 282.648 445.079 282.072 442.487 280.92C439.895 279.72 437.831 278.112 436.295 276.096C434.807 274.08 433.991 271.848 433.847 269.4H443.999C444.191 270.936 444.935 272.208 446.231 273.216C447.575 274.224 449.231 274.728 451.199 274.728C453.119 274.728 454.607 274.344 455.663 273.576C456.767 272.808 457.319 271.824 457.319 270.624C457.319 269.328 456.647 268.368 455.303 267.744C454.007 267.072 451.919 266.352 449.039 265.584C446.063 264.864 443.615 264.12 441.695 263.352C439.823 262.584 438.191 261.408 436.799 259.824C435.455 258.24 434.783 256.104 434.783 253.416C434.783 251.208 435.407 249.192 436.655 247.368C437.951 245.544 439.775 244.104 442.127 243.048C444.527 241.992 447.335 241.464 450.551 241.464C455.303 241.464 459.095 242.664 461.927 245.064C464.759 247.416 466.319 250.608 466.607 254.64H456.959C456.815 253.056 456.143 251.808 454.943 250.896C453.791 249.936 452.231 249.456 450.263 249.456C448.439 249.456 447.023 249.792 446.015 250.464C445.055 251.136 444.575 252.072 444.575 253.272C444.575 254.616 445.247 255.648 446.591 256.368C447.935 257.04 450.023 257.736 452.855 258.456C455.735 259.176 458.111 259.92 459.983 260.688C461.855 261.456 463.463 262.656 464.807 264.288C466.199 265.872 466.919 267.984 466.967 270.624C466.967 272.928 466.319 274.992 465.023 276.816C463.775 278.64 461.951 280.08 459.551 281.136C457.199 282.144 454.439 282.648 451.271 282.648ZM480.353 237.36C478.577 237.36 477.089 236.808 475.889 235.704C474.737 234.552 474.161 233.136 474.161 231.456C474.161 229.776 474.737 228.384 475.889 227.28C477.089 226.128 478.577 225.552 480.353 225.552C482.129 225.552 483.593 226.128 484.745 227.28C485.945 228.384 486.545 229.776 486.545 231.456C486.545 233.136 485.945 234.552 484.745 235.704C483.593 236.808 482.129 237.36 480.353 237.36ZM485.321 242.112V282H475.241V242.112H485.321ZM512.993 282.648C509.153 282.648 505.697 281.808 502.625 280.128C499.553 278.4 497.129 275.976 495.353 272.856C493.625 269.736 492.761 266.136 492.761 262.056C492.761 257.976 493.649 254.376 495.425 251.256C497.249 248.136 499.721 245.736 502.841 244.056C505.961 242.328 509.441 241.464 513.281 241.464C517.121 241.464 520.601 242.328 523.721 244.056C526.841 245.736 529.289 248.136 531.065 251.256C532.889 254.376 533.801 257.976 533.801 262.056C533.801 266.136 532.865 269.736 530.992 272.856C529.169 275.976 526.673 278.4 523.505 280.128C520.385 281.808 516.881 282.648 512.993 282.648ZM512.993 273.864C514.817 273.864 516.521 273.432 518.105 272.568C519.737 271.656 521.033 270.312 521.993 268.536C522.953 266.76 523.433 264.6 523.433 262.056C523.433 258.264 522.425 255.36 520.409 253.344C518.441 251.28 516.017 250.248 513.137 250.248C510.257 250.248 507.833 251.28 505.865 253.344C503.945 255.36 502.985 258.264 502.985 262.056C502.985 265.848 503.921 268.776 505.793 270.84C507.713 272.856 510.113 273.864 512.993 273.864ZM563.299 241.536C568.051 241.536 571.891 243.048 574.819 246.072C577.747 249.048 579.211 253.224 579.211 258.6V282H569.131V259.968C569.131 256.8 568.339 254.376 566.755 252.696C565.171 250.968 563.011 250.104 560.275 250.104C557.491 250.104 555.283 250.968 553.651 252.696C552.067 254.376 551.275 256.8 551.275 259.968V282H541.195V242.112H551.275V247.08C552.619 245.352 554.323 244.008 556.387 243.048C558.499 242.04 560.803 241.536 563.299 241.536ZM586.204 261.912C586.204 257.88 586.996 254.304 588.58 251.184C590.212 248.064 592.396 245.664 595.132 243.984C597.916 242.304 601.012 241.464 604.42 241.464C607.396 241.464 609.988 242.064 612.196 243.264C614.452 244.464 616.252 245.976 617.596 247.8V242.112H627.748V282H617.596V276.168C616.3 278.04 614.5 279.6 612.196 280.848C609.94 282.048 607.324 282.648 604.348 282.648C600.988 282.648 597.916 281.784 595.132 280.056C592.396 278.328 590.212 275.904 588.58 272.784C586.996 269.616 586.204 265.992 586.204 261.912ZM617.596 262.056C617.596 259.608 617.116 257.52 616.156 255.792C615.196 254.016 613.9 252.672 612.268 251.76C610.636 250.8 608.884 250.32 607.012 250.32C605.14 250.32 603.412 250.776 601.828 251.688C600.244 252.6 598.948 253.944 597.94 255.72C596.98 257.448 596.5 259.512 596.5 261.912C596.5 264.312 596.98 266.424 597.94 268.248C598.948 270.024 600.244 271.392 601.828 272.352C603.46 273.312 605.188 273.792 607.012 273.792C608.884 273.792 610.636 273.336 612.268 272.424C613.9 271.464 615.196 270.12 616.156 268.392C617.116 266.616 617.596 264.504 617.596 262.056ZM647.673 228.72V282H637.593V228.72H647.673ZM126.168 311.744V319.88H112.776V362H102.696V319.88H89.304V311.744H126.168ZM143.603 328.304C144.899 326.192 146.579 324.536 148.643 323.336C150.755 322.136 153.155 321.536 155.843 321.536V332.12H153.179C150.011 332.12 147.611 332.864 145.979 334.352C144.395 335.84 143.603 338.432 143.603 342.128V362H133.523V322.112H143.603V328.304ZM160.04 341.912C160.04 337.88 160.832 334.304 162.416 331.184C164.048 328.064 166.232 325.664 168.968 323.984C171.752 322.304 174.848 321.464 178.256 321.464C181.232 321.464 183.824 322.064 186.032 323.264C188.288 324.464 190.088 325.976 191.432 327.8V322.112H201.584V362H191.432V356.168C190.136 358.04 188.336 359.6 186.032 360.848C183.776 362.048 181.16 362.648 178.184 362.648C174.824 362.648 171.752 361.784 168.968 360.056C166.232 358.328 164.048 355.904 162.416 352.784C160.832 349.616 160.04 345.992 160.04 341.912ZM191.432 342.056C191.432 339.608 190.952 337.52 189.992 335.792C189.032 334.016 187.736 332.672 186.104 331.76C184.472 330.8 182.72 330.32 180.848 330.32C178.976 330.32 177.248 330.776 175.664 331.688C174.08 332.6 172.784 333.944 171.776 335.72C170.816 337.448 170.336 339.512 170.336 341.912C170.336 344.312 170.816 346.424 171.776 348.248C172.784 350.024 174.08 351.392 175.664 352.352C177.296 353.312 179.024 353.792 180.848 353.792C182.72 353.792 184.472 353.336 186.104 352.424C187.736 351.464 189.032 350.12 189.992 348.392C190.952 346.616 191.432 344.504 191.432 342.056ZM208.837 342.056C208.837 337.928 209.677 334.328 211.357 331.256C213.037 328.136 215.365 325.736 218.341 324.056C221.317 322.328 224.725 321.464 228.565 321.464C233.509 321.464 237.589 322.712 240.805 325.208C244.069 327.656 246.253 331.112 247.357 335.576H236.485C235.909 333.848 234.925 332.504 233.533 331.544C232.189 330.536 230.509 330.032 228.493 330.032C225.613 330.032 223.333 331.088 221.653 333.2C219.973 335.264 219.133 338.216 219.133 342.056C219.133 345.848 219.973 348.8 221.653 350.912C223.333 352.976 225.613 354.008 228.493 354.008C232.573 354.008 235.237 352.184 236.485 348.536H247.357C246.253 352.856 244.069 356.288 240.805 358.832C237.541 361.376 233.461 362.648 228.565 362.648C224.725 362.648 221.317 361.808 218.341 360.128C215.365 358.4 213.037 356 211.357 352.928C209.677 349.808 208.837 346.184 208.837 342.056ZM278.357 362L264.821 345.008V362H254.741V308.72H264.821V339.032L278.213 322.112H291.317L273.749 342.128L291.461 362H278.357Z" fill="white"/>
<path opacity="0.6" d="M1489.39 323.215C1489.39 469.137 1371.1 587.43 1225.18 587.43C1079.26 587.43 960.965 469.137 960.965 323.215C960.965 177.293 1079.26 59 1225.18 59C1371.1 59 1489.39 177.293 1489.39 323.215Z" fill="url(#paint1_linear_1529_17031)"/>
<ellipse cx="1225.18" cy="322.988" rx="210.17" ry="210.215" fill="url(#paint2_linear_1529_17031)"/>
<circle cx="1110.95" cy="431.593" r="5.2603" stroke="#7128CE" stroke-width="0.857835"/>
<g filter="url(#filter0_d_1529_17031)">
<path d="M879.836 401.864L863.841 456.032L853.735 434.288L830.334 429.06L879.836 401.864Z" fill="url(#paint3_linear_1529_17031)"/>
<path d="M879.836 401.864L863.841 456.032L853.735 434.288L830.334 429.06L879.836 401.864Z" stroke="white" stroke-width="1.71567" stroke-linecap="round" stroke-linejoin="round"/>
</g>
<path d="M840.671 449.688C828.788 476.545 821.776 529.376 888.794 525.849C972.566 521.441 969.04 461.477 1059.87 465.004" stroke="#C5C5C5" stroke-width="1.71567" stroke-linecap="round" stroke-linejoin="round" stroke-dasharray="16.86 16.86"/>
<path d="M1348.69 465.322L1370.4 378.827L1411.49 391.296L1389.44 478.451L1348.69 465.322Z" fill="#EEF9F0"/>
<path d="M1367.21 418.04L1373.56 390.759L1402.87 399.782L1396.29 427.532L1367.21 418.04Z" fill="#A26AE9"/>
<path d="M1358.36 455.888L1364.7 428.607L1394.02 437.629L1387.43 465.38L1358.36 455.888Z" fill="#43BE5C"/>
<path d="M1361.81 461.887L1422.37 400.615L1451.26 434.543L1390.09 496.184L1361.81 461.887Z" fill="#EEF9F0"/>
<path d="M1400.58 432.176L1419.25 412.564L1439.8 436.876L1420.7 456.751L1400.58 432.176Z" fill="#FFC93E"/>
<path d="M1374.63 459.349L1393.3 439.737L1413.85 464.049L1394.75 483.924L1374.63 459.349Z" fill="#FF842B"/>
<path d="M1379.36 463.743L1460.24 443.674L1469.41 488.692L1387.84 508.749L1379.36 463.743Z" fill="#DAF4DF"/>
<path d="M1426.71 459.118L1451.98 452.307L1458.42 484.483L1432.65 491.286L1426.71 459.118Z" fill="#43BE5C"/>
<path d="M1391.62 468.51L1416.89 461.7L1423.33 493.875L1397.57 500.678L1391.62 468.51Z" fill="#CD2026"/>
<path d="M1202.85 395L1202.84 493.099L954.952 493.218L954.882 347.252L1103 347.252" stroke="#1F1F1F" stroke-width="1.71567"/>
<rect x="-0.858249" y="-0.857422" width="13.5581" height="13.5581" transform="matrix(-0.000482113 -1 -1 0.000482113 1209.4 499.16)" fill="white" stroke="#1F1F1F" stroke-width="1.71567"/>
<rect x="-0.858249" y="-0.857422" width="13.5581" height="13.5581" transform="matrix(-0.000482113 -1 -1 0.000482113 960.88 499.28)" fill="white" stroke="#1F1F1F" stroke-width="1.71567"/>
<rect x="-0.858249" y="-0.857422" width="13.5581" height="13.5581" transform="matrix(-0.000482113 -1 -1 0.000482113 960.807 353.17)" fill="white" stroke="#1F1F1F" stroke-width="1.71567"/>
<rect width="74.4019" height="129.611" rx="6.86268" transform="matrix(0.931368 -0.36408 0.385336 0.922776 964.395 392.064)" fill="#EEF9F0"/>
<rect width="29.6875" height="16.4348" rx="6.86268" transform="matrix(0.931368 -0.36408 0.385336 0.922776 973.021 397.513)" fill="#B2E7BC"/>
<rect width="29.6875" height="16.4348" rx="6.86268" transform="matrix(0.931368 -0.36408 0.385336 0.922776 980.506 415.436)" fill="#B2E7BC"/>
<rect width="62.6735" height="5.22924" rx="2.61462" transform="matrix(0.931368 -0.36408 0.385336 0.922776 987.99 433.357)" fill="#DAF4DF"/>
<path d="M988.998 435.77C988.441 434.438 989.08 432.931 990.425 432.405L1023.83 419.346L1025.85 424.172L992.44 437.231C991.096 437.757 989.554 437.103 988.998 435.77Z" fill="#7CE391"/>
<rect width="30.054" height="16.4348" rx="6.86268" transform="matrix(0.931368 -0.36408 0.385336 0.922776 1003.4 385.637)" fill="#B2E7BC"/>
<rect width="30.054" height="16.4348" rx="6.86268" transform="matrix(0.931368 -0.36408 0.385336 0.922776 1010.89 403.559)" fill="#B2E7BC"/>
<rect width="27.4884" height="1.49407" rx="0.747035" transform="matrix(0.931368 -0.36408 0.385336 0.922776 1033.88 497.611)" fill="#D7D7D7"/>
<rect width="16.1249" height="41.0028" transform="matrix(0.924027 -0.382326 0.378897 0.925439 1023.13 439.165)" fill="#F5EEFF"/>
<path d="M1025.72 440.451L1037.25 435.678L1041.06 444.971L1029.52 449.744L1025.72 440.451Z" fill="#B589ED"/>
<path d="M1030.73 452.686L1042.26 447.913L1046.07 457.205L1034.53 461.978L1030.73 452.686Z" fill="#8A49DD"/>
<path d="M1035.74 464.924L1047.27 460.151L1051.08 469.444L1039.54 474.217L1035.74 464.924Z" fill="#570DB4"/>
<rect width="16.1254" height="41.0015" transform="matrix(0.88515 -0.465306 0.467995 0.883731 1011 447.393)" fill="#F5EEFF"/>
<path d="M1013.71 448.43L1024.76 442.621L1029.46 451.494L1018.41 457.303L1013.71 448.43Z" fill="#43BE5C"/>
<path d="M1019.89 460.111L1030.94 454.302L1035.64 463.176L1024.59 468.985L1019.89 460.111Z" fill="#CD2026"/>
<path d="M1026.08 471.795L1037.13 465.986L1041.83 474.86L1030.78 480.669L1026.08 471.795Z" fill="#FF842A"/>
<path d="M1380.03 116.212L1364.91 79L1405.03 87.1401L1419.56 123.189L1380.03 116.212Z" fill="#F7921E"/>
<path d="M1337 108.653L1364.91 79L1380.04 116.133L1354.44 146.446L1337 108.653Z" fill="#FABE18"/>
<path d="M1395.41 153.127L1354.55 146.884L1380.09 116.427L1419.25 124.183L1395.41 153.127Z" fill="#DD3B41"/>
<path d="M1061.54 90.6943L1056.86 118.049L1074.59 139.402L1047.23 134.729L1025.88 152.453L1030.55 125.099L1012.83 103.745L1040.18 108.418L1061.54 90.6943Z" fill="#FAFAFA"/>
<path d="M1062.9 90.3281L1058.23 117.682L1075.95 139.035L1048.6 134.363L1027.24 152.087L1031.92 124.732L1014.19 103.379L1041.55 108.052L1062.9 90.3281Z" fill="#F4767B"/>
<path d="M1051.98 196.242C1066.22 202.247 1084.13 195.23 1091.89 177.409C1099.65 159.588 1099.7 135.063 1098.6 127.147" stroke="#FF842B" stroke-width="0.773461" stroke-linecap="round"/>
<path d="M1108.44 117.047L1131.45 148.537C1131.02 149.23 1130.59 149.923 1130.29 150.606C1129.67 151.841 1129.07 153.207 1128.71 154.554L1113.14 140.178C1111.9 136.973 1110.6 134.302 1109.21 133.089C1108.79 132.726 1108.37 132.362 1107.97 132.129L1108.44 117.047Z" fill="#FFB800"/>
<path d="M1107.18 105.191C1108.36 106.953 1108.97 109.154 1108.96 111.272L1108.87 117.1L1108.45 132.212C1103.48 128.361 1099.02 129.101 1099.02 129.101L1101.17 138.592L1073.29 140.736C1068.48 131.713 1053.91 134.288 1053.91 134.288L1057.34 141.962L1043.21 143.048L1028.55 130.417C1029.34 130.885 1030.34 131.073 1031.31 130.998L1093.3 126.234C1095.73 126.046 1097.6 124.051 1097.8 121.39L1099.73 95.5776C1099.84 94.3784 1099.6 93.3383 1099.14 92.4482L1107.18 105.191Z" fill="#FFB800"/>
<path d="M1099.7 95.3986L1097.77 121.296C1097.57 123.965 1095.7 125.968 1093.26 126.156L1031.08 130.953C1030.1 131.028 1029.09 130.841 1028.3 130.371C1026.46 129.318 1025.11 127.166 1025.34 124.76L1027.27 98.8624C1027.47 96.1928 1029.34 94.1902 1031.78 94.0018L1093.97 89.2052C1095.07 89.1204 1096.09 89.4398 1096.88 89.9096C1097.53 90.2573 1097.96 90.7554 1098.52 91.3757L1098.97 92.137L1098.99 92.2686C1099.58 93.1521 1099.82 94.1954 1099.7 95.3986Z" fill="#FFE39C"/>
<path d="M1089.57 94.6296C1090.31 94.5729 1091 95.178 1091.08 95.9607C1091.17 96.7434 1090.63 97.4429 1089.89 97.4995L1036.2 101.626C1035.46 101.683 1034.78 101.078 1034.69 100.295C1034.6 99.5126 1035.15 98.8131 1035.88 98.7565L1089.57 94.6296Z" fill="#CD2026"/>
<path d="M1062.75 153.937C1064.21 157.53 1063.59 161.448 1061.57 162.593C1059.45 163.748 1056.57 161.798 1055.21 158.195C1053.74 154.602 1054.37 150.684 1056.38 149.539C1058.51 148.384 1061.28 150.344 1062.75 153.937Z" fill="white"/>
<path d="M1022.46 74.1618C1027.1 74.3197 1031.5 76.2927 1034.69 79.6517L1008.82 103.786C1005.68 100.372 1004 95.8627 1004.16 91.2275C1004.32 86.5418 1006.34 82.1115 1009.77 78.911C1013.2 75.7105 1017.77 74.0022 1022.46 74.1618Z" stroke="#C5C5C5" stroke-width="0.30303"/>
<path fill-rule="evenodd" clip-rule="evenodd" d="M1253.13 205.893V371.614H1249V202.645C1249.38 198.509 1252.71 190.204 1262.96 190.073C1273.2 189.941 1313.97 190.018 1333.07 190.073C1337.45 190.792 1346.24 194.314 1346.37 202.645C1346.5 210.777 1346.43 313.634 1346.37 367.706C1346.37 369.88 1344.61 371.614 1342.43 371.614H1325V367H1342.43V205.893C1342.43 199.935 1337.6 195.104 1331.64 195.104H1322.43V197.251C1322.43 200.23 1320.02 202.645 1317.04 202.645H1278.7C1275.72 202.645 1273.31 200.23 1273.31 197.251V195.104H1263.92C1257.96 195.104 1253.13 199.935 1253.13 205.893ZM1290.27 197.797C1290.27 197.124 1290.81 196.579 1291.49 196.579H1300.68C1301.35 196.579 1301.9 197.124 1301.9 197.797C1301.9 198.469 1301.35 199.014 1300.68 199.014H1291.49C1290.81 199.014 1290.27 198.469 1290.27 197.797ZM1305.94 198.953C1306.6 198.953 1307.13 198.422 1307.13 197.766C1307.13 197.111 1306.6 196.579 1305.94 196.579C1305.29 196.579 1304.76 197.111 1304.76 197.766C1304.76 198.422 1305.29 198.953 1305.94 198.953Z" fill="white"/>
<path d="M1272.53 270.693L1297.09 255.679L1322.77 270.693L1298.22 284.763L1272.53 270.693Z" fill="#A7A7A7"/>
<path d="M1297.04 229.017V255.668L1322.79 270.685V244.463L1297.04 229.017Z" fill="#F5F5F5"/>
<path d="M1273.24 244.292L1296.99 229.022V255.676L1272.49 270.795L1273.24 244.292Z" fill="#D7D7D7"/>
<rect x="1109.32" y="229.32" width="216.008" height="158.491" rx="4.79308" fill="white" stroke="#1F1F1F" stroke-width="0.639077"/>
<path d="M1109.32 234.113C1109.32 231.465 1111.47 229.32 1114.11 229.32H1320.53C1323.18 229.32 1325.33 231.465 1325.33 234.113V254.482H1109.32V234.113Z" fill="white" stroke="#1F1F1F" stroke-width="0.639077"/>
<ellipse cx="1123.47" cy="241.899" rx="3.65446" ry="3.79547" fill="#CD2026"/>
<ellipse cx="1134.44" cy="241.899" rx="3.65446" ry="3.79547" fill="#FFB800"/>
<ellipse cx="1145.4" cy="241.899" rx="3.65446" ry="3.79547" fill="#43BE5C"/>
<path d="M1254.41 300.112L1251.26 303.019L1243.04 295.428L1246.19 292.52L1247.67 293.893L1250.56 291.228C1252.31 289.613 1254.58 289.613 1255.89 290.824C1257.55 292.359 1258.17 294.055 1255.89 296.155L1253.01 298.82L1254.41 300.112Z" fill="#169F32"/>
<path d="M1245.08 297.293C1242.66 299.528 1239.76 302.203 1238.43 303.431C1236.68 305.046 1237.29 306.581 1237.9 307.146C1237.61 307.415 1237.89 307.162 1237.12 307.873C1236.77 308.196 1236.86 308.6 1237.12 308.842C1237.38 309.084 1237.82 309.165 1238.17 308.842C1238.66 308.39 1238.55 308.492 1238.95 308.115C1239.48 308.6 1241.23 308.923 1242.8 307.469C1244.06 306.306 1247 303.593 1249.45 301.331" stroke="#1F1F1F" stroke-width="0.639077"/>
<rect x="1216.45" y="316.912" width="45.2867" height="41.8226" fill="#FFB800"/>
<path d="M1228.12 330.886L1231.52 333.871L1234.58 330.886L1237.82 333.871L1241.39 330.886L1244.62 333.871L1246.83 330.886L1250.06 333.871" stroke="#1F1F1F" stroke-width="0.639077"/>
<path d="M1186.97 323.755V280.766H1232.82V323.755H1186.97Z" fill="white" stroke="#1F1F1F" stroke-width="0.639077"/>
<path d="M1232.71 281.062L1187.14 323.69" stroke="#1F1F1F" stroke-width="0.639077"/>
<path d="M1187.13 281.062L1232.69 323.69" stroke="#1F1F1F" stroke-width="0.639077"/>
<rect x="1310.95" y="296.743" width="37.7055" height="47.2917" fill="#FF842B"/>
<path d="M1319.63 312.543L1322.47 315.918L1325.02 312.543L1327.71 315.918L1330.68 312.543L1333.37 315.918L1335.58 312.543L1337.9 315.918L1339.97 312.543" stroke="white" stroke-width="1.27815"/>
<defs>
<filter id="filter0_d_1529_17031" x="824.981" y="401.007" width="60.2082" height="64.8752" filterUnits="userSpaceOnUse" color-interpolation-filters="sRGB">
<feFlood flood-opacity="0" result="BackgroundImageFix"/>
<feColorMatrix in="SourceAlpha" type="matrix" values="0 0 0 0 0 0 0 0 0 0 0 0 0 0 0 0 0 0 127 0" result="hardAlpha"/>
<feOffset dy="4.49568"/>
<feGaussianBlur stdDeviation="2.24784"/>
<feComposite in2="hardAlpha" operator="out"/>
<feColorMatrix type="matrix" values="0 0 0 0 0 0 0 0 0 0 0 0 0 0 0 0 0 0 0.25 0"/>
<feBlend mode="normal" in2="BackgroundImageFix" result="effect1_dropShadow_1529_17031"/>
<feBlend mode="normal" in="SourceGraphic" in2="effect1_dropShadow_1529_17031" result="shape"/>
</filter>
<linearGradient id="paint0_linear_1529_17031" x1="-0.000142526" y1="28.7113" x2="1180.2" y2="1006.64" gradientUnits="userSpaceOnUse">
<stop stop-color="#A26AE9"/>
<stop offset="1" stop-color="#7128CE"/>
</linearGradient>
<linearGradient id="paint1_linear_1529_17031" x1="1225.18" y1="59" x2="1225.18" y2="587.43" gradientUnits="userSpaceOnUse">
<stop stop-color="#7F0DB4"/>
<stop offset="1" stop-color="#570DB4"/>
</linearGradient>
<linearGradient id="paint2_linear_1529_17031" x1="1225.18" y1="112.773" x2="1225.18" y2="533.203" gradientUnits="userSpaceOnUse">
<stop stop-color="#7F0DB4"/>
<stop offset="1" stop-color="#570DB4"/>
</linearGradient>
<linearGradient id="paint3_linear_1529_17031" x1="853.918" y1="404.664" x2="859.519" y2="456.499" gradientUnits="userSpaceOnUse">
<stop stop-color="#FF820E"/>
<stop offset="1" stop-color="#FF820E"/>
</linearGradient>
</defs>
</svg>
