<svg width="1601" height="608" viewBox="0 0 1601 608" fill="none" xmlns="http://www.w3.org/2000/svg">
<rect width="1601" height="608" fill="#FFB800"/>
<path d="M1434.85 322.988C1434.85 438.811 1340.98 532.703 1225.18 532.703C1109.38 532.703 1015.51 438.811 1015.51 322.988C1015.51 207.166 1109.38 113.273 1225.18 113.273C1340.98 113.273 1434.85 207.166 1434.85 322.988Z" fill="url(#paint0_linear_1529_18064)" stroke="url(#paint1_linear_1529_18064)"/>
<path opacity="0.6" d="M1488.89 323.215C1488.89 468.861 1370.82 586.93 1225.18 586.93C1079.53 586.93 961.465 468.861 961.465 323.215C961.465 177.569 1079.53 59.5 1225.18 59.5C1370.82 59.5 1488.89 177.569 1488.89 323.215Z" fill="url(#paint2_linear_1529_18064)" stroke="url(#paint3_linear_1529_18064)"/>
<rect width="37.3343" height="88.2447" transform="matrix(0.640347 0.768086 0.768086 -0.640347 1028.39 347.152)" fill="#EEF9F0"/>
<rect width="26.0209" height="15.8388" transform="matrix(0.640347 0.768086 0.768086 -0.640347 1038.96 345.7)" fill="#169F32"/>
<rect width="26.0209" height="15.8388" transform="matrix(0.640347 0.768086 0.768086 -0.640347 1052.87 334.109)" fill="#43BE5C"/>
<rect width="26.0209" height="15.8388" transform="matrix(0.640347 0.768086 0.768086 -0.640347 1066.77 322.518)" fill="#B2E7BC"/>
<rect width="26.0209" height="15.8388" transform="matrix(0.640347 0.768086 0.768086 -0.640347 1080.67 310.927)" fill="#DAF4DF"/>
<rect width="37.3343" height="88.2447" transform="matrix(0.155597 0.987821 0.987821 -0.155597 1015 298.878)" fill="#F5EEFF"/>
<rect width="26.0209" height="15.8388" transform="matrix(0.155597 0.987821 0.987821 -0.155597 1024.82 303.057)" fill="#7128CE"/>
<rect width="26.0209" height="15.8388" transform="matrix(0.155597 0.987821 0.987821 -0.155597 1042.7 300.241)" fill="#A26AE9"/>
<rect width="26.0209" height="15.8388" transform="matrix(0.155597 0.987821 0.987821 -0.155597 1060.58 297.423)" fill="#C29FEF"/>
<rect width="26.0209" height="15.8388" transform="matrix(0.155597 0.987821 0.987821 -0.155597 1078.46 294.607)" fill="#EAD9FF"/>
<rect width="37.3343" height="88.2447" transform="matrix(-0.348946 0.937143 0.937143 0.348946 1033.65 253)" fill="#FFF0F1"/>
<rect width="26.0209" height="15.8388" transform="matrix(-0.348946 0.937143 0.937143 0.348946 1040.16 261.458)" fill="#CD2026"/>
<rect width="26.0209" height="15.8388" transform="matrix(-0.348946 0.937143 0.937143 0.348946 1057.12 267.775)" fill="#F4767B"/>
<rect width="26.0209" height="15.8388" transform="matrix(-0.348946 0.937143 0.937143 0.348946 1074.09 274.09)" fill="#FFB1B4"/>
<rect width="26.0209" height="15.8388" transform="matrix(-0.348946 0.937143 0.937143 0.348946 1091.05 280.408)" fill="#FFD7D8"/>
<path d="M1146.94 476.646L1146.94 526.512L960.963 526.602L960.91 417.091L1096.8 417.091" stroke="#1F1F1F" stroke-width="1.28717"/>
<g opacity="0.2">
<ellipse opacity="0.2" cx="15.7312" cy="311.236" rx="15.7312" ry="15.2364" fill="#FAFAFA"/>
<ellipse opacity="0.2" cx="87.3659" cy="311.236" rx="15.7312" ry="15.2364" fill="#FAFAFA"/>
<ellipse opacity="0.2" cx="159" cy="311.236" rx="15.7312" ry="15.2364" fill="#FAFAFA"/>
<ellipse opacity="0.2" cx="230.634" cy="311.236" rx="15.7312" ry="15.2364" fill="#FAFAFA"/>
<ellipse opacity="0.2" cx="302.268" cy="311.236" rx="15.7312" ry="15.2364" fill="#FAFAFA"/>
<ellipse opacity="0.2" cx="15.7312" cy="449.999" rx="15.7312" ry="15.2364" fill="#FAFAFA"/>
<ellipse opacity="0.2" cx="87.3659" cy="449.999" rx="15.7312" ry="15.2364" fill="#FAFAFA"/>
<ellipse opacity="0.2" cx="159" cy="449.999" rx="15.7312" ry="15.2364" fill="#FAFAFA"/>
<ellipse opacity="0.2" cx="230.634" cy="449.999" rx="15.7312" ry="15.2364" fill="#FAFAFA"/>
<ellipse opacity="0.2" cx="302.268" cy="449.999" rx="15.7312" ry="15.2364" fill="#FAFAFA"/>
<ellipse opacity="0.2" cx="15.7312" cy="380.617" rx="15.7312" ry="15.2364" fill="#FAFAFA"/>
<ellipse opacity="0.2" cx="87.3659" cy="380.617" rx="15.7312" ry="15.2364" fill="#FAFAFA"/>
<ellipse opacity="0.2" cx="159" cy="380.617" rx="15.7312" ry="15.2364" fill="#FAFAFA"/>
<ellipse opacity="0.2" cx="230.634" cy="380.617" rx="15.7312" ry="15.2364" fill="#FAFAFA"/>
<ellipse opacity="0.2" cx="302.268" cy="380.617" rx="15.7312" ry="15.2364" fill="#FAFAFA"/>
<ellipse opacity="0.2" cx="15.7312" cy="519.381" rx="15.7312" ry="15.2364" fill="#FAFAFA"/>
<ellipse opacity="0.2" cx="87.3659" cy="519.381" rx="15.7312" ry="15.2364" fill="#FAFAFA"/>
<ellipse opacity="0.2" cx="159" cy="519.381" rx="15.7312" ry="15.2364" fill="#FAFAFA"/>
<ellipse opacity="0.2" cx="230.634" cy="519.381" rx="15.7312" ry="15.2364" fill="#FAFAFA"/>
<ellipse opacity="0.2" cx="302.268" cy="519.381" rx="15.7312" ry="15.2364" fill="#FAFAFA"/>
<ellipse opacity="0.2" cx="15.7312" cy="588.762" rx="15.7312" ry="15.2364" fill="#FAFAFA"/>
<ellipse opacity="0.2" cx="87.3659" cy="588.762" rx="15.7312" ry="15.2364" fill="#FAFAFA"/>
<ellipse opacity="0.2" cx="159" cy="588.762" rx="15.7312" ry="15.2364" fill="#FAFAFA"/>
<ellipse opacity="0.2" cx="230.634" cy="588.762" rx="15.7312" ry="15.2364" fill="#FAFAFA"/>
<ellipse opacity="0.2" cx="302.268" cy="588.762" rx="15.7312" ry="15.2364" fill="#FAFAFA"/>
</g>
<path d="M109.536 278.744C114.816 278.744 119.448 279.776 123.432 281.84C127.464 283.904 130.56 286.856 132.72 290.696C134.928 294.488 136.032 298.904 136.032 303.944C136.032 308.984 134.928 313.4 132.72 317.192C130.56 320.936 127.464 323.84 123.432 325.904C119.448 327.968 114.816 329 109.536 329H91.968V278.744H109.536ZM109.176 320.432C114.456 320.432 118.536 318.992 121.416 316.112C124.296 313.232 125.736 309.176 125.736 303.944C125.736 298.712 124.296 294.632 121.416 291.704C118.536 288.728 114.456 287.24 109.176 287.24H102.048V320.432H109.176ZM178.086 329.504C174.582 329.504 171.414 328.904 168.582 327.704C165.798 326.504 163.59 324.776 161.958 322.52C160.326 320.264 159.486 317.6 159.438 314.528H170.238C170.382 316.592 171.102 318.224 172.398 319.424C173.742 320.624 175.566 321.224 177.87 321.224C180.222 321.224 182.07 320.672 183.414 319.568C184.758 318.416 185.43 316.928 185.43 315.104C185.43 313.616 184.974 312.392 184.062 311.432C183.15 310.472 181.998 309.728 180.606 309.2C179.262 308.624 177.39 308 174.99 307.328C171.726 306.368 169.062 305.432 166.998 304.52C164.982 303.56 163.23 302.144 161.742 300.272C160.302 298.352 159.582 295.808 159.582 292.64C159.582 289.664 160.326 287.072 161.814 284.864C163.302 282.656 165.39 280.976 168.078 279.824C170.766 278.624 173.838 278.024 177.294 278.024C182.478 278.024 186.678 279.296 189.894 281.84C193.158 284.336 194.958 287.84 195.294 292.352H184.206C184.11 290.624 183.366 289.208 181.974 288.104C180.63 286.952 178.83 286.376 176.574 286.376C174.606 286.376 173.022 286.88 171.822 287.888C170.67 288.896 170.094 290.36 170.094 292.28C170.094 293.624 170.526 294.752 171.39 295.664C172.302 296.528 173.406 297.248 174.702 297.824C176.046 298.352 177.918 298.976 180.318 299.696C183.582 300.656 186.246 301.616 188.31 302.576C190.374 303.536 192.15 304.976 193.638 306.896C195.126 308.816 195.87 311.336 195.87 314.456C195.87 317.144 195.174 319.64 193.782 321.944C192.39 324.248 190.35 326.096 187.662 327.488C184.974 328.832 181.782 329.504 178.086 329.504ZM202.017 309.056C202.017 304.928 202.857 301.328 204.537 298.256C206.217 295.136 208.545 292.736 211.521 291.056C214.497 289.328 217.905 288.464 221.745 288.464C226.689 288.464 230.769 289.712 233.985 292.208C237.249 294.656 239.433 298.112 240.537 302.576H229.665C229.089 300.848 228.105 299.504 226.713 298.544C225.369 297.536 223.689 297.032 221.673 297.032C218.793 297.032 216.513 298.088 214.833 300.2C213.153 302.264 212.313 305.216 212.313 309.056C212.313 312.848 213.153 315.8 214.833 317.912C216.513 319.976 218.793 321.008 221.673 321.008C225.753 321.008 228.417 319.184 229.665 315.536H240.537C239.433 319.856 237.249 323.288 233.985 325.832C230.721 328.376 226.641 329.648 221.745 329.648C217.905 329.648 214.497 328.808 211.521 327.128C208.545 325.4 206.217 323 204.537 319.928C202.857 316.808 202.017 313.184 202.017 309.056ZM270.385 288.536C273.409 288.536 276.097 289.208 278.449 290.552C280.801 291.848 282.625 293.792 283.921 296.384C285.265 298.928 285.937 302 285.937 305.6V329H275.857V306.968C275.857 303.8 275.065 301.376 273.481 299.696C271.897 297.968 269.737 297.104 267.001 297.104C264.217 297.104 262.009 297.968 260.377 299.696C258.793 301.376 258.001 303.8 258.001 306.968V329H247.921V275.72H258.001V294.08C259.297 292.352 261.025 291.008 263.185 290.048C265.345 289.04 267.745 288.536 270.385 288.536ZM313.235 329.648C309.395 329.648 305.939 328.808 302.867 327.128C299.795 325.4 297.371 322.976 295.595 319.856C293.867 316.736 293.003 313.136 293.003 309.056C293.003 304.976 293.891 301.376 295.667 298.256C297.491 295.136 299.963 292.736 303.083 291.056C306.203 289.328 309.683 288.464 313.523 288.464C317.363 288.464 320.843 289.328 323.963 291.056C327.083 292.736 329.531 295.136 331.307 298.256C333.131 301.376 334.043 304.976 334.043 309.056C334.043 313.136 333.107 316.736 331.235 319.856C329.411 322.976 326.915 325.4 323.747 327.128C320.627 328.808 317.123 329.648 313.235 329.648ZM313.235 320.864C315.059 320.864 316.763 320.432 318.347 319.568C319.979 318.656 321.275 317.312 322.235 315.536C323.195 313.76 323.675 311.6 323.675 309.056C323.675 305.264 322.667 302.36 320.651 300.344C318.683 298.28 316.259 297.248 313.379 297.248C310.499 297.248 308.075 298.28 306.107 300.344C304.187 302.36 303.227 305.264 303.227 309.056C303.227 312.848 304.163 315.776 306.035 317.84C307.955 319.856 310.355 320.864 313.235 320.864ZM359.149 329.648C355.309 329.648 351.853 328.808 348.781 327.128C345.709 325.4 343.285 322.976 341.509 319.856C339.781 316.736 338.917 313.136 338.917 309.056C338.917 304.976 339.805 301.376 341.581 298.256C343.405 295.136 345.877 292.736 348.997 291.056C352.117 289.328 355.597 288.464 359.437 288.464C363.277 288.464 366.757 289.328 369.877 291.056C372.997 292.736 375.445 295.136 377.221 298.256C379.045 301.376 379.957 304.976 379.957 309.056C379.957 313.136 379.021 316.736 377.149 319.856C375.325 322.976 372.829 325.4 369.661 327.128C366.541 328.808 363.037 329.648 359.149 329.648ZM359.149 320.864C360.973 320.864 362.677 320.432 364.261 319.568C365.893 318.656 367.189 317.312 368.149 315.536C369.109 313.76 369.589 311.6 369.589 309.056C369.589 305.264 368.581 302.36 366.565 300.344C364.597 298.28 362.173 297.248 359.293 297.248C356.413 297.248 353.989 298.28 352.021 300.344C350.101 302.36 349.141 305.264 349.141 309.056C349.141 312.848 350.077 315.776 351.949 317.84C353.869 319.856 356.269 320.864 359.149 320.864ZM397.431 275.72V329H387.351V275.72H397.431ZM461.194 294.296C461.194 296.984 460.546 299.504 459.25 301.856C458.002 304.208 456.01 306.104 453.274 307.544C450.586 308.984 447.178 309.704 443.05 309.704H434.626V329H424.546V278.744H443.05C446.938 278.744 450.25 279.416 452.986 280.76C455.722 282.104 457.762 283.952 459.106 286.304C460.498 288.656 461.194 291.32 461.194 294.296ZM442.618 301.568C445.402 301.568 447.466 300.944 448.81 299.696C450.154 298.4 450.826 296.6 450.826 294.296C450.826 289.4 448.09 286.952 442.618 286.952H434.626V301.568H442.618ZM478.431 295.304C479.727 293.192 481.407 291.536 483.471 290.336C485.583 289.136 487.983 288.536 490.671 288.536V299.12H488.007C484.839 299.12 482.439 299.864 480.807 301.352C479.223 302.84 478.431 305.432 478.431 309.128V329H468.351V289.112H478.431V295.304ZM534.54 308.192C534.54 309.632 534.444 310.928 534.252 312.08H505.092C505.332 314.96 506.34 317.216 508.116 318.848C509.892 320.48 512.076 321.296 514.668 321.296C518.412 321.296 521.076 319.688 522.66 316.472H533.532C532.38 320.312 530.172 323.48 526.908 325.976C523.644 328.424 519.636 329.648 514.884 329.648C511.044 329.648 507.588 328.808 504.516 327.128C501.492 325.4 499.116 322.976 497.388 319.856C495.708 316.736 494.868 313.136 494.868 309.056C494.868 304.928 495.708 301.304 497.388 298.184C499.068 295.064 501.42 292.664 504.444 290.984C507.468 289.304 510.948 288.464 514.884 288.464C518.676 288.464 522.06 289.28 525.036 290.912C528.06 292.544 530.388 294.872 532.02 297.896C533.7 300.872 534.54 304.304 534.54 308.192ZM524.1 305.312C524.052 302.72 523.116 300.656 521.292 299.12C519.468 297.536 517.236 296.744 514.596 296.744C512.1 296.744 509.988 297.512 508.26 299.048C506.58 300.536 505.548 302.624 505.164 305.312H524.1ZM551.978 294.872C553.274 293.048 555.05 291.536 557.306 290.336C559.61 289.088 562.226 288.464 565.154 288.464C568.562 288.464 571.634 289.304 574.37 290.984C577.154 292.664 579.338 295.064 580.922 298.184C582.554 301.256 583.37 304.832 583.37 308.912C583.37 312.992 582.554 316.616 580.922 319.784C579.338 322.904 577.154 325.328 574.37 327.056C571.634 328.784 568.562 329.648 565.154 329.648C562.226 329.648 559.634 329.048 557.378 327.848C555.17 326.648 553.37 325.136 551.978 323.312V348.008H541.898V289.112H551.978V294.872ZM573.074 308.912C573.074 306.512 572.57 304.448 571.562 302.72C570.602 300.944 569.306 299.6 567.674 298.688C566.09 297.776 564.362 297.32 562.49 297.32C560.666 297.32 558.938 297.8 557.306 298.76C555.722 299.672 554.426 301.016 553.418 302.792C552.458 304.568 551.978 306.656 551.978 309.056C551.978 311.456 552.458 313.544 553.418 315.32C554.426 317.096 555.722 318.464 557.306 319.424C558.938 320.336 560.666 320.792 562.49 320.792C564.362 320.792 566.09 320.312 567.674 319.352C569.306 318.392 570.602 317.024 571.562 315.248C572.57 313.472 573.074 311.36 573.074 308.912ZM126.168 358.744V366.88H112.776V409H102.696V366.88H89.304V358.744H126.168ZM143.603 375.304C144.899 373.192 146.579 371.536 148.643 370.336C150.755 369.136 153.155 368.536 155.843 368.536V379.12H153.179C150.011 379.12 147.611 379.864 145.979 381.352C144.395 382.84 143.603 385.432 143.603 389.128V409H133.523V369.112H143.603V375.304ZM160.04 388.912C160.04 384.88 160.832 381.304 162.416 378.184C164.048 375.064 166.232 372.664 168.968 370.984C171.752 369.304 174.848 368.464 178.256 368.464C181.232 368.464 183.824 369.064 186.032 370.264C188.288 371.464 190.088 372.976 191.432 374.8V369.112H201.584V409H191.432V403.168C190.136 405.04 188.336 406.6 186.032 407.848C183.776 409.048 181.16 409.648 178.184 409.648C174.824 409.648 171.752 408.784 168.968 407.056C166.232 405.328 164.048 402.904 162.416 399.784C160.832 396.616 160.04 392.992 160.04 388.912ZM191.432 389.056C191.432 386.608 190.952 384.52 189.992 382.792C189.032 381.016 187.736 379.672 186.104 378.76C184.472 377.8 182.72 377.32 180.848 377.32C178.976 377.32 177.248 377.776 175.664 378.688C174.08 379.6 172.784 380.944 171.776 382.72C170.816 384.448 170.336 386.512 170.336 388.912C170.336 391.312 170.816 393.424 171.776 395.248C172.784 397.024 174.08 398.392 175.664 399.352C177.296 400.312 179.024 400.792 180.848 400.792C182.72 400.792 184.472 400.336 186.104 399.424C187.736 398.464 189.032 397.12 189.992 395.392C190.952 393.616 191.432 391.504 191.432 389.056ZM208.837 389.056C208.837 384.928 209.677 381.328 211.357 378.256C213.037 375.136 215.365 372.736 218.341 371.056C221.317 369.328 224.725 368.464 228.565 368.464C233.509 368.464 237.589 369.712 240.805 372.208C244.069 374.656 246.253 378.112 247.357 382.576H236.485C235.909 380.848 234.925 379.504 233.533 378.544C232.189 377.536 230.509 377.032 228.493 377.032C225.613 377.032 223.333 378.088 221.653 380.2C219.973 382.264 219.133 385.216 219.133 389.056C219.133 392.848 219.973 395.8 221.653 397.912C223.333 399.976 225.613 401.008 228.493 401.008C232.573 401.008 235.237 399.184 236.485 395.536H247.357C246.253 399.856 244.069 403.288 240.805 405.832C237.541 408.376 233.461 409.648 228.565 409.648C224.725 409.648 221.317 408.808 218.341 407.128C215.365 405.4 213.037 403 211.357 399.928C209.677 396.808 208.837 393.184 208.837 389.056ZM278.357 409L264.821 392.008V409H254.741V355.72H264.821V386.032L278.213 369.112H291.317L273.749 389.128L291.461 409H278.357Z" fill="white"/>
<ellipse cx="1260.88" cy="484" rx="141.882" ry="6" fill="#EDAB00"/>
<g filter="url(#filter0_d_1529_18064)">
<path d="M810.835 479.732L794.84 533.9L784.734 512.156L761.333 506.928L810.835 479.732Z" fill="url(#paint4_linear_1529_18064)"/>
<path d="M810.835 479.732L794.84 533.9L784.734 512.156L761.333 506.928L810.835 479.732Z" stroke="white" stroke-width="1.71567" stroke-linecap="round" stroke-linejoin="round"/>
</g>
<path d="M771.672 527.556C759.789 554.412 752.777 607.243 819.795 603.717C903.567 599.309 900.041 539.345 990.869 542.872" stroke="white" stroke-width="1.71567" stroke-linecap="round" stroke-linejoin="round" stroke-dasharray="16.86 16.86"/>
<rect x="-0.643897" y="-0.643276" width="10.1719" height="10.1719" transform="matrix(-0.000482113 -1 -1 0.000482113 1151.99 530.708)" fill="white" stroke="#1F1F1F" stroke-width="1.28717"/>
<rect x="-0.643897" y="-0.643276" width="10.1719" height="10.1719" transform="matrix(-0.000482113 -1 -1 0.000482113 965.177 530.708)" fill="white" stroke="#1F1F1F" stroke-width="1.28717"/>
<rect x="-0.643897" y="-0.643276" width="10.1719" height="10.1719" transform="matrix(-0.000482113 -1 -1 0.000482113 965.177 421.172)" fill="white" stroke="#1F1F1F" stroke-width="1.28717"/>
<path d="M1358.46 54L1293 134.5L1417.73 146L1358.46 54Z" fill="#FF842B"/>
<path d="M1354.92 88.5L1333.69 117.692L1374.38 122.115L1354.92 88.5Z" fill="#FFB800"/>
<path d="M1327.52 120.218H1073.23C1061.17 120.218 1055.14 120.218 1051.95 124.129C1048.75 128.041 1049.95 133.95 1052.35 145.767L1112.97 444.333C1114.63 452.506 1115.46 456.592 1118.4 458.997C1121.34 461.402 1125.51 461.402 1133.85 461.402H1393.09C1405.33 461.402 1411.44 461.402 1414.64 457.425C1417.84 453.447 1416.53 447.472 1413.91 435.522L1348.34 136.956L1348.34 136.955C1346.57 128.933 1345.69 124.921 1342.77 122.57C1339.84 120.218 1335.74 120.218 1327.52 120.218Z" fill="white"/>
<path fill-rule="evenodd" clip-rule="evenodd" d="M1343.09 261.542L1101.94 261.542L1101.94 259.208L1343.09 259.208L1343.09 261.542Z" fill="#C5C5C5" stroke="#EAD9FF" stroke-width="2.33446"/>
<path fill-rule="evenodd" clip-rule="evenodd" d="M1350.5 216.598L1193.25 216.598L1193.25 211.525L1350.5 211.525L1350.5 216.598Z" fill="#EAD9FF" stroke="#EAD9FF" stroke-width="2.33446"/>
<path fill-rule="evenodd" clip-rule="evenodd" d="M1350.5 229.786L1193.25 229.786L1193.25 224.714L1350.5 224.714L1350.5 229.786Z" fill="#EAD9FF" stroke="#EAD9FF" stroke-width="2.33446"/>
<path fill-rule="evenodd" clip-rule="evenodd" d="M1271.37 242.975L1193.25 242.975L1193.25 237.903L1271.37 237.903L1271.37 242.975Z" fill="#EAD9FF" stroke="#EAD9FF" stroke-width="2.33446"/>
<path fill-rule="evenodd" clip-rule="evenodd" d="M1350.87 280.759L1109.72 280.759L1109.72 278.424L1350.87 278.424L1350.87 280.759Z" fill="#C5C5C5" stroke="#EAD9FF" stroke-width="2.33446"/>
<path fill-rule="evenodd" clip-rule="evenodd" d="M1356.97 302.031L1115.82 302.031L1115.82 299.696L1356.97 299.696L1356.97 302.031Z" fill="#C5C5C5" stroke="#EAD9FF" stroke-width="2.33446"/>
<path fill-rule="evenodd" clip-rule="evenodd" d="M1361.23 321.519L1120.09 321.519L1120.09 319.184L1361.23 319.184L1361.23 321.519Z" fill="#EBEBEB" stroke="#EAD9FF" stroke-width="2.33446"/>
<path d="M1139.21 391.436L1127.51 340.031L1364.9 338.475L1377.06 391.436H1139.21Z" fill="#EAD9FF" stroke="#EAD9FF" stroke-width="0.778153"/>
<path d="M1187.69 175.509L1181.08 146.46L1315.22 145.581L1322.1 175.509H1187.69Z" fill="#EAD9FF" stroke="#EAD9FF" stroke-width="0.43972"/>
<path d="M1236.59 196.621L1233.83 184.5L1289.81 184.133L1292.67 196.621H1236.59Z" fill="#EAD9FF" stroke="#EAD9FF" stroke-width="0.18348"/>
<circle cx="1118.93" cy="179.811" r="41.3317" fill="#CD2026"/>
<path d="M1333.35 105H1062.96C1050.48 105 1044.25 105 1040.92 109.044C1037.6 113.089 1038.81 119.208 1041.24 131.446L1105.87 457.745C1107.56 466.285 1108.41 470.554 1111.47 473.07C1114.54 475.586 1118.89 475.586 1127.59 475.586H1403.26C1415.91 475.586 1422.24 475.586 1425.56 471.475C1428.89 467.364 1427.56 461.177 1424.91 448.804L1355 122.504C1353.2 114.117 1352.3 109.923 1349.26 107.462C1346.21 105 1341.93 105 1333.35 105Z" stroke="url(#paint5_linear_1529_18064)" stroke-width="1.5087"/>
<path d="M1463.5 453.5L1468.23 357.45C1468.39 354.246 1470.7 351.559 1473.85 350.93L1477.09 350.282C1478.02 350.096 1478.98 350.101 1479.91 350.296L1482.1 350.758C1485.49 351.472 1487.85 354.56 1487.64 358.02L1482 453.5H1463.5Z" fill="#E2CBFF"/>
<path d="M1443.51 466.245L1421.6 372.607C1420.87 369.483 1422.36 366.263 1425.21 364.792L1428.14 363.276C1428.99 362.841 1429.91 362.582 1430.85 362.514L1433.09 362.354C1436.54 362.106 1439.66 364.426 1440.42 367.808L1461.29 461.149L1443.51 466.245Z" fill="#E2CBFF"/>
<path d="M1451.31 459.23L1452.97 363.078C1453.02 359.87 1455.25 357.111 1458.37 356.382L1461.59 355.63C1462.52 355.415 1463.47 355.389 1464.41 355.555L1466.61 355.946C1470.03 356.551 1472.48 359.563 1472.39 363.028L1469.8 458.639L1451.31 459.23Z" fill="#EAD9FF"/>
<path d="M1476.88 471.314L1494.43 392.918C1495.14 389.787 1497.87 387.534 1501.08 387.45L1502.8 387.405C1503.74 387.38 1504.69 387.547 1505.57 387.898L1506.25 388.167C1509.47 389.448 1511.26 392.893 1510.47 396.268L1492.27 473.973L1476.88 471.314Z" fill="#EAD9FF"/>
<path d="M1431.5 448.5H1499L1490 520.5H1439L1431.5 448.5Z" fill="#F5EEFF"/>
<path d="M1092 194.515L1103.61 182.683L1113.71 189.071L1100.35 202.864L1098.97 195.822L1092 194.515Z" fill="#EDAB00"/>
<path d="M1143.42 194.515L1131.81 182.683L1121.72 189.071L1135.08 202.864L1136.45 195.822L1143.42 194.515Z" fill="#EDAB00"/>
<path d="M1115.12 151.461C1116.54 150.089 1118.79 150.089 1120.21 151.461L1122.13 153.317C1122.94 154.101 1124.07 154.468 1125.19 154.31L1127.83 153.936C1129.78 153.66 1131.6 154.983 1131.95 156.927L1132.41 159.555C1132.6 160.667 1133.3 161.626 1134.3 162.155L1136.65 163.406C1138.4 164.331 1139.09 166.472 1138.23 168.245L1137.05 170.642C1136.56 171.656 1136.56 172.843 1137.05 173.857L1138.23 176.254C1139.09 178.027 1138.4 180.168 1136.65 181.093L1134.3 182.344C1133.3 182.873 1132.6 183.832 1132.41 184.944L1131.95 187.572C1131.6 189.516 1129.78 190.839 1127.83 190.563L1125.19 190.189C1124.07 190.031 1122.94 190.398 1122.13 191.182L1120.21 193.038C1118.79 194.41 1116.54 194.41 1115.12 193.038L1113.21 191.182C1112.4 190.398 1111.27 190.031 1110.15 190.189L1107.51 190.563C1105.55 190.839 1103.73 189.516 1103.39 187.572L1102.93 184.944C1102.74 183.832 1102.04 182.873 1101.04 182.344L1098.68 181.093C1096.94 180.168 1096.24 178.027 1097.11 176.254L1098.28 173.857C1098.78 172.843 1098.78 171.656 1098.28 170.642L1097.11 168.245C1096.24 166.472 1096.94 164.331 1098.68 163.406L1101.04 162.155C1102.04 161.626 1102.74 160.667 1102.93 159.555L1103.39 156.927C1103.73 154.983 1105.55 153.66 1107.51 153.936L1110.15 154.31C1111.27 154.468 1112.4 154.101 1113.21 153.317L1115.12 151.461Z" fill="#FFB800"/>
<circle cx="1117.84" cy="172.25" r="13.6391" fill="#FFE7A9"/>
<path d="M994.763 428.255H1054.03V475.521L1049.91 480.022L1045.03 485.274H994.763V428.255Z" fill="#FF842B"/>
<path d="M1054.03 475.146L1045.03 485.274V475.146H1054.03Z" fill="#FFE2C8"/>
<rect x="1011.27" y="424.504" width="27.0088" height="7.50245" fill="#FFB800"/>
<path d="M970.005 459.016H1029.27V506.281L1025.15 510.783L1020.27 516.034H970.005V459.016Z" fill="#007618"/>
<path d="M1029.27 505.906L1020.27 516.034V505.906H1029.27Z" fill="#43BE5C"/>
<rect x="986.51" y="455.264" width="27.0088" height="7.50245" fill="#FFB800"/>
<path fill-rule="evenodd" clip-rule="evenodd" d="M979.663 151.46C984.033 159.125 995.205 158.755 999.058 150.817L1000.01 148.857C1002.12 144.52 1006.81 142.066 1011.57 142.81L1013.72 143.147C1022.44 144.509 1029.12 135.544 1025.31 127.582L1024.37 125.616C1022.3 121.265 1023.3 116.068 1026.86 112.807L1028.46 111.334C1034.96 105.368 1032.11 94.5582 1023.52 92.5676L1021.4 92.0759C1016.7 90.9881 1013.26 86.9606 1012.93 82.1508L1012.78 79.9767C1012.17 71.1747 1001.94 66.6608 995.024 72.1401L993.315 73.4934C989.536 76.4876 984.245 76.6628 980.276 73.9253L978.482 72.688C971.219 67.6783 961.314 72.8589 961.286 81.6821L961.279 83.8614C961.264 88.6828 958.102 92.9289 953.487 94.3251L951.401 94.9562C942.956 97.5113 940.831 108.485 947.712 114.008L949.411 115.373C953.171 118.391 954.52 123.51 952.734 127.989L951.927 130.013C948.659 138.209 955.914 146.712 964.522 144.776L966.648 144.298C971.352 143.24 976.195 145.378 978.583 149.567L979.663 151.46ZM987.63 98.9241C979.514 99.1929 973.153 105.99 973.422 114.105C973.691 122.22 980.488 128.581 988.603 128.312C996.718 128.044 1003.08 121.247 1002.81 113.132C1002.54 105.016 995.745 98.6553 987.63 98.9241Z" fill="#8A49DD"/>
<path fill-rule="evenodd" clip-rule="evenodd" d="M1028.61 88.0483C1030.01 90.4998 1033.58 90.3815 1034.81 87.8428L1035.12 87.2158C1035.79 85.8286 1037.29 85.0438 1038.81 85.2819L1039.5 85.3895C1042.29 85.8252 1044.43 82.9578 1043.21 80.4113L1042.91 79.7824C1042.25 78.3909 1042.57 76.7286 1043.7 75.6858L1044.22 75.2145C1046.3 73.3062 1045.39 69.849 1042.64 69.2123L1041.96 69.055C1040.45 68.7071 1039.36 67.419 1039.25 65.8806L1039.2 65.1853C1039 62.37 1035.73 60.9263 1033.52 62.6788L1032.98 63.1117C1031.77 64.0693 1030.07 64.1254 1028.81 63.2498L1028.23 62.8541C1025.91 61.2518 1022.74 62.9087 1022.73 65.7307L1022.73 66.4278C1022.72 67.9698 1021.71 69.3279 1020.24 69.7744L1019.57 69.9763C1016.87 70.7935 1016.19 74.3034 1018.39 76.0699L1018.93 76.5062C1020.14 77.4715 1020.57 79.1089 1020 80.5413L1019.74 81.1888C1018.69 83.8101 1021.01 86.5299 1023.77 85.9107L1024.45 85.7578C1025.95 85.4194 1027.5 86.1032 1028.26 87.4428L1028.61 88.0483ZM1031.16 71.2453C1028.56 71.3313 1026.53 73.5051 1026.61 76.1007C1026.7 78.6963 1028.87 80.7308 1031.47 80.6448C1034.06 80.5589 1036.1 78.385 1036.01 75.7894C1035.93 73.1938 1033.75 71.1594 1031.16 71.2453Z" fill="#8A49DD"/>
<path d="M1117.39 439.72L1110.98 413.844H1145.78L1151.87 439.72H1117.39Z" stroke="#1F1F1F"/>
<rect x="1108.57" y="412.58" width="3.58345" height="3.58345" transform="rotate(-16.427 1108.57 412.58)" fill="#1F1F1F"/>
<rect x="1143" y="411.755" width="3.58345" height="3.58345" transform="rotate(-12.1664 1143 411.755)" fill="#1F1F1F"/>
<rect x="1115.16" y="437.759" width="3.58345" height="3.58345" transform="rotate(-9.63387 1115.16 437.759)" fill="#1F1F1F"/>
<rect x="1149" y="437.771" width="3.58345" height="3.58345" transform="rotate(-12.4168 1149 437.771)" fill="#1F1F1F"/>
<rect x="1114" y="418.763" width="3.13552" height="17.4693" transform="rotate(-14.0885 1114 418.763)" fill="#FFB800"/>
<defs>
<filter id="filter0_d_1529_18064" x="755.98" y="478.874" width="60.2082" height="64.8752" filterUnits="userSpaceOnUse" color-interpolation-filters="sRGB">
<feFlood flood-opacity="0" result="BackgroundImageFix"/>
<feColorMatrix in="SourceAlpha" type="matrix" values="0 0 0 0 0 0 0 0 0 0 0 0 0 0 0 0 0 0 127 0" result="hardAlpha"/>
<feOffset dy="4.49568"/>
<feGaussianBlur stdDeviation="2.24784"/>
<feComposite in2="hardAlpha" operator="out"/>
<feColorMatrix type="matrix" values="0 0 0 0 0 0 0 0 0 0 0 0 0 0 0 0 0 0 0.25 0"/>
<feBlend mode="normal" in2="BackgroundImageFix" result="effect1_dropShadow_1529_18064"/>
<feBlend mode="normal" in="SourceGraphic" in2="effect1_dropShadow_1529_18064" result="shape"/>
</filter>
<linearGradient id="paint0_linear_1529_18064" x1="1225.18" y1="112.773" x2="1225.18" y2="533.203" gradientUnits="userSpaceOnUse">
<stop stop-color="#FFDA19"/>
<stop offset="1" stop-color="#FFB119"/>
</linearGradient>
<linearGradient id="paint1_linear_1529_18064" x1="1225.18" y1="112.773" x2="1225.18" y2="533.203" gradientUnits="userSpaceOnUse">
<stop stop-color="#FF820E"/>
<stop offset="1" stop-color="#FF820E"/>
</linearGradient>
<linearGradient id="paint2_linear_1529_18064" x1="1225.18" y1="59" x2="1225.18" y2="587.43" gradientUnits="userSpaceOnUse">
<stop stop-color="#FFDA19"/>
<stop offset="1" stop-color="#FFB119"/>
</linearGradient>
<linearGradient id="paint3_linear_1529_18064" x1="1225.18" y1="59" x2="1225.18" y2="587.43" gradientUnits="userSpaceOnUse">
<stop stop-color="#FF820E"/>
<stop offset="1" stop-color="#FF820E"/>
</linearGradient>
<linearGradient id="paint4_linear_1529_18064" x1="784.917" y1="482.532" x2="790.518" y2="534.367" gradientUnits="userSpaceOnUse">
<stop stop-color="#FF820E"/>
<stop offset="1" stop-color="#FF820E"/>
</linearGradient>
<linearGradient id="paint5_linear_1529_18064" x1="1233.32" y1="105" x2="1233.32" y2="475.586" gradientUnits="userSpaceOnUse">
<stop stop-color="#FF820E"/>
<stop offset="1" stop-color="#FF820E"/>
</linearGradient>
</defs>
</svg>
