<svg width="813" height="463" viewBox="0 0 813 463" fill="none" xmlns="http://www.w3.org/2000/svg">
<g clip-path="url(#clip0_1388_14462)">
<rect width="810" height="462.857" fill="white"/>
<rect x="274.822" y="27.1201" width="460.145" height="182.612" rx="5.42411" fill="#F5F5F5"/>
<rect x="284.766" y="35.2559" width="440.257" height="166.339" fill="white"/>
<path fill-rule="evenodd" clip-rule="evenodd" d="M252.076 428.685C252.01 405.193 242.648 382.677 226.032 366.06C209.356 349.384 186.738 340.016 163.155 340.016C139.571 340.016 116.953 349.384 100.277 366.06C83.601 382.736 74.2324 405.354 74.2324 428.938L163.155 428.938H252.075C252.075 428.938 252.075 428.938 252.075 428.938L291.283 428.938H330.49C330.49 418.54 326.359 408.567 319.006 401.214C311.654 393.861 301.681 389.731 291.283 389.731C280.884 389.731 270.912 393.861 263.559 401.214C256.266 408.507 252.143 418.378 252.076 428.685Z" fill="#EEF9F0"/>
<path d="M139.854 428.323L559.219 428.323" stroke="#7D7D7D" stroke-width="0.938432"/>
<path d="M568.916 428.323H625.95" stroke="#7D7D7D" stroke-width="0.938432"/>
<rect opacity="0.2" x="33.4492" y="27.1201" width="53.4357" height="65.5792" fill="#FFB800"/>
<circle cx="60.1648" cy="33.9148" r="2.00271" fill="#CD2026"/>
<path d="M77.3789 49.5752L73.6084 54.1702L69.6409 49.7084L65.8704 54.1702L62.2969 50.0413L58.4701 54.3034L55.0654 50.1079L51.8014 54.2368L48.1153 49.9748" stroke="#FFB800" stroke-width="0.904018" stroke-miterlimit="10" stroke-linecap="round" stroke-linejoin="round"/>
<path d="M770.414 16.5368C770.847 16.4448 771.214 16.8616 771.068 17.2793L763.62 38.5595C763.477 38.9692 762.946 39.0728 762.659 38.747L748.053 22.1529C747.766 21.8271 747.936 21.313 748.361 21.2228L770.414 16.5368Z" stroke="#43BE5C" stroke-width="0.740005"/>
<path d="M41.8945 227.726L50.3127 238.543L59.1706 228.039L67.5888 238.543L75.5672 228.823L84.111 238.856L91.7125 228.98L98.9999 238.7L107.23 228.666" stroke="#A7A7A7" stroke-width="1.04715" stroke-miterlimit="10" stroke-linecap="round" stroke-linejoin="round"/>
<circle cx="715.319" cy="302.183" r="7.85366" stroke="#FF842B" stroke-width="1.04715"/>
<line y1="-0.405078" x2="25.3731" y2="-0.405078" transform="matrix(-1 0 0 1 659.426 427.946)" stroke="#1F1F1F" stroke-width="0.810157"/>
<line y1="-0.405078" x2="21.4968" y2="-0.405078" transform="matrix(4.37114e-08 -1 -1 -4.37114e-08 645.07 427.946)" stroke="#1F1F1F" stroke-width="0.810157"/>
<line y1="-0.405078" x2="10.2385" y2="-0.405078" transform="matrix(-0.707107 -0.707107 -0.707107 0.707107 645.07 416.32)" stroke="#1F1F1F" stroke-width="0.810157"/>
<line y1="-0.405078" x2="11.0862" y2="-0.405078" transform="matrix(-0.770096 0.637928 0.637928 0.770096 655.277 409.248)" stroke="#1F1F1F" stroke-width="0.810157"/>
<rect x="151.494" y="133.414" width="6.23614" height="6.23614" stroke="#1F1F1F" stroke-width="1.04715"/>
<path d="M13.5605 439.026V430.075L23.5646 433.76V422.177L33.5686 425.336" stroke="#1F1F1F" stroke-width="0.904018"/>
<rect width="21.8298" height="53.917" rx="10.9149" transform="matrix(-0.631608 -0.775288 -0.775288 0.631608 598.91 261.104)" fill="#D49F6E"/>
<circle cx="405.933" cy="186.028" r="15.3351" fill="#E1B48B"/>
<path fill-rule="evenodd" clip-rule="evenodd" d="M402.421 170.977C403.413 170.791 404.439 170.693 405.488 170.693C414.203 170.693 421.267 177.413 421.267 185.703C421.267 186.918 421.116 188.099 420.829 189.23C419.837 189.416 418.811 189.514 417.762 189.514C409.047 189.514 401.982 182.794 401.982 174.505C401.982 173.29 402.134 172.108 402.421 170.977Z" fill="#1F1F1F"/>
<circle cx="423.475" cy="170.577" r="8.94546" fill="#1F1F1F"/>
<path d="M452.635 387.011L439.623 296.859" stroke="black" stroke-width="0.697049" stroke-linecap="round"/>
<path d="M363.414 387.011L376.426 296.859" stroke="black" stroke-width="0.697049" stroke-linecap="round"/>
<path d="M445.999 314.628L441.404 244.691C441.34 243.714 440.528 242.954 439.549 242.954H377.445C376.47 242.954 375.661 243.707 375.591 244.679L370.527 314.616C370.449 315.693 371.302 316.609 372.381 316.609H444.144C445.219 316.609 446.069 315.701 445.999 314.628Z" fill="#FF842B"/>
<path d="M448.453 410.827C448.453 407.041 445.384 403.973 441.599 403.973H423.476C419.69 403.973 416.621 407.041 416.621 410.827C416.621 414.613 419.69 417.681 423.476 417.681H441.599C445.384 417.681 448.453 414.613 448.453 410.827Z" fill="#1F1F1F"/>
<path d="M366.203 410.827C366.203 407.041 369.272 403.973 373.057 403.973H391.645C395.431 403.973 398.5 407.041 398.5 410.827C398.5 414.613 395.431 417.681 391.645 417.681H373.057C369.272 417.681 366.203 414.613 366.203 410.827Z" fill="#1F1F1F"/>
<path d="M446.628 317.695C446.326 317.034 445.665 316.609 444.938 316.609H371.58C370.853 316.609 370.192 317.034 369.89 317.695L367.871 322.11C367.309 323.341 368.208 324.742 369.562 324.742H446.956C448.31 324.742 449.209 323.341 448.647 322.11L446.628 317.695Z" fill="#D56600"/>
<path d="M433.18 291.516L407.427 301.5L419.569 332.818C422.327 339.929 430.327 343.459 437.438 340.702C444.55 337.945 448.079 329.945 445.322 322.833L433.18 291.516Z" fill="#FFB800"/>
<path d="M433.352 230.292C433.352 215.984 421.753 204.385 407.445 204.385C393.137 204.385 381.538 215.984 381.538 230.292V290.354H433.352V230.292Z" fill="#CD2026"/>
<path d="M407.324 301.499L381.572 291.516L369.431 322.834C366.674 329.945 370.204 337.945 377.315 340.702C384.426 343.459 392.426 339.929 395.183 332.818L407.324 301.499Z" fill="#FFB800"/>
<path d="M433.352 291.283H381.538V304.643C381.538 312.279 387.727 318.468 395.362 318.468H419.527C427.162 318.468 433.352 312.279 433.352 304.643V291.283Z" fill="#FFB800"/>
<rect width="19.2802" height="47.2824" rx="9.6401" transform="matrix(-0.893963 -0.448142 -0.448142 0.893963 399.857 226.016)" fill="#E1B48B"/>
<path d="M398.908 220.752C401.397 215.788 399.39 209.746 394.426 207.258C389.461 204.769 383.42 206.776 380.931 211.74L367.06 239.41L385.037 248.422L398.908 220.752Z" fill="#A70B11"/>
<path d="M445.895 326.135C445.895 318.564 439.757 312.427 432.186 312.427C424.615 312.427 418.477 318.564 418.477 326.135V403.973H445.895V326.135Z" fill="#FFB800"/>
<path d="M396.406 330.667C396.406 323.031 390.217 316.842 382.581 316.842C374.946 316.842 368.757 323.031 368.757 330.667V403.973H396.406V330.667Z" fill="#FFB800"/>
<rect width="19.2802" height="51.4139" rx="9.6401" transform="matrix(0.0997257 0.995015 0.995015 -0.0997257 364.246 247.25)" fill="#E1B48B"/>
<rect x="394.301" y="235.214" width="19.2802" height="51.4139" rx="9.6401" transform="rotate(106.992 394.301 235.214)" fill="#E1B48B"/>
<rect x="410.668" y="215.689" width="19.2802" height="47.2824" rx="9.6401" transform="rotate(62.457 410.668 215.689)" fill="#E1B48B"/>
<path d="M419.63 206.819C424.842 203.642 431.642 205.29 434.82 210.502C437.998 215.713 436.349 222.514 431.138 225.692L405.563 241.286L394.055 222.414L419.63 206.819Z" fill="#A70B11"/>
<circle cx="608.833" cy="209.963" r="17.3587" fill="#E1B48B"/>
<path fill-rule="evenodd" clip-rule="evenodd" d="M601.836 194.151C603.703 193.362 605.745 192.884 607.896 192.789C617.096 192.383 624.953 199.11 625.942 208.003C624.075 208.793 622.033 209.27 619.881 209.365C610.682 209.771 602.825 203.044 601.836 194.151Z" fill="#1F1F1F"/>
<path d="M591.925 349.402L578.611 430.838" stroke="#1F1F1F" stroke-width="0.78903"/>
<path d="M633.1 349.402L646.414 430.838" stroke="#1F1F1F" stroke-width="0.78903"/>
<path d="M658.219 260.408H632.236L622.522 325.338H579.641V349.832H645.922C646.968 349.832 647.856 349.063 648.005 348.028L660.301 262.813C660.485 261.544 659.501 260.408 658.219 260.408Z" fill="#169F32"/>
<rect width="21.8298" height="40.0772" rx="10.9149" transform="matrix(0.00207442 -0.999998 -0.999998 -0.00207442 561.125 292.463)" fill="#D49F6E"/>
<path d="M615.887 257.023C620.995 250.372 619.745 240.839 613.094 235.731C606.443 230.622 596.91 231.873 591.801 238.524L572.839 263.212L596.925 281.711L615.887 257.023Z" fill="#DD3B41"/>
<ellipse cx="608.963" cy="269.877" rx="39.057" ry="39.7145" fill="#CD2026"/>
<rect width="21.8298" height="53.917" rx="10.9149" transform="matrix(-0.76082 -0.648963 -0.648963 0.76082 616.02 263.289)" fill="#E1B48B"/>
<path d="M623.171 261.424C628.613 255.044 627.853 245.459 621.472 240.016C615.092 234.574 605.507 235.334 600.064 241.715L579.863 265.399L602.969 285.108L623.171 261.424Z" fill="#A70B11"/>
<path d="M621.271 315.802V342.236H539.437C532.138 342.236 526.22 336.319 526.22 329.019C526.22 321.719 532.138 315.802 539.437 315.802H621.271Z" fill="#570DB4"/>
<path d="M618.958 343.783C628.037 343.783 635.396 336.424 635.396 327.345V310.907H579.244C570.165 310.907 562.806 318.267 562.806 327.345C562.806 336.424 570.165 343.783 579.244 343.783H618.958Z" fill="#7128CE"/>
<path d="M481.907 420.61C481.907 415.605 485.965 411.548 490.97 411.548H530.809V425.447C530.809 427.781 528.917 429.672 526.583 429.672H490.97C485.965 429.672 481.907 425.615 481.907 420.61Z" fill="#C5C5C5" stroke="#7D7D7D" stroke-width="0.341913" stroke-linecap="round"/>
<path d="M521.097 420.872C521.097 415.867 525.154 411.81 530.159 411.81H569.999V425.708C569.999 428.042 568.107 429.934 565.773 429.934H530.159C525.154 429.934 521.097 425.877 521.097 420.872Z" fill="#C5C5C5" stroke="#7D7D7D" stroke-width="0.341913" stroke-linecap="round"/>
<path d="M527.361 323.477C529.947 314.72 539.252 309.827 547.931 312.66C556.439 315.437 561.084 324.585 558.308 333.093L532.74 411.425L501.397 411.425L527.361 323.477Z" fill="#570DB4"/>
<path d="M592.185 332.515C594.404 323.712 588.907 314.736 580.104 312.517C571.425 310.33 562.435 315.448 560.074 324.081L535.974 412.212L572.096 412.212L592.185 332.515Z" fill="#7128CE"/>
<circle cx="19.0303" cy="19.0303" r="19.0303" transform="matrix(-1 0 0 1 209.668 195.557)" fill="#E1B48B"/>
<path d="M188.333 188.129C194.397 197.391 187.647 204.911 183.514 207.513C177.752 216.334 168.657 215.003 164.83 213.235C164.333 212.318 167.744 209.581 169.511 208.327C167.758 208.222 165.353 204.7 164.369 202.952C164.72 201.99 169.432 201.045 171.745 200.694C170.086 199.491 169.656 195.631 169.649 193.852C170.829 193.49 174.345 194.552 175.956 195.128C176.485 189.833 177.915 188.647 178.563 188.716C180 188.49 182.276 191.766 183.235 193.433C183.346 191.688 186.68 189.17 188.333 188.129Z" fill="#1F1F1F"/>
<path d="M216.072 349.519L230.668 438.797" stroke="#1F1F1F" stroke-width="0.865013"/>
<path d="M170.93 349.519L156.334 438.797" stroke="#1F1F1F" stroke-width="0.865013"/>
<path d="M143.4 251.954H171.885L182.534 323.137H229.544V349.989H156.88C155.734 349.989 154.761 349.147 154.597 348.012L141.117 254.59C140.916 253.2 141.995 251.954 143.4 251.954Z" fill="#169F32"/>
<rect width="18.7362" height="55.8378" rx="9.36811" transform="matrix(-0.675745 0.737136 0.729542 0.683936 204.391 256.252)" fill="#D49F6E"/>
<rect width="18.7362" height="53.6109" rx="9.36811" transform="matrix(0.234705 0.972067 0.974627 -0.223834 220.898 287.886)" fill="#D49F6E"/>
<path d="M197.961 244.75C192.353 239.492 183.596 239.824 178.401 245.49C173.207 251.156 173.542 260.012 179.15 265.269L207.476 291.824L226.287 271.305L197.961 244.75Z" fill="#EDAB00"/>
<path d="M181.807 297.834V327.166H246.337C254.436 327.166 261.003 320.6 261.003 312.5C261.003 304.4 254.436 297.834 246.337 297.834H181.807Z" fill="#1F1F1F"/>
<path d="M269.294 317.108C266.573 308.688 257.52 304.09 249.116 306.859C240.747 309.618 236.198 318.639 238.956 327.008L267.445 413.452L300.424 413.452L269.294 317.108Z" fill="#1F1F1F"/>
<path d="M330.625 417.878C330.625 412.169 325.997 407.541 320.288 407.541H274.774V423.507C274.774 426.107 276.882 428.215 279.482 428.215H320.288C325.997 428.215 330.625 423.587 330.625 417.878Z" fill="#C5C5C5" stroke="#7D7D7D" stroke-width="0.374839" stroke-linecap="round"/>
<path d="M159.482 306.162V323.895C159.482 333.688 167.422 341.628 177.215 341.628H222.484C232.278 341.628 240.217 333.688 240.217 323.895C240.217 314.101 232.278 306.162 222.484 306.162H159.482Z" fill="#414141"/>
<path d="M218.018 266.514C218.018 250.351 204.915 237.248 188.751 237.248C172.588 237.248 159.485 250.351 159.485 266.514V301.259H218.018V266.514Z" fill="#FFB800"/>
<path d="M194.653 245.815C188.598 241.084 179.884 242.18 175.19 248.264C170.495 254.348 171.599 263.116 177.654 267.847L208.263 291.765L225.263 269.733L194.653 245.815Z" fill="#EDAB00"/>
<path d="M247.858 411.81L283.035 411.81L240.954 316.161C237.351 307.973 227.725 304.334 219.599 308.076C211.68 311.724 208.128 321.046 211.624 329.033L247.858 411.81Z" fill="#414141"/>
<path d="M303.168 418.976C303.168 413.268 298.54 408.64 292.831 408.64H247.317V424.606C247.317 427.206 249.425 429.313 252.025 429.313H292.831C298.54 429.313 303.168 424.685 303.168 418.976Z" fill="#C5C5C5" stroke="#7D7D7D" stroke-width="0.374839" stroke-linecap="round"/>
<rect width="18.7303" height="55.853" rx="9.36515" transform="matrix(0.522371 0.852718 0.855896 -0.517147 202.398 279.668)" fill="#E1B48B"/>
<path d="M552.512 446.286L547.177 316.604H537.327L549.639 446.286H552.512Z" fill="#1F1F1F"/>
<path d="M224.199 306.232V296.905H573.03V306.177C573.03 308.942 571.379 311.396 568.751 312.255C482.26 340.521 273.853 324.837 228.49 312.155C225.853 311.418 224.199 308.97 224.199 306.232Z" fill="#8A4B12"/>
<ellipse cx="398.615" cy="296.084" rx="174.415" ry="21.3402" fill="#A6672E"/>
<path d="M247.594 446.286L252.872 316.927L262.999 318.142L250.466 446.286H247.594Z" fill="#1F1F1F"/>
<path d="M234.316 292.095V297.931H304.982L311.932 258.247L280.961 255.621L274.572 292.095H234.316Z" fill="#EBEBEB"/>
<ellipse cx="4.05535" cy="4.95948" rx="4.05535" ry="4.95948" transform="matrix(0.986945 0.161056 -0.158722 0.987323 290.045 270.794)" fill="white"/>
<path d="M560.531 293.22V299.056H489.866L482.915 259.372L513.887 256.746L520.275 293.22H560.531Z" fill="#616161"/>
<ellipse cx="4.05535" cy="4.95948" rx="4.05535" ry="4.95948" transform="matrix(-0.986945 0.161056 0.158722 0.987323 504.803 271.919)" fill="white"/>
<path d="M324.848 306.521V286.555H350.946V306.521H324.848Z" fill="#F5F5F5"/>
<path d="M324.848 294.573H350.946" stroke="#D7D7D7" stroke-width="0.314432"/>
<path fill-rule="evenodd" clip-rule="evenodd" d="M323.905 298.346L323.748 298.346L323.748 298.503L323.748 299.918H323.905V299.918L351.261 299.918H351.418V299.761V298.503L351.261 298.503V298.346L323.905 298.346ZM351.104 298.66L324.062 298.66V299.603L351.104 299.603V298.66Z" fill="#D7D7D7"/>
<path d="M324.848 302.905H350.946" stroke="#D7D7D7" stroke-width="0.314432"/>
<path fill-rule="evenodd" clip-rule="evenodd" d="M350.957 286.555L360.39 287.97V294.73H361.962V295.988H360.39V298.031H358.032V299.604H360.39V306.521H350.957V286.555Z" fill="#D7D7D7"/>
<rect width="13.1635" height="4.33991" transform="matrix(-1 0 0 1 476.869 282.618)" fill="#FFB800"/>
<rect width="13.1635" height="4.82212" transform="matrix(-1 0 0 1 480.383 286.958)" fill="#A26AE9"/>
<rect x="446.043" y="287.069" width="21.0586" height="4.59966" fill="white" stroke="#A26AE9" stroke-width="0.22246"/>
<rect x="0.11123" y="-0.11123" width="21.0586" height="4.11745" transform="matrix(1 0 0 -1 442.426 286.736)" fill="white" stroke="#FFB800" stroke-width="0.22246"/>
<rect x="0.11123" y="-0.11123" width="17.5483" height="2.34934" transform="matrix(1 0 0 -1 442.426 294.129)" fill="white" stroke="#FFB800" stroke-width="0.22246"/>
<rect x="476.869" y="294.352" width="16.6738" height="2.5718" transform="rotate(180 476.869 294.352)" fill="#FFB800"/>
<rect x="443.195" y="294.463" width="20.8392" height="5.88556" fill="white" stroke="#A26AE9" stroke-width="0.22246"/>
<rect width="13.1635" height="6.10802" transform="matrix(-1 0 0 1 477.309 294.352)" fill="#A26AE9"/>
<rect width="21.8298" height="54.7061" rx="10.9149" transform="matrix(0.0475517 -0.998869 -0.998869 -0.0475517 587.418 299.644)" fill="#E1B48B"/>
<path d="M368.18 254.071C368.18 252.752 369.248 251.684 370.567 251.684H424.273C425.591 251.684 426.66 252.752 426.66 254.071V285.399H368.18V254.071Z" fill="#D7D7D7"/>
<rect width="58.4799" height="4.17714" transform="matrix(1 0 0 -1 368.18 289.576)" fill="#C5C5C5"/>
<circle cx="397.424" cy="268.392" r="3.5804" fill="white"/>
<rect x="358.822" y="305.822" width="27.0472" height="10.631" rx="2.5462" transform="rotate(-18.7004 358.822 305.822)" fill="#A26AE9"/>
<rect x="359.859" y="305.04" width="27.0472" height="10.631" rx="2.5462" transform="rotate(-18.7004 359.859 305.04)" fill="#7128CE"/>
<rect width="18.7303" height="53.6255" rx="9.36515" transform="matrix(0.52264 0.852553 0.855733 -0.517418 225.508 265.76)" fill="#E1B48B"/>
<path d="M436.148 282.981C436.148 282.29 435.694 281.681 435.031 281.485L433.797 281.119C430.895 280.259 427.806 280.262 424.906 281.127L423.712 281.483C423.051 281.68 422.598 282.288 422.598 282.978V310.951C422.598 311.214 422.763 311.449 423.01 311.538L424.038 311.91C427.394 313.122 431.065 313.147 434.437 311.981L435.728 311.535C435.98 311.448 436.148 311.211 436.148 310.945V282.981Z" fill="#7128CE"/>
<path fill-rule="evenodd" clip-rule="evenodd" d="M436.148 306.716V310.945C436.148 311.211 435.98 311.448 435.728 311.535L434.437 311.981C431.065 313.147 427.394 313.122 424.038 311.91L423.01 311.538C422.763 311.449 422.598 311.214 422.598 310.951V306.722C422.598 306.985 422.763 307.22 423.01 307.309L424.038 307.681C427.394 308.893 431.065 308.918 434.437 307.752L435.728 307.306C435.98 307.219 436.148 306.982 436.148 306.716Z" fill="#8A49DD"/>
<path fill-rule="evenodd" clip-rule="evenodd" d="M436.148 282.165V293.139C436.148 293.405 435.98 293.642 435.728 293.729L434.437 294.175C431.065 295.341 427.394 295.316 424.038 294.104L423.01 293.732C422.763 293.643 422.598 293.408 422.598 293.145V282.163C422.598 281.473 423.051 280.865 423.712 280.668L424.906 280.312C427.806 279.447 430.895 279.444 433.797 280.304L435.031 280.669C435.694 280.866 436.148 281.474 436.148 282.165Z" fill="#8A49DD"/>
<path d="M422.754 282.056C422.754 282.299 422.902 282.555 423.227 282.811C423.55 283.065 424.028 283.301 424.632 283.502C425.838 283.903 427.514 284.154 429.373 284.154C431.232 284.154 432.908 283.903 434.115 283.502C434.719 283.301 435.196 283.065 435.52 282.811C435.845 282.555 435.992 282.299 435.992 282.056C435.992 281.813 435.845 281.557 435.52 281.301C435.196 281.047 434.719 280.811 434.115 280.61C432.908 280.209 431.232 279.958 429.373 279.958C427.514 279.958 425.838 280.209 424.632 280.61C424.028 280.811 423.55 281.047 423.227 281.301C422.902 281.557 422.754 281.813 422.754 282.056Z" stroke="#570DB4" stroke-width="0.31209"/>
<path d="M434.407 278.138L435.418 274.985" stroke="#FFB800" stroke-width="0.31209"/>
<path d="M424.343 278.137L423.332 274.984" stroke="#FFB800" stroke-width="0.31209"/>
<path d="M429.369 276.062L429.369 272.773" stroke="#FFB800" stroke-width="0.31209"/>
<path fill-rule="evenodd" clip-rule="evenodd" d="M256.119 153.227C263.446 153.227 269.385 159.166 269.385 166.493C269.385 173.82 263.446 179.759 256.119 179.759H231.147C231.136 179.759 231.124 179.759 231.113 179.759C230.401 186.475 220.806 189.688 214.756 190.125C217.234 187.655 217.853 181.651 217.853 178.957V165.883H217.895C218.214 158.839 224.025 153.227 231.147 153.227H256.119Z" fill="#E2CBFF"/>
<circle cx="4.21286" cy="4.21286" r="4.21286" transform="matrix(-1 0 0 1 759.031 338.516)" fill="#8A49DD"/>
<path fill-rule="evenodd" clip-rule="evenodd" d="M743.78 354.824H759.083V370.502C769.936 373.784 777.838 383.862 777.838 395.786C777.838 410.373 766.013 422.197 751.427 422.197C736.841 422.197 725.017 410.373 725.017 395.786C725.017 383.859 732.923 373.779 743.78 370.5V354.824Z" fill="#EBEBEB"/>
<path d="M751.332 355.005L745.553 328.941" stroke="#8A49DD" stroke-width="0.554223"/>
<path d="M751.296 354.869L754.07 346.691" stroke="#8A49DD" stroke-width="0.554223"/>
<circle cx="6.48115" cy="6.48115" r="6.48115" transform="matrix(-1 0 0 1 750.668 316.406)" fill="#8A49DD"/>
<circle cx="1.70334" cy="1.70334" r="1.70334" transform="matrix(-1 0 0 1 756.619 341.229)" fill="white"/>
<circle cx="2.62045" cy="2.62045" r="2.62045" transform="matrix(-1 0 0 1 746.738 320.309)" fill="white"/>
<rect x="632.812" y="57.8574" width="7.23214" height="43.3929" fill="#EBEBEB"/>
<rect x="644.564" y="70.5137" width="7.23214" height="30.7366" fill="#EBEBEB"/>
<rect x="656.316" y="86.7852" width="7.23214" height="14.4643" fill="#EBEBEB"/>
<rect x="668.068" y="76.8418" width="7.23214" height="24.4085" fill="#EBEBEB"/>
<rect x="679.822" y="65.0898" width="7.23214" height="36.1607" fill="#EBEBEB"/>
<rect x="691.574" y="57.8574" width="7.23214" height="43.3929" fill="#EBEBEB"/>
<path d="M474.47 92.9026L479.518 86.246L483.466 89.3346L482.774 90.2462L487.12 91.9812L491.307 100.56L482.102 98.8738L479.225 94.9261L478.418 95.9912L474.47 92.9026Z" fill="#EAD9FF"/>
<path d="M482.774 90.2462L483.466 89.3346L479.518 86.246L474.47 92.9026L478.418 95.9912L479.225 94.9261M482.774 90.2462L487.12 91.9812L491.307 100.56M482.774 90.2462L479.225 94.9261M491.307 100.56L482.102 98.8738L479.225 94.9261M491.307 100.56L485.78 96.236" stroke="#1F1F1F" stroke-width="0.35276"/>
<path d="M259.958 254.961L280.247 235.554C280.965 234.868 280.807 233.682 279.936 233.206L272.594 229.202C272.042 228.901 271.359 228.985 270.896 229.412L249.36 249.311L259.958 254.961Z" fill="#414141"/>
<ellipse cx="265.983" cy="241.332" rx="2.83555" ry="1.89037" transform="rotate(-39.3643 265.983 241.332)" fill="white"/>
<g clip-path="url(#clip1_1388_14462)">
<rect width="810" height="462.857" transform="translate(0 -10)" fill="white"/>
<rect x="418" y="18" width="328.145" height="130.227" rx="3.86812" fill="#F5F5F5"/>
<rect x="425.09" y="23.8018" width="313.962" height="118.622" fill="white"/>
<rect x="673.295" y="39.9199" width="5.15749" height="30.9449" fill="#EBEBEB"/>
<rect x="681.676" y="48.9453" width="5.15749" height="21.9193" fill="#EBEBEB"/>
<rect x="690.057" y="60.5498" width="5.15749" height="10.315" fill="#EBEBEB"/>
<rect x="698.438" y="53.458" width="5.15749" height="17.4065" fill="#EBEBEB"/>
<rect x="706.818" y="45.0771" width="5.15749" height="25.7874" fill="#EBEBEB"/>
<rect x="715.201" y="39.9199" width="5.15749" height="30.9449" fill="#EBEBEB"/>
<path d="M139.854 418.323L559.219 418.323" stroke="#7D7D7D" stroke-width="0.938432"/>
<path d="M568.916 418.323H625.95" stroke="#7D7D7D" stroke-width="0.938432"/>
<rect opacity="0.2" x="33.4492" y="17.1201" width="53.4357" height="65.5792" fill="#FFB800"/>
<circle cx="60.1648" cy="23.9148" r="2.00271" fill="#CD2026"/>
<path d="M77.3789 39.5752L73.6084 44.1702L69.6409 39.7084L65.8704 44.1702L62.2969 40.0413L58.4701 44.3034L55.0654 40.1079L51.8014 44.2368L48.1153 39.9748" stroke="#FFB800" stroke-width="0.904018" stroke-miterlimit="10" stroke-linecap="round" stroke-linejoin="round"/>
<path d="M770.414 6.53677C770.847 6.44479 771.214 6.86164 771.068 7.27933L763.62 28.5595C763.477 28.9692 762.946 29.0728 762.659 28.747L748.053 12.1529C747.766 11.8271 747.936 11.313 748.361 11.2228L770.414 6.53677Z" stroke="#43BE5C" stroke-width="0.740005"/>
<path d="M41.8945 217.726L50.3127 228.543L59.1706 218.039L67.5888 228.543L75.5672 218.823L84.111 228.856L91.7125 218.98L98.9999 228.7L107.23 218.666" stroke="#A7A7A7" stroke-width="1.04715" stroke-miterlimit="10" stroke-linecap="round" stroke-linejoin="round"/>
<circle cx="715.319" cy="292.183" r="7.85366" stroke="#FF842B" stroke-width="1.04715"/>
<line y1="-0.405078" x2="25.3731" y2="-0.405078" transform="matrix(-1 0 0 1 659.426 417.946)" stroke="#1F1F1F" stroke-width="0.810157"/>
<line y1="-0.405078" x2="21.4968" y2="-0.405078" transform="matrix(4.37114e-08 -1 -1 -4.37114e-08 645.07 417.946)" stroke="#1F1F1F" stroke-width="0.810157"/>
<line y1="-0.405078" x2="10.2385" y2="-0.405078" transform="matrix(-0.707107 -0.707107 -0.707107 0.707107 645.07 406.32)" stroke="#1F1F1F" stroke-width="0.810157"/>
<line y1="-0.405078" x2="11.0862" y2="-0.405078" transform="matrix(-0.770096 0.637928 0.637928 0.770096 655.277 399.248)" stroke="#1F1F1F" stroke-width="0.810157"/>
<path d="M13.5605 429.026V420.075L23.5646 423.76V412.177L33.5686 415.336" stroke="#1F1F1F" stroke-width="0.904018"/>
<circle cx="4.21286" cy="4.21286" r="4.21286" transform="matrix(-1 0 0 1 759.031 328.516)" fill="#8A49DD"/>
<path fill-rule="evenodd" clip-rule="evenodd" d="M743.78 344.824H759.083V360.502C769.936 363.784 777.838 373.862 777.838 385.786C777.838 400.373 766.013 412.197 751.427 412.197C736.841 412.197 725.017 400.373 725.017 385.786C725.017 373.859 732.923 363.779 743.78 360.5V344.824Z" fill="#EBEBEB"/>
<path d="M751.332 345.005L745.553 318.941" stroke="#8A49DD" stroke-width="0.554223"/>
<path d="M751.296 344.869L754.07 336.691" stroke="#8A49DD" stroke-width="0.554223"/>
<circle cx="6.48115" cy="6.48115" r="6.48115" transform="matrix(-1 0 0 1 750.668 306.406)" fill="#8A49DD"/>
<circle cx="1.70334" cy="1.70334" r="1.70334" transform="matrix(-1 0 0 1 756.619 331.229)" fill="white"/>
<circle cx="2.62045" cy="2.62045" r="2.62045" transform="matrix(-1 0 0 1 746.738 310.309)" fill="white"/>
<rect x="628.943" y="152" width="7.38548" height="7.38548" fill="#FFB800"/>
<rect x="327.441" y="236.257" width="88.4892" height="8.13693" fill="#616161"/>
<rect x="354.902" y="268.805" width="12.2054" height="134.259" fill="#C5C5C5"/>
<rect x="327.441" y="403.064" width="68.1468" height="13.2225" fill="#7D7D7D"/>
<rect x="123" y="415.27" width="447.531" height="1.01712" fill="#1F1F1F"/>
<rect x="281.672" y="244.218" width="159.481" height="11.0198" fill="#A6672E"/>
<rect x="327.441" y="255.238" width="68.8736" height="11.0198" fill="#A6672E"/>
<circle cx="507.228" cy="122.617" r="22.7437" fill="#E1B48B"/>
<path fill-rule="evenodd" clip-rule="evenodd" d="M486.734 100.732C485.64 103.306 484.572 109.033 489.051 111.35C492.114 112.934 494.715 111.34 497.549 109.603C499.895 108.165 502.4 106.629 505.46 106.717C512.217 106.91 514.534 110.771 515.113 117.721C515.256 119.438 516.416 121.237 518.009 122.926V122.74V117.527C519.34 117.527 520.617 118.076 521.558 119.054C522.499 120.032 523.028 121.357 523.028 122.74C523.028 124.026 522.57 125.263 521.749 126.216C524.696 128.444 527.706 130.094 528.627 130.462C531.285 123.816 530.883 118.457 530.523 113.647C530.465 112.868 530.407 112.103 530.364 111.35C531.329 109.098 532.333 104.091 528.627 102.083C529.721 98.4796 529.939 91.2337 522.063 91.0792C520.969 87.4756 516.85 81.6196 509.128 87.0251C506.104 84.7085 499.244 82.276 496.001 91.0792C492.14 90.7575 484.881 92.2375 486.734 100.732Z" fill="#1F1F1F"/>
<path d="M484.991 306.198L467.547 412.897" stroke="#1F1F1F" stroke-width="1.0338"/>
<path d="M538.945 306.198L556.389 412.897" stroke="#1F1F1F" stroke-width="1.0338"/>
<path d="M571.846 189.596H537.802L525.075 274.668H468.892V306.76H555.735C557.105 306.76 558.268 305.753 558.464 304.397L574.575 192.746C574.815 191.084 573.525 189.596 571.846 189.596Z" fill="#FF842B"/>
<rect width="28.6019" height="71.677" rx="14.3009" transform="matrix(0.0480762 -0.998844 -0.998844 -0.0480762 474.064 239.53)" fill="#D49F6E"/>
<rect width="28.6019" height="70.6432" rx="14.3009" transform="matrix(-0.793068 -0.609134 -0.609134 0.793068 507.145 188.082)" fill="#D49F6E"/>
<path d="M516.389 185.16C523.082 176.445 521.443 163.955 512.729 157.262C504.015 150.568 491.524 152.207 484.831 160.921L459.987 193.268L491.544 217.506L516.389 185.16Z" fill="#FFB800"/>
<path fill-rule="evenodd" clip-rule="evenodd" d="M398.638 227.612L410.844 200.149L414.912 202.184L398.13 238.8L394.061 237.274L398.638 227.612ZM394.061 237.274V242.36L398.129 238.8L394.061 237.274Z" fill="#1F1F1F"/>
<ellipse cx="507.316" cy="202.002" rx="51.1732" ry="52.0347" fill="#FFB800"/>
<rect width="28.6019" height="71.677" rx="14.3009" transform="matrix(0.0475517 -0.998869 -0.998869 -0.0475517 482.693 241.905)" fill="#E1B48B"/>
<rect width="28.6019" height="70.6432" rx="14.3009" transform="matrix(-0.76082 -0.648963 -0.648963 0.76082 516.553 193.371)" fill="#E1B48B"/>
<path d="M525.934 190.927C533.065 182.567 532.069 170.009 523.709 162.878C515.348 155.747 502.791 156.744 495.66 165.104L469.191 196.135L499.465 221.958L525.934 190.927Z" fill="#EDAB00"/>
<path d="M494.736 255.76V298.835H421.164C409.269 298.835 399.626 289.192 399.626 277.297C399.626 265.402 409.269 255.76 421.164 255.76H494.736Z" fill="#1F1F1F"/>
<path d="M520.41 298.834C532.305 298.834 541.947 289.191 541.947 277.296V255.759H468.375C456.48 255.759 446.837 265.402 446.837 277.296C446.837 289.191 456.48 298.834 468.375 298.834H520.41Z" fill="#414141"/>
<path d="M340.845 399.494C340.845 392.936 346.161 387.62 352.719 387.62H404.917V405.831C404.917 408.889 402.439 411.368 399.381 411.368H352.719C346.161 411.368 340.845 406.052 340.845 399.494Z" fill="#C5C5C5" stroke="#7D7D7D" stroke-width="0.447981" stroke-linecap="round"/>
<path d="M392.191 399.839C392.191 393.281 397.507 387.965 404.064 387.965H456.263V406.176C456.263 409.233 453.784 411.712 450.726 411.712H404.064C397.507 411.712 392.191 406.396 392.191 399.839Z" fill="#C5C5C5" stroke="#7D7D7D" stroke-width="0.447981" stroke-linecap="round"/>
<path d="M400.393 272.229C403.78 260.756 415.972 254.345 427.344 258.057C438.491 261.695 444.578 273.681 440.939 284.828L407.441 387.46L366.373 387.46L400.393 272.229Z" fill="#1F1F1F"/>
<path d="M485.337 284.071C488.245 272.537 481.042 260.777 469.508 257.87C458.137 255.003 446.358 261.71 443.264 273.021L411.688 388.492L459.016 388.492L485.337 284.071Z" fill="#414141"/>
<path d="M351.19 152.062L352.699 150.553L354.208 149.044L365.146 159.983L362.129 163.001L351.19 152.062Z" fill="#43BE5C"/>
<path d="M350.436 148.29L352.699 150.553M352.699 150.553L351.19 152.062L362.129 163.001L365.146 159.983L354.208 149.044L352.699 150.553Z" stroke="#1F1F1F" stroke-width="0.464789"/>
<circle cx="343.178" cy="140.636" r="10.4031" fill="#FAFAFA" stroke="black" stroke-width="0.464789"/>
<path d="M337.286 87.9999L317.988 58.8648L341.448 46L360.745 74.5675L337.286 87.9999Z" fill="#EBEBEB"/>
<path d="M320.258 62.2697L316.663 64.3507L316.61 64.268C315.485 62.5305 315.966 60.2122 317.687 59.0642L317.987 58.8643L320.258 62.2697Z" fill="#A7A7A7"/>
<path d="M338.45 82.4732L362.635 68.3242L363.481 69.5606C364.352 70.8331 363.956 72.5773 362.621 73.3491L337.284 87.9998C335.965 86.1744 336.506 83.6103 338.45 82.4732Z" fill="#C5C5C5"/>
<path d="M311.299 183.149H342.463" stroke="#1F1F1F" stroke-width="0.58202"/>
<rect x="319.895" y="217" width="33.8507" height="12.8955" rx="6.44775" transform="rotate(-90 319.895 217)" fill="#EBEBEB"/>
<circle cx="326.342" cy="189.597" r="6.44775" fill="#FF842B"/>
<rect x="324.484" y="181.291" width="3.71648" height="3.71648" fill="white" stroke="#1F1F1F" stroke-width="0.58202"/>
<rect x="307" y="181" width="4.2985" height="4.2985" fill="#FFB800"/>
<rect x="342.463" y="181" width="4.2985" height="4.2985" fill="#FFB800"/>
<path d="M385.269 123.931L375.446 118.358L378.878 112.515L380.223 113.279L381.77 107.146L392.516 99.9998L391.904 112.635L387.129 117.197L388.701 118.088L385.269 123.931Z" fill="#EBEBEB"/>
<path d="M380.223 113.279L378.878 112.515L375.446 118.358L385.269 123.931L388.701 118.088L387.129 117.197M380.223 113.279L381.77 107.146L392.516 99.9998M380.223 113.279L387.129 117.197M392.516 99.9998L391.904 112.635L387.129 117.197M392.516 99.9998L387.711 108.179" stroke="#1F1F1F" stroke-width="0.413425"/>
<circle cx="311.742" cy="154.356" r="4.46344" stroke="#FF842B" stroke-width="0.557931"/>
<circle cx="350.519" cy="113.348" r="3.06862" stroke="#570DB4" stroke-width="0.557931"/>
<path d="M321.852 136.223L317.043 126.738H327.086L321.852 136.223Z" stroke="#FFB800" stroke-width="0.557931"/>
<path d="M314.809 97.4848L310 88H320.043L314.809 97.4848Z" stroke="#FFB800" stroke-width="0.557931"/>
<circle cx="13.8548" cy="13.8548" r="13.8548" transform="matrix(-0.999998 0.00215773 0.00215773 0.999998 468.709 33)" fill="#FFB800"/>
<path d="M461.904 49.8174V49.8174C461.91 52.3267 459.88 54.3653 457.371 54.3707L456.407 54.3727C453.898 54.3782 451.859 52.3484 451.854 49.8391V49.8391" stroke="#1F1F1F" stroke-width="0.396681"/>
<circle cx="513.856" cy="46.8855" r="11.3411" transform="rotate(9.97129 513.856 46.8855)" fill="#CD2026"/>
<path d="M514.979 53.8184V53.8184C515.334 51.7953 513.983 49.867 511.96 49.5114L511.183 49.3748C509.16 49.0191 507.231 50.3708 506.876 52.3938V52.3938" stroke="#1F1F1F" stroke-width="0.396681"/>
<circle cx="570.469" cy="46.8857" r="9.95494" transform="rotate(9.97129 570.469 46.8857)" fill="#FF842B"/>
<path d="M568.49 52.1081L575.056 50.3174" stroke="#1F1F1F" stroke-width="0.396681"/>
<path d="M565.307 45.5427L568.092 44.5479" stroke="#1F1F1F" stroke-width="0.396681"/>
<path d="M571.676 43.5525L574.461 42.5576" stroke="#1F1F1F" stroke-width="0.396681"/>
<rect x="42" y="266" width="113.98" height="77.6013" rx="1.44718" fill="#1F1F1F"/>
<rect x="43.6094" y="267.726" width="110.76" height="74.1489" fill="#F5F5F5"/>
<rect x="48.7734" y="275.393" width="30.4471" height="17.9613" fill="#EBEBEB"/>
<rect x="82.1699" y="275.393" width="30.4471" height="17.9613" fill="#EBEBEB"/>
<rect x="48.7734" y="296.302" width="64.2573" height="37.9065" fill="#EBEBEB"/>
<rect x="116.068" y="275.393" width="32.4" height="25.1257" fill="#EBEBEB"/>
<rect x="116.068" y="303.489" width="32.4" height="30.7187" fill="#EBEBEB"/>
<path d="M120.367 295.882L124.618 291.631L128.869 295.882L133.291 291.631L137.371 295.882L144.178 287.292" stroke="#1F1F1F" stroke-width="0.361795"/>
<circle cx="124.561" cy="291.617" r="0.785311" fill="#CD2026"/>
<circle cx="128.906" cy="295.882" r="0.785311" fill="#CD2026"/>
<circle cx="133.432" cy="291.617" r="0.785311" fill="#CD2026"/>
<circle cx="137.406" cy="295.517" r="0.785311" fill="#CD2026"/>
<circle cx="144.178" cy="287.292" r="0.785311" fill="#CD2026"/>
<circle cx="120.367" cy="295.882" r="0.785311" fill="#CD2026"/>
<circle cx="80.9059" cy="315.255" r="13.0993" fill="#169F32"/>
<path d="M94.0052 315.255C94.0052 318.47 92.8229 321.572 90.6834 323.972C88.5439 326.372 85.5966 327.901 82.4026 328.268C79.2087 328.635 75.9912 327.815 73.3628 325.964C70.7344 324.113 68.8785 321.359 68.1487 318.228C67.4188 315.097 67.8659 311.807 69.4047 308.984C70.9436 306.162 73.4668 304.003 76.4939 302.921C79.5211 301.838 82.8407 301.906 85.8208 303.112C88.8009 304.319 91.2333 306.579 92.6549 309.462L80.9059 315.255H94.0052Z" fill="#FFB800"/>
<path d="M94.0052 315.255C94.0052 317.845 93.2369 320.378 91.7976 322.532C90.3582 324.686 88.3124 326.365 85.9188 327.357C83.5252 328.348 80.8914 328.608 78.3504 328.102C75.8094 327.597 73.4753 326.349 71.6433 324.517C69.8114 322.685 68.5638 320.351 68.0583 317.81C67.5529 315.269 67.8123 312.635 68.8038 310.242C69.7952 307.848 71.4742 305.802 73.6284 304.363C75.7825 302.924 78.3151 302.155 80.9059 302.155V315.255H94.0052Z" fill="#7128CE"/>
<rect x="123.434" y="310.01" width="17.6791" height="17.6791" rx="1.44718" fill="#C5C5C5"/>
<path fill-rule="evenodd" clip-rule="evenodd" d="M133.414 322.509L130.536 318.45L127.182 323.179H133.889L133.883 323.17H137.37L135.158 320.051L133.414 322.509Z" fill="white"/>
<rect x="56.6387" y="282.895" width="0.736959" height="2.9582" rx="0.36848" fill="#FF842B"/>
<rect x="58.6348" y="281.593" width="0.736959" height="5.56097" rx="0.36848" fill="#FF842B"/>
<rect x="60.6348" y="280.575" width="0.736959" height="7.59567" rx="0.36848" fill="#FF842B"/>
<rect x="62.6348" y="279.541" width="0.736959" height="9.66534" rx="0.36848" fill="#FF842B"/>
<rect x="64.6328" y="281.593" width="0.736959" height="5.56093" rx="0.36848" fill="#FF842B"/>
<rect x="66.6289" y="282.895" width="0.736959" height="2.95818" rx="0.36848" fill="#FF842B"/>
<rect x="68.627" y="280.575" width="0.736959" height="7.59567" rx="0.36848" fill="#FF842B"/>
<rect x="70.625" y="282.344" width="0.736959" height="4.05937" rx="0.36848" fill="#FF842B"/>
<path d="M89.4414 280.178V288.568H105.346" stroke="#1F1F1F" stroke-width="0.361795"/>
<rect x="91.6621" y="282.255" width="2.26322" height="6.12443" fill="#CD2026"/>
<rect x="94.502" y="284.163" width="2.26322" height="4.21609" fill="#CD2026"/>
<rect x="97.5098" y="281.012" width="2.26322" height="7.36705" fill="#CD2026"/>
<rect x="100.35" y="286.87" width="2.26322" height="1.50891" fill="#CD2026"/>
<path d="M156.271 267.36C156.68 267.36 156.999 267.766 156.999 268.285C156.999 268.804 156.68 269.21 156.271 269.21C155.863 269.21 155.543 268.804 155.543 268.285C155.543 267.766 155.88 267.36 156.271 267.36Z" fill="#FF842B"/>
<path d="M150.445 267.36C150.853 267.36 151.173 267.766 151.173 268.285C151.173 268.804 150.853 269.21 150.445 269.21C150.036 269.21 149.717 268.804 149.717 268.285C149.717 267.766 150.036 267.36 150.445 267.36Z" fill="#FF842B"/>
<path d="M144.621 267.361C145.029 267.361 145.349 267.767 145.349 268.286C145.349 268.805 145.029 269.211 144.621 269.211C144.212 269.211 143.893 268.805 143.893 268.286C143.893 267.767 144.212 267.361 144.621 267.361Z" fill="#FF842B"/>
<path d="M138.797 267.36C139.205 267.36 139.525 267.766 139.525 268.285C139.525 268.804 139.205 269.21 138.797 269.21C138.388 269.21 138.068 268.804 138.068 268.285C138.068 267.766 138.406 267.36 138.797 267.36Z" fill="#FF842B"/>
<path d="M132.968 267.361C133.377 267.361 133.697 267.767 133.697 268.286C133.697 268.805 133.377 269.211 132.968 269.211C132.56 269.211 132.24 268.805 132.24 268.286C132.24 267.767 132.56 267.361 132.968 267.361Z" fill="#FF842B"/>
<path d="M127.144 267.36C127.553 267.36 127.872 267.766 127.872 268.285C127.872 268.804 127.553 269.21 127.144 269.21C126.736 269.21 126.416 268.804 126.416 268.285C126.416 267.766 126.736 267.36 127.144 267.36Z" fill="#FF842B"/>
<path d="M121.318 267.36C121.726 267.36 122.046 267.766 122.046 268.285C122.046 268.804 121.726 269.21 121.318 269.21C120.91 269.21 120.59 268.804 120.59 268.285C120.59 267.766 120.927 267.36 121.318 267.36Z" fill="#FF842B"/>
<path d="M115.494 267.36C115.902 267.36 116.222 267.766 116.222 268.285C116.222 268.804 115.902 269.21 115.494 269.21C115.085 269.21 114.766 268.804 114.766 268.285C114.766 267.766 115.085 267.36 115.494 267.36Z" fill="#FF842B"/>
<path d="M306.507 39.7537C306.507 49.5588 298.559 57.5075 288.754 57.5075C278.949 57.5075 271 49.5588 271 39.7537C271 29.9486 278.949 22 288.754 22C298.559 22 306.507 29.9486 306.507 39.7537ZM278.85 39.7537C278.85 45.2236 283.284 49.6578 288.754 49.6578C294.224 49.6578 298.658 45.2236 298.658 39.7537C298.658 34.2839 294.224 29.8497 288.754 29.8497C283.284 29.8497 278.85 34.2839 278.85 39.7537Z" fill="#DD3B41"/>
<path d="M306.507 39.7537C306.507 35.5786 305.036 31.537 302.352 28.3391C299.667 25.1413 295.942 22.9918 291.83 22.2685L290.47 29.9995C292.764 30.403 294.842 31.6021 296.339 33.386C297.837 35.1699 298.658 37.4246 298.658 39.7537H306.507Z" fill="#43BE5C"/>
<path d="M291.831 22.2687C287.719 21.545 283.484 22.2937 279.869 24.3831C276.254 26.4726 273.492 29.7692 272.066 33.6936L279.445 36.373C280.24 34.1838 281.781 32.3448 283.797 31.1791C285.814 30.0135 288.177 29.5959 290.47 29.9996L291.831 22.2687Z" fill="#8A49DD"/>
<path d="M272.16 33.4416C270.676 37.3439 270.614 41.6446 271.986 45.5879C273.358 49.5312 276.076 52.8648 279.662 55.0029L283.682 48.2606C281.681 47.0678 280.165 45.2082 279.4 43.0084C278.634 40.8086 278.669 38.4094 279.497 36.2324L272.16 33.4416Z" fill="#FF842B"/>
<path d="M279.658 55.0005C282.289 56.5702 285.282 57.4323 288.345 57.5028C291.408 57.5732 294.438 56.8498 297.138 55.4027L293.431 48.4836C291.925 49.2909 290.235 49.6945 288.526 49.6551C286.817 49.6158 285.148 49.1349 283.68 48.2592L279.658 55.0005Z" fill="#FFB800"/>
</g>
</g>
<defs>
<clipPath id="clip0_1388_14462">
<rect width="810" height="462.857" fill="white"/>
</clipPath>
<clipPath id="clip1_1388_14462">
<rect width="810" height="462.857" fill="white" transform="translate(0 -10)"/>
</clipPath>
</defs>
</svg>
