<svg width="536" height="636" viewBox="0 0 536 636" fill="none" xmlns="http://www.w3.org/2000/svg">
<rect width="536" height="636" fill="white"/>
<path d="M60.3561 524.967C92.1144 477.329 134.458 505.118 151.661 524.967C183.86 555.402 245.083 617.595 232.38 622.888C219.676 628.181 179.449 620.683 160.924 616.272C114.168 605.686 28.5977 572.604 60.3561 524.967Z" fill="#F5F5F5"/>
<path d="M199.873 621.78C167.208 599.794 101.752 552.555 101.25 539.489" stroke="#D7D7D7" stroke-width="0.927012"/>
<path d="M481.732 483.367C438.259 446.111 405.023 484.329 393.84 508.095C371.086 546.113 328.996 622.564 342.658 624.218C356.32 625.873 393.012 607.76 409.651 598.497C451.792 575.643 525.205 520.623 481.732 483.367Z" fill="#EBEBEB"/>
<path d="M359.851 599.721C388.878 573.116 446.569 516.656 445.12 503.661" stroke="#F5F5F5" stroke-width="0.927012"/>
<rect x="307.036" y="320.785" width="31.8333" height="83.1405" rx="15.9167" transform="rotate(-21.7543 307.036 320.785)" fill="#E1B48B"/>
<path d="M297.579 314.065C293.228 303.161 298.54 290.794 309.445 286.443L311.212 285.738C322.116 281.386 334.483 286.699 338.835 297.603L356.061 340.773L314.806 357.236L297.579 314.065Z" fill="#CD2026"/>
<path d="M242.344 286.845L319.818 284.036L332.567 383.978L226.423 384.584L242.344 286.845Z" fill="#CD2026"/>
<rect x="233.591" y="290.125" width="31.8333" height="67.5901" rx="15.9167" transform="rotate(111.048 233.591 290.125)" fill="#E1B48B"/>
<rect x="196.056" y="292.986" width="31.8333" height="97.7878" rx="15.9167" transform="rotate(158.69 196.056 292.986)" fill="#E1B48B"/>
<path d="M244.947 287.753C255.904 291.97 261.368 304.27 257.151 315.227L256.468 317.003C252.251 327.96 239.951 333.424 228.994 329.208L185.615 312.514L201.568 271.059L244.947 287.753Z" fill="#CD2026"/>
<circle cx="279.209" cy="253.984" r="24.7902" transform="rotate(-0.327319 279.209 253.984)" fill="#E1B48B"/>
<path fill-rule="evenodd" clip-rule="evenodd" d="M255.549 246.563C258.687 236.549 268.011 229.257 279.068 229.194C286.116 229.153 292.495 232.059 297.035 236.756C293.897 246.77 284.573 254.062 273.516 254.125C266.468 254.166 260.089 251.26 255.549 246.563Z" fill="#1F1F1F"/>
<path d="M303.096 266.135C301.272 269.53 296.191 276.741 290.454 278.418" stroke="#616161" stroke-width="1.00025"/>
<ellipse cx="304.269" cy="256.002" rx="6.69997" ry="10.5285" transform="rotate(0.251992 304.269 256.002)" fill="#616161"/>
<circle cx="288.02" cy="279.007" r="2.83317" transform="rotate(-21.7333 288.02 279.007)" fill="#616161"/>
<circle cx="261.296" cy="222.157" r="12.7493" transform="rotate(9.25197 261.296 222.157)" fill="#1F1F1F"/>
<path d="M513.101 523.582C481.343 475.945 438.999 503.734 421.797 523.582C389.598 554.018 328.375 616.211 341.078 621.504C353.781 626.797 394.008 619.298 412.534 614.888C459.289 604.301 544.86 571.22 513.101 523.582Z" fill="#F5F5F5"/>
<path d="M365.319 612.404C400.341 594.408 470.893 555.185 472.927 542.269" stroke="#D7D7D7" stroke-width="0.927012"/>
<path d="M309.152 296.651L291.162 296.95L291.523 306.984C291.658 310.747 294.03 314.066 297.547 315.412L297.869 315.535C300.202 316.427 302.807 316.266 305.011 315.091C307.934 313.533 309.708 310.439 309.574 307.129L309.152 296.651Z" fill="#A70B11"/>
<path d="M202.956 613.359C202.956 607.111 208.021 602.047 214.269 602.047H273.726V618.842C273.726 622.062 271.116 624.672 267.896 624.672H214.269C208.021 624.672 202.956 619.607 202.956 613.359V613.359Z" fill="#1F1F1F"/>
<rect x="226.589" y="389.219" width="50.1548" height="212.828" fill="#7128CE"/>
<rect x="282.684" y="389.219" width="50.1548" height="212.828" fill="#7128CE"/>
<path d="M351.126 613.215C351.126 607.047 346.125 602.047 339.957 602.047H286.643V618.553C286.643 621.773 289.253 624.384 292.474 624.384H339.957C346.125 624.384 351.126 619.383 351.126 613.215V613.215Z" fill="#1F1F1F"/>
<rect x="227.909" y="389.219" width="104.929" height="39.9258" fill="#7128CE"/>
<circle cx="438.485" cy="106.157" r="33.4834" fill="#FFB800"/>
<path fill-rule="evenodd" clip-rule="evenodd" d="M79.0193 104.248L202.956 104.248C202.956 104.248 202.956 104.248 202.956 104.248C202.956 78.5933 182.159 57.796 156.504 57.796C141.938 57.796 128.939 64.4999 120.422 74.9904C117.179 73.841 113.689 73.2155 110.052 73.2155C92.9131 73.2155 79.0193 87.1092 79.0193 104.248Z" fill="#F5F5F5"/>
<path fill-rule="evenodd" clip-rule="evenodd" d="M413.46 143.739L513.731 143.739C513.731 122.983 496.905 106.157 476.149 106.157C464.365 106.157 453.847 111.581 446.957 120.068C444.333 119.138 441.509 118.632 438.567 118.632C424.701 118.632 413.46 129.873 413.46 143.739Z" fill="#F5F5F5"/>
<path fill-rule="evenodd" clip-rule="evenodd" d="M427.774 177.86H318.746V232.854H318.746V242.888L326.914 233.73H427.774V177.86Z" fill="white"/>
<path d="M318.746 177.86V177.214H318.1V177.86H318.746ZM427.774 177.86H428.42V177.214H427.774V177.86ZM318.746 232.854V233.5H319.392V232.854H318.746ZM318.746 232.854V232.207H318.099V232.854H318.746ZM318.746 242.888H318.099V244.584L319.228 243.319L318.746 242.888ZM326.914 233.73V233.083H326.625L326.432 233.3L326.914 233.73ZM427.774 233.73V234.376H428.42V233.73H427.774ZM318.746 178.506H427.774V177.214H318.746V178.506ZM319.392 232.854V177.86H318.1V232.854H319.392ZM318.746 233.5H318.746V232.207H318.746V233.5ZM319.392 242.888V232.854H318.099V242.888H319.392ZM326.432 233.3L318.263 242.458L319.228 243.319L327.397 234.16L326.432 233.3ZM427.774 233.083H326.914V234.376H427.774V233.083ZM427.127 177.86V233.73H428.42V177.86H427.127Z" fill="#FF842B"/>
<circle cx="357.8" cy="206.066" r="3.79698" fill="#FF842B"/>
<circle cx="373.53" cy="206.066" r="3.79698" fill="#FF842B"/>
<circle cx="389.261" cy="206.066" r="3.79698" fill="#FF842B"/>
<path d="M125.425 277.859C125.425 279.896 124.983 281.718 124.291 283.013C123.588 284.328 122.696 284.993 121.828 284.993C120.961 284.993 120.069 284.328 119.366 283.013C118.674 281.718 118.232 279.896 118.232 277.859C118.232 275.822 118.674 274.001 119.366 272.705C120.069 271.39 120.961 270.725 121.828 270.725C122.696 270.725 123.588 271.39 124.291 272.705C124.983 274.001 125.425 275.822 125.425 277.859Z" stroke="#169F32" stroke-width="0.927012"/>
<path d="M129.641 276.854C129.641 278.613 129.259 280.184 128.664 281.297C128.058 282.43 127.3 282.983 126.581 282.983C125.863 282.983 125.104 282.43 124.499 281.297C123.904 280.184 123.522 278.613 123.522 276.854C123.522 275.094 123.904 273.524 124.499 272.411C125.104 271.277 125.863 270.725 126.581 270.725C127.3 270.725 128.058 271.277 128.664 272.411C129.259 273.524 129.641 275.094 129.641 276.854Z" stroke="#7128CE" stroke-width="0.927012"/>
<path d="M130.105 357.236L135.376 363.858L140.923 357.428L146.195 363.858L151.191 357.908L156.541 364.05L161.301 358.003L165.865 363.954L171.018 357.812" stroke="#A7A7A7" stroke-width="0.927012" stroke-miterlimit="10" stroke-linecap="round" stroke-linejoin="round"/>
<path d="M108.221 438L101 438.687L105.477 443.908L108.221 438Z" stroke="#169F32" stroke-width="0.927012"/>
<path d="M65.7942 624.672L429.025 624.672" stroke="#A7A7A7" stroke-width="0.927012"/>
<path d="M515.386 624.672H436.761" stroke="#A7A7A7" stroke-width="0.927012"/>
<path d="M510.773 298.305L503.678 307.416L513.731 308.987L510.773 302.389" stroke="#169F32" stroke-width="0.927012"/>
<path d="M427.774 342.506L421.945 336.842L427.774 331.179" stroke="#570DB4" stroke-width="0.927012"/>
<path d="M421.671 342.506L415.843 336.843L421.671 331.179" stroke="#570DB4" stroke-width="0.927012"/>
<path d="M415.567 342.506L409.738 336.843L415.567 331.179" stroke="#570DB4" stroke-width="0.927012"/>
<path d="M409.463 342.506L403.635 336.843L409.463 331.179" stroke="#570DB4" stroke-width="0.927012"/>
<path d="M418.015 381.899H147.698V529.01H418.015V381.899Z" fill="#E2CBFF"/>
<path d="M288.202 477.47L417.257 381.918L280.119 471.004L288.202 477.47Z" fill="#B589ED"/>
<path d="M280.833 471.445L147.352 381.604H417.264L280.833 471.445Z" fill="#C29FEF"/>
<rect x="345.72" y="357.236" width="31.8333" height="67.5901" rx="15.9167" transform="rotate(45.3913 345.72 357.236)" fill="#E1B48B"/>
<circle cx="134.375" cy="567.387" r="57.2853" fill="#43BE5C"/>
<path d="M157.637 578.656V585.478C157.64 586.111 157.506 586.738 157.245 587.318C156.984 587.899 156.601 588.419 156.121 588.848C155.641 589.276 155.074 589.602 154.457 589.804C153.84 590.007 153.186 590.083 152.537 590.026C145.339 589.265 138.424 586.874 132.349 583.045C126.696 579.554 121.904 574.896 118.313 569.402C114.359 563.47 111.899 556.716 111.131 549.687C111.072 549.058 111.149 548.425 111.357 547.826C111.564 547.228 111.897 546.678 112.335 546.212C112.773 545.745 113.306 545.373 113.9 545.118C114.494 544.863 115.137 544.731 115.786 544.73H122.804C123.939 544.719 125.04 545.11 125.901 545.83C126.762 546.549 127.324 547.548 127.483 548.641C127.779 550.824 128.328 552.968 129.12 555.031C129.435 555.845 129.503 556.729 129.317 557.579C129.13 558.43 128.697 559.21 128.068 559.829L125.097 562.716C128.427 568.409 133.276 573.123 139.133 576.36L142.104 573.472C142.74 572.861 143.543 572.439 144.418 572.258C145.292 572.076 146.202 572.143 147.04 572.449C149.162 573.218 151.367 573.752 153.613 574.04C154.75 574.196 155.787 574.753 156.529 575.604C157.271 576.455 157.665 577.541 157.637 578.656Z" fill="white"/>
</svg>
