<svg width="736" height="464" viewBox="0 0 736 464" fill="none" xmlns="http://www.w3.org/2000/svg">
<mask id="mask0_2_8110" style="mask-type:alpha" maskUnits="userSpaceOnUse" x="0" y="0" width="736" height="464">
<rect width="736" height="464" fill="#C4C4C4"/>
</mask>
<g mask="url(#mask0_2_8110)">
<rect width="48.3489" height="110.624" rx="24.1744" transform="matrix(-0.928551 -0.371205 -0.372657 0.927969 260.723 295.46)" fill="#F0D7C0"/>
<path d="M273.52 279.551C278.9 263.887 270.558 246.846 254.887 241.487C239.216 236.129 222.151 244.483 216.771 260.146L196.513 319.126L253.262 338.53L273.52 279.551Z" fill="#FFB800"/>
<ellipse cx="298.414" cy="186.779" rx="44.0346" ry="44.2534" fill="#F0D7C0"/>
<path fill-rule="evenodd" clip-rule="evenodd" d="M264.732 157.774C272.81 148.146 284.901 142.029 298.413 142.029C311.926 142.029 324.016 148.146 332.094 157.774C324.016 167.402 311.926 173.518 298.413 173.518C284.901 173.518 272.81 167.402 264.732 157.774Z" fill="#1F1F1F"/>
<path d="M241.516 239.948L216.082 420.145H392.859L361.381 239.948H241.516Z" fill="#FFB800"/>
<rect width="48.287" height="110.766" rx="24.1435" transform="matrix(0.544348 -0.838859 0.839982 0.542614 361.66 301.12)" fill="#F0D7C0"/>
<path d="M344.986 294.187C331.566 284.516 328.55 265.815 338.25 252.416C347.949 239.017 366.69 235.995 380.11 245.665L430.828 282.214L395.704 330.735L344.986 294.187Z" fill="#FFB800"/>
<rect width="50.1724" height="143.174" rx="25.0862" transform="matrix(0.825321 -0.564663 -0.566405 -0.824127 194.859 392.062)" fill="#F0D7C0"/>
<rect width="50.1444" height="109.182" rx="25.0722" transform="matrix(-0.659337 -0.751848 0.753326 -0.657648 399.758 401.027)" fill="#F0D7C0"/>
<ellipse rx="28.7057" ry="28.3876" transform="matrix(0.931813 0.362938 -0.364367 0.931256 289.049 345.376)" fill="#E0A773"/>
<path d="M229.454 415.583C235.321 390.408 259.947 374.249 285.439 378.847C312.837 383.789 331.978 408.703 329.644 436.384L326.841 469.631L216.859 469.631L229.454 415.583Z" fill="#7128CE"/>
<path fill-rule="evenodd" clip-rule="evenodd" d="M312.3 363.116C313.884 361.012 315.214 358.656 316.222 356.078C322.062 341.151 314.939 324.432 300.311 318.734C291.783 315.413 282.587 316.571 275.243 321.071C272.46 337.58 281.535 354.332 297.783 360.66C302.557 362.519 307.486 363.299 312.3 363.116Z" fill="#1F1F1F"/>
<path d="M358.052 349.123C367.215 349.607 374.7 341.902 373.951 332.757C373.131 322.757 362.995 316.296 353.586 319.775L323.836 330.774C320.213 332.113 317.927 335.701 318.242 339.551C318.595 343.847 322.069 347.222 326.374 347.449L358.052 349.123Z" fill="#1F1F1F"/>
<rect width="36.7815" height="91.4027" rx="18.3908" transform="matrix(-0.536097 0.844156 -0.845252 -0.534368 244.465 377.967)" fill="#C28A57"/>
<rect width="36.5695" height="116.94" rx="18.2847" transform="matrix(0.494649 0.869093 -0.870053 0.492958 249.328 290.043)" fill="#E0A773"/>
<rect width="36.5506" height="107.959" rx="18.2753" transform="matrix(-0.12449 0.992221 -0.99229 -0.123936 434.066 408.953)" fill="#C28A57"/>
<path d="M257.41 377.833C269.278 385.336 272.797 401.026 265.269 412.879C257.742 424.731 242.02 428.257 230.152 420.754L185.282 392.387L212.54 349.466L257.41 377.833Z" fill="#7128CE"/>
<path d="M316.553 393.363C302.674 391.301 289.743 400.881 287.672 414.759C285.602 428.637 295.175 441.559 309.054 443.621L361.624 451.43L369.123 401.171L316.553 393.363Z" fill="#7128CE"/>
<path d="M296.565 422.426L299.087 419.91L301.608 417.394L319.887 435.632L314.844 440.663L296.565 422.426Z" fill="#7CE391"/>
<ellipse cx="283.178" cy="403.376" rx="17.7721" ry="17.7319" fill="white"/>
<rect width="36.5513" height="126.979" rx="18.2756" transform="matrix(0.154949 0.987923 -0.988029 0.154265 428.891 404.225)" fill="#E0A773"/>
<rect width="43.3495" height="86.7782" rx="21.6748" transform="matrix(0.723356 0.690476 -0.69211 0.721792 58.8438 394.038)" fill="#C28A57"/>
<path d="M63.7298 381.509C75.3044 369.438 94.4942 369.013 106.591 380.561C118.689 392.108 119.112 411.254 107.538 423.325L64.9666 467.722L21.1588 425.905L63.7298 381.509Z" fill="#A70B11"/>
<path d="M55.5846 472.355H185.136L165.794 412.072C157.355 385.77 132.895 367.93 105.273 367.93C56.0836 367.93 25.5377 421.407 50.5255 463.777L55.5846 472.355Z" fill="#CD2026"/>
<path fill-rule="evenodd" clip-rule="evenodd" d="M136.785 322.937C136.793 322.75 136.8 322.564 136.806 322.376C138.218 321.103 139.106 319.261 139.106 317.212C139.106 314.615 137.681 312.351 135.568 311.156C135.51 310.932 135.451 310.709 135.39 310.486C135.916 309.508 136.214 308.39 136.214 307.202C136.214 304.111 134.195 301.491 131.4 300.584C131.869 299.649 132.133 298.593 132.133 297.476C132.133 293.634 129.011 290.52 125.16 290.52C124.417 290.52 123.702 290.635 123.03 290.85C122.706 290.567 122.377 290.288 122.043 290.015C121.258 287.03 118.536 284.828 115.298 284.828C114.886 284.828 114.483 284.863 114.091 284.932C113.512 284.65 112.924 284.382 112.329 284.129C111.092 282.188 108.917 280.9 106.441 280.9C105.414 280.9 104.439 281.122 103.561 281.52C102.341 281.304 101.102 281.143 99.8468 281.039C99.3966 280.948 98.9307 280.9 98.4535 280.9C98.2577 280.9 98.0639 280.908 97.8722 280.924C97.4069 280.908 96.9397 280.9 96.4705 280.9C94.7957 280.9 93.1447 281.002 91.5233 281.2C90.8809 281.005 90.1992 280.9 89.493 280.9C87.7699 280.9 86.1928 281.524 84.9761 282.557C83.9627 282.857 82.9661 283.196 81.9878 283.571C81.8638 283.565 81.739 283.561 81.6134 283.561C79.2591 283.561 77.1773 284.725 75.9148 286.508C74.8298 287.15 73.7775 287.842 72.7611 288.579C72.6912 288.577 72.6211 288.576 72.5508 288.576C68.7947 288.576 65.7322 291.539 65.5838 295.251C65.2402 295.658 64.9046 296.072 64.5771 296.493C63.0954 297.365 61.965 298.767 61.4488 300.438C58.3899 301.175 56.1174 303.923 56.1174 307.202C56.1174 308.68 56.5797 310.051 57.3679 311.178C57.3218 311.358 57.277 311.538 57.2334 311.719C54.0376 312.354 51.6289 315.167 51.6289 318.542C51.6289 321.583 53.5845 324.169 56.3094 325.115C58.2997 345.496 75.5207 361.424 96.4705 361.424C104.809 361.424 112.558 358.9 118.989 354.577C119.563 354.729 120.167 354.811 120.789 354.811C124.64 354.811 127.761 351.696 127.761 347.854C127.761 347.462 127.729 347.077 127.666 346.703C128.059 346.226 128.441 345.74 128.811 345.246C132.164 344.74 134.733 341.853 134.733 338.367C134.733 337.38 134.527 336.441 134.155 335.59C134.273 335.284 134.387 334.976 134.498 334.667C137.185 333.7 139.106 331.134 139.106 328.12C139.106 326.061 138.21 324.211 136.785 322.937Z" fill="#1F1F1F"/>
<ellipse cx="93.2414" cy="328.771" rx="32.8664" ry="32.1553" fill="#E1B48B"/>
<path d="M124.624 339.154C123.637 299.588 86.7447 301.174 68.4219 306.913C68.4219 297.626 92.7555 288.41 104.242 292.827C132.899 303.845 130.648 328.049 124.624 339.154Z" fill="#1F1F1F"/>
<rect x="70.2617" y="437.973" width="38.8411" height="62.5419" rx="19.4205" transform="rotate(90 70.2617 437.973)" fill="#E1B48B"/>
<rect width="46.4933" height="76.2558" rx="23.2467" transform="matrix(0.930231 -0.366974 0.368414 0.929662 117.699 434.576)" fill="#E1B48B"/>
<path d="M103.114 416.71C96.9478 401.151 104.57 383.558 120.139 377.416C135.708 371.274 153.328 378.909 159.494 394.468L175.549 434.983L119.169 457.225L103.114 416.71Z" fill="#CD2026"/>
<ellipse cx="574.934" cy="264.251" rx="38.6179" ry="38.5305" fill="#E1B48B"/>
<path d="M541.285 350.88C543.846 328.897 562.468 312.318 584.6 312.318C610.684 312.318 630.934 335.065 627.915 360.973L614.814 473.413H527.008L541.285 350.88Z" fill="#CD2026"/>
<rect width="35.0769" height="90.9747" rx="17.5384" transform="matrix(0.841987 -0.539497 0.54123 0.840875 583.41 378.354)" fill="#E1B48B"/>
<rect width="35.0714" height="136.379" rx="17.5357" transform="matrix(-0.799995 -0.600007 -0.601745 0.798688 728 347.502)" fill="#E1B48B"/>
<path d="M565.41 365.7C557.594 353.557 561.115 337.397 573.274 329.606C585.434 321.815 601.627 325.343 609.443 337.486L645.294 393.186L601.261 421.4L565.41 365.7Z" fill="#A70B11"/>
<rect width="41.2437" height="88.0342" rx="20.6218" transform="matrix(-0.835311 0.549778 -0.551515 -0.834165 553.246 455.183)" fill="#FF842B"/>
<path d="M470.74 407.444C463.727 396.962 466.551 382.799 477.047 375.809C487.992 368.52 502.835 371.945 509.477 383.293L534.144 425.44L498.393 448.777L470.74 407.444Z" fill="#FF810D"/>
<rect width="36.6444" height="113.122" rx="18.3222" transform="matrix(-0.843995 -0.536351 0.538081 -0.842893 532.953 477.337)" fill="#A6672E"/>
<ellipse cx="445.014" cy="448.353" rx="82.702" ry="82.5149" fill="#FF842B"/>
<rect width="34.0068" height="100.207" rx="17.0034" transform="matrix(0.0955622 0.995423 -0.995464 0.0951343 522.207 451.354)" fill="#A6672E"/>
<rect width="34.0316" height="41.6263" rx="17.0158" transform="matrix(0.575196 -0.818015 0.819238 0.573453 406.602 469.382)" fill="#A6672E"/>
<ellipse cx="417.948" cy="331.083" rx="34.5844" ry="34.7563" fill="#A6672E"/>
<path d="M402.595 338.432C392.065 338.432 389.33 346.218 390.625 351.504C389.698 351.504 386.308 346.218 383.563 338.432C378.68 310.032 403.304 294.462 421.82 296.145C440.234 297.819 448.905 310.573 451.986 324.032C452.186 324.679 452.297 325.214 452.321 325.608C452.218 325.082 452.106 324.556 451.986 324.032C450.418 318.957 443.407 307.044 430.797 303.613C421.814 315.755 411.683 320.346 402.595 323.51L409.67 344.827C409.245 344.625 407.786 338.433 402.595 338.432Z" fill="#1F1F1F"/>
<path d="M378.97 440.703C369.77 431.524 369.77 416.642 378.97 407.463C388.17 398.284 403.086 398.284 412.286 407.463L447.019 442.117L413.703 475.358L378.97 440.703Z" fill="#FF6B00"/>
<path d="M401.41 463.09L434.726 429.85L453.183 448.266L419.868 481.506L401.41 463.09Z" fill="#FF6B00"/>
<ellipse cx="518.186" cy="254.261" rx="22.3774" ry="22.3268" fill="#1F1F1F"/>
<path d="M624.348 236.99C624.348 220.698 637.555 207.49 653.848 207.49H687.936C701.436 207.49 712.38 218.434 712.38 231.934C712.38 245.434 701.436 256.378 687.936 256.378H624.348V236.99Z" fill="white"/>
<path d="M160.938 148.286C160.938 131.559 174.497 118 191.223 118H197.624C217.81 118 234.174 134.364 234.174 154.55V178.572H191.223C174.497 178.572 160.938 165.012 160.938 148.286Z" fill="white"/>
<ellipse rx="3.85454" ry="3.84582" transform="matrix(-1 0 0 1 210.079 148.766)" fill="#CD2026"/>
<ellipse rx="3.85454" ry="3.84582" transform="matrix(-1 0 0 1 197.556 148.766)" fill="#CD2026"/>
<ellipse rx="3.85454" ry="3.84582" transform="matrix(-1 0 0 1 185.024 148.766)" fill="#CD2026"/>
<path fill-rule="evenodd" clip-rule="evenodd" d="M568.812 226.378C572.943 229.962 576.358 234.687 578.553 240.298C585.104 257.04 578.314 275.326 563.387 281.14C555.289 284.294 546.459 283.129 539.029 278.729C531.535 258.165 540.346 235.881 559.042 228.599C562.24 227.354 565.523 226.627 568.812 226.378Z" fill="#1F1F1F"/>
<path d="M462.396 172.688L464.748 179.967L472.361 179.967L466.202 184.466L468.555 191.746L462.396 187.247L456.236 191.746L458.589 184.466L452.43 179.967L460.043 179.967L462.396 172.688Z" fill="#FFB800"/>
</g>
<rect x="434.5" y="99.5" width="55" height="55" stroke="#616161"/>
<path d="M444 126.733L456.176 139L480 115" stroke="#616161"/>
<path d="M490 85.5V67" stroke="#616161"/>
<path d="M502.5 99L521 99" stroke="#616161"/>
<path d="M497.582 91L521.582 67" stroke="#616161"/>
<path d="M636 27C636 32.8348 638.318 38.4306 642.444 42.5564C646.569 46.6822 652.165 49 658 49C663.835 49 669.431 46.6822 673.556 42.5564C677.682 38.4305 680 32.8348 680 27L658 27L636 27Z" fill="#FFB800"/>
<path d="M63.75 66.7745L45.0019 47.0002V86.5488L63.75 66.7745Z" stroke="#1F1F1F" stroke-width="0.845654" stroke-linejoin="round"/>
<path d="M73.2578 66.7745L92.0059 47.0002V86.5488L73.2578 66.7745Z" stroke="#1F1F1F" stroke-width="0.845654" stroke-linejoin="round"/>
<line x1="68.9267" y1="47" x2="68.9267" y2="85.9881" stroke="#1F1F1F" stroke-width="0.845654" stroke-linejoin="round"/>
</svg>
