<svg width="1153" height="833" viewBox="0 0 1153 833" fill="none" xmlns="http://www.w3.org/2000/svg">
<path d="M833.102 35.6994C833.102 47.6612 822.859 57.4037 810.165 57.4037C797.472 57.4037 787.229 47.6612 787.229 35.6994C787.229 23.7376 797.472 13.9951 810.165 13.9951C822.859 13.9951 833.102 23.7376 833.102 35.6994Z" stroke="#1F1F1F"/>
<path d="M847.751 22.3723C847.751 34.3341 837.507 44.0765 824.814 44.0765C812.12 44.0765 801.877 34.3341 801.877 22.3723C801.877 10.4104 812.12 0.667969 824.814 0.667969C837.507 0.667969 847.751 10.4104 847.751 22.3723Z" stroke="#1F1F1F"/>
<path fill-rule="evenodd" clip-rule="evenodd" d="M802.854 14.5873C805.155 13.8722 807.613 13.4854 810.166 13.4854C823.11 13.4854 833.603 23.4265 833.603 35.6896C833.603 38.4253 833.081 41.0454 832.126 43.4654C829.825 44.1805 827.367 44.5674 824.814 44.5674C811.87 44.5674 801.377 34.6262 801.377 22.3631C801.377 19.6274 801.899 17.0073 802.854 14.5873Z" fill="#43BE5C"/>
<path d="M178.148 655.675L178.148 731.213" stroke="#CD2026" stroke-miterlimit="10"/>
<path d="M195.553 655.675L195.553 731.213" stroke="#CD2026" stroke-miterlimit="10"/>
<path d="M212.955 655.675L212.955 731.213" stroke="#CD2026" stroke-miterlimit="10"/>
<path d="M230.359 655.675L230.359 731.213" stroke="#CD2026" stroke-miterlimit="10"/>
<path d="M241.961 667.296H166.547" stroke="#CD2026" stroke-miterlimit="10"/>
<path d="M241.961 684.729H166.547" stroke="#CD2026" stroke-miterlimit="10"/>
<path d="M241.961 702.159H166.547" stroke="#CD2026" stroke-miterlimit="10"/>
<path d="M241.961 719.592H166.547" stroke="#CD2026" stroke-miterlimit="10"/>
<path d="M281.555 770.971L125.863 614.925L125.863 770.971C125.863 770.971 286.154 770.971 281.555 770.971Z" stroke="#EBEBEB" stroke-miterlimit="10"/>
<path d="M334.029 662.059V727.157H591.271V606.835V361.482V316.296C591.271 206.022 501.877 116.628 391.604 116.628C281.33 116.628 191.936 206.022 191.936 316.296V595.696H266.785H267.285V596.196V661.559H333.529H334.029V662.059Z" stroke="#1F1F1F"/>
<ellipse rx="91.2908" ry="86.4897" transform="matrix(-1 0 0 1 257.838 161.866)" fill="#43BE5C"/>
<path d="M267.624 362.204L267.209 362.821L266.794 362.204L258.104 349.281L258.603 364.963L258.627 365.698L257.935 365.45L243.399 360.242L252.73 372.711L253.16 373.285L252.473 373.489L237.74 377.88L252.476 382.373L253.157 382.581L252.73 383.151L243.411 395.605L257.932 390.3L258.627 390.046L258.603 390.785L258.104 406.467L266.794 393.544L267.209 392.927L267.624 393.544L276.325 406.484L275.925 390.782L275.906 390.047L276.596 390.3L291.103 395.599L281.689 383.153L281.256 382.581L281.943 382.373L296.778 377.88L281.946 373.49L281.253 373.285L281.689 372.709L291.114 360.247L276.594 365.45L275.906 365.696L275.925 364.966L276.325 349.264L267.624 362.204Z" stroke="#1F1F1F"/>
<mask id="path-16-inside-1_180_3813" fill="white">
<path fill-rule="evenodd" clip-rule="evenodd" d="M340.004 124.132C282.068 140.051 234.576 181.591 210.19 235.657C224.06 243.713 240.376 248.358 257.838 248.358C308.257 248.358 349.129 209.635 349.129 161.868C349.129 148.339 345.85 135.536 340.004 124.132Z"/>
</mask>
<path fill-rule="evenodd" clip-rule="evenodd" d="M340.004 124.132C282.068 140.051 234.576 181.591 210.19 235.657C224.06 243.713 240.376 248.358 257.838 248.358C308.257 248.358 349.129 209.635 349.129 161.868C349.129 148.339 345.85 135.536 340.004 124.132Z" fill="white"/>
<path d="M340.004 124.132L339.872 123.65L340.264 123.542L340.449 123.904L340.004 124.132ZM210.19 235.657L209.938 236.089L209.548 235.863L209.734 235.451L210.19 235.657ZM340.449 123.904C341.198 125.364 341.905 126.848 342.568 128.352L341.653 128.756C340.998 127.269 340.299 125.803 339.559 124.36L340.449 123.904ZM346.005 137.585C346.961 140.708 347.737 143.903 348.322 147.16L347.338 147.337C346.76 144.119 345.993 140.963 345.048 137.877L346.005 137.585ZM349.484 156.943C349.58 158.573 349.629 160.215 349.629 161.868H348.629C348.629 160.235 348.581 158.612 348.486 157.001L349.484 156.943ZM349.629 161.868C349.629 163.34 349.59 164.804 349.514 166.258L348.515 166.206C348.591 164.769 348.629 163.323 348.629 161.868H349.629ZM348.592 174.988C348.127 177.899 347.51 180.762 346.749 183.571L345.784 183.309C346.536 180.535 347.145 177.706 347.604 174.83L348.592 174.988ZM344.008 191.91C342.946 194.646 341.742 197.317 340.407 199.915L339.517 199.458C340.837 196.891 342.026 194.251 343.076 191.548L344.008 191.91ZM335.998 207.505C334.402 209.955 332.68 212.325 330.843 214.607L330.064 213.979C331.881 211.724 333.582 209.381 335.16 206.959L335.998 207.505ZM325.006 221.159C322.96 223.24 320.807 225.226 318.557 227.108L317.915 226.341C320.141 224.479 322.27 222.516 324.293 220.458L325.006 221.159ZM311.565 232.408C309.162 234.055 306.671 235.594 304.101 237.018L303.616 236.143C306.159 234.735 308.622 233.212 311 231.583L311.565 232.408ZM296.236 240.904C293.571 242.069 290.837 243.116 288.042 244.039L287.729 243.089C290.494 242.176 293.199 241.14 295.835 239.988L296.236 240.904ZM279.594 246.4C276.766 247.051 273.887 247.579 270.964 247.975L270.829 246.984C273.722 246.592 276.571 246.07 279.369 245.426L279.594 246.4ZM262.226 248.76C260.772 248.825 259.309 248.858 257.838 248.858V247.858C259.294 247.858 260.742 247.826 262.181 247.761L262.226 248.76ZM257.838 248.858C256.438 248.858 255.045 248.828 253.66 248.77L253.703 247.77C255.073 247.829 256.452 247.858 257.838 247.858V248.858ZM245.336 248.058C242.55 247.698 239.804 247.22 237.104 246.629L237.318 245.653C239.99 246.237 242.707 246.71 245.464 247.066L245.336 248.058ZM229.027 244.487C226.352 243.649 223.731 242.698 221.171 241.64L221.553 240.716C224.086 241.763 226.679 242.704 229.326 243.532L229.027 244.487ZM213.598 238.106C212.361 237.46 211.14 236.787 209.938 236.089L210.441 235.224C211.63 235.915 212.837 236.581 214.061 237.22L213.598 238.106ZM209.734 235.451C210.342 234.104 210.964 232.764 211.6 231.433L212.502 231.864C211.869 233.189 211.25 234.522 210.645 235.862L209.734 235.451ZM215.593 223.525C216.983 220.916 218.428 218.34 219.927 215.8L220.788 216.308C219.297 218.836 217.858 221.399 216.475 223.995L215.593 223.525ZM224.596 208.271C226.207 205.794 227.872 203.354 229.587 200.953L230.401 201.534C228.694 203.923 227.038 206.351 225.434 208.816L224.596 208.271ZM234.893 193.859C236.714 191.532 238.584 189.246 240.502 187.003L241.262 187.653C239.353 189.885 237.492 192.16 235.681 194.475L234.893 193.859ZM246.404 180.397C248.419 178.238 250.481 176.123 252.588 174.054L253.288 174.767C251.192 176.826 249.14 178.93 247.135 181.079L246.404 180.397ZM259.041 167.986C261.236 166.01 263.474 164.083 265.754 162.205L266.389 162.976C264.121 164.845 261.894 166.763 259.71 168.729L259.041 167.986ZM272.712 156.722C275.07 154.947 277.468 153.222 279.904 151.55L280.47 152.374C278.046 154.038 275.66 155.754 273.313 157.521L272.712 156.722ZM287.315 146.698C289.819 145.137 292.359 143.63 294.934 142.178L295.425 143.049C292.863 144.494 290.336 145.994 287.845 147.547L287.315 146.698ZM302.746 137.999C305.376 136.666 308.039 135.389 310.734 134.171L311.146 135.082C308.465 136.294 305.815 137.564 303.198 138.891L302.746 137.999ZM318.886 130.701C321.623 129.608 324.389 128.573 327.183 127.599L327.512 128.544C324.732 129.513 321.98 130.542 319.257 131.63L318.886 130.701ZM335.612 124.872C337.026 124.449 338.446 124.042 339.872 123.65L340.137 124.614C338.718 125.004 337.305 125.409 335.899 125.83L335.612 124.872ZM340.004 124.132L339.739 123.168L340.523 122.952L340.894 123.676L340.004 124.132ZM210.19 235.657L209.687 236.522L208.907 236.068L209.278 235.246L210.19 235.657ZM340.894 123.676C341.647 125.145 342.358 126.637 343.026 128.151L341.196 128.957C340.544 127.48 339.85 126.023 339.114 124.588L340.894 123.676ZM346.483 137.438C347.444 140.58 348.225 143.795 348.814 147.071L346.846 147.425C346.271 144.227 345.509 141.09 344.57 138.024L346.483 137.438ZM349.983 156.913C350.08 158.553 350.129 160.205 350.129 161.868H348.129C348.129 160.245 348.081 158.632 347.987 157.031L349.983 156.913ZM350.129 161.868C350.129 163.349 350.09 164.821 350.013 166.284L348.016 166.179C348.091 164.751 348.129 163.314 348.129 161.868H350.129ZM349.086 175.067C348.618 177.995 347.998 180.876 347.232 183.702L345.301 183.178C346.049 180.421 346.654 177.609 347.111 174.751L349.086 175.067ZM344.474 192.091C343.405 194.843 342.195 197.53 340.852 200.144L339.073 199.23C340.385 196.677 341.566 194.054 342.61 191.367L344.474 192.091ZM336.417 207.778C334.811 210.243 333.08 212.626 331.232 214.92L329.675 213.666C331.481 211.423 333.173 209.094 334.741 206.686L336.417 207.778ZM325.363 221.509C323.305 223.602 321.141 225.599 318.878 227.492L317.594 225.958C319.808 224.106 321.925 222.153 323.937 220.107L325.363 221.509ZM311.847 232.82C309.431 234.476 306.927 236.024 304.343 237.455L303.374 235.706C305.902 234.305 308.353 232.791 310.717 231.171L311.847 232.82ZM296.436 241.363C293.757 242.533 291.009 243.586 288.199 244.514L287.572 242.614C290.323 241.706 293.013 240.676 295.635 239.53L296.436 241.363ZM279.706 246.887C276.863 247.542 273.969 248.072 271.031 248.471L270.762 246.489C273.64 246.098 276.474 245.579 279.257 244.938L279.706 246.887ZM262.248 249.26C260.786 249.325 259.316 249.358 257.838 249.358V247.358C259.287 247.358 260.727 247.326 262.159 247.262L262.248 249.26ZM257.838 249.358C256.431 249.358 255.031 249.328 253.639 249.269L253.724 247.271C255.088 247.329 256.459 247.358 257.838 247.358V249.358ZM245.272 248.554C242.472 248.192 239.712 247.712 236.997 247.118L237.425 245.164C240.083 245.746 242.786 246.216 245.528 246.57L245.272 248.554ZM228.878 244.964C226.188 244.122 223.554 243.166 220.98 242.102L221.744 240.254C224.263 241.295 226.842 242.231 229.475 243.055L228.878 244.964ZM213.367 238.55C212.123 237.9 210.896 237.223 209.687 236.522L210.692 234.792C211.874 235.479 213.075 236.141 214.293 236.777L213.367 238.55ZM209.278 235.246C209.887 233.895 210.511 232.552 211.148 231.217L212.953 232.079C212.322 233.401 211.704 234.731 211.101 236.068L209.278 235.246ZM215.151 223.29C216.545 220.674 217.994 218.092 219.497 215.546L221.219 216.563C219.731 219.084 218.296 221.64 216.916 224.23L215.151 223.29ZM224.177 207.998C225.792 205.515 227.461 203.069 229.18 200.662L230.808 201.825C229.105 204.208 227.453 206.63 225.853 209.089L224.177 207.998ZM234.499 193.551C236.324 191.218 238.199 188.927 240.122 186.678L241.642 187.977C239.738 190.204 237.881 192.474 236.074 194.783L234.499 193.551ZM246.038 180.056C248.058 177.891 250.125 175.771 252.237 173.697L253.639 175.124C251.547 177.178 249.501 179.277 247.5 181.42L246.038 180.056ZM258.707 167.614C260.907 165.634 263.15 163.702 265.436 161.819L266.707 163.362C264.445 165.227 262.223 167.14 260.045 169.1L258.707 167.614ZM272.411 156.323C274.775 154.543 277.179 152.814 279.621 151.137L280.753 152.786C278.335 154.446 275.954 156.158 273.614 157.921L272.411 156.323ZM287.051 146.274C289.561 144.709 292.107 143.198 294.689 141.742L295.671 143.485C293.115 144.926 290.594 146.422 288.109 147.971L287.051 146.274ZM302.519 137.553C305.156 136.216 307.826 134.936 310.528 133.715L311.352 135.537C308.677 136.747 306.034 138.014 303.424 139.337L302.519 137.553ZM318.701 130.237C321.444 129.141 324.217 128.104 327.019 127.127L327.677 129.016C324.904 129.982 322.159 131.009 319.443 132.094L318.701 130.237ZM335.469 124.393C336.886 123.969 338.309 123.56 339.739 123.168L340.269 125.096C338.854 125.485 337.445 125.889 336.042 126.309L335.469 124.393Z" fill="#1F1F1F" mask="url(#path-16-inside-1_180_3813)"/>
<rect x="-0.5" y="0.5" width="29.2363" height="57.2465" transform="matrix(-1 0 0 1 220.674 478.523)" stroke="#1F1F1F" stroke-dasharray="9 9"/>
<path d="M531.868 748.676C531.868 756.494 535.146 763.991 540.981 769.52C546.816 775.048 554.73 778.153 562.982 778.153C571.234 778.153 579.148 775.048 584.983 769.52C590.818 763.991 594.096 756.494 594.096 748.676L562.982 748.676H531.868Z" fill="#8A49DD"/>
<mask id="mask0_180_3813" style="mask-type:alpha" maskUnits="userSpaceOnUse" x="569" y="218" width="284" height="436">
<path d="M569.418 218.742L852.221 222.033V653.541H591.248L592.241 309.932C592.241 309.932 591.745 283.515 587.279 265.747C582.318 246.005 569.418 218.742 569.418 218.742Z" fill="#C4C4C4"/>
</mask>
<g mask="url(#mask0_180_3813)">
<rect width="30.7101" height="103.419" rx="15.3551" transform="matrix(0.229376 -0.973338 0.978353 0.206945 657.738 403.303)" fill="#E9AE76"/>
<rect width="30.6285" height="103.668" rx="15.3142" transform="matrix(0.0274487 -0.999623 0.999696 0.0246393 474.959 354.647)" fill="#FFBF83"/>
<rect width="31.1986" height="124.746" rx="15.5993" transform="matrix(-0.595231 -0.803555 0.832735 -0.553672 744.143 426.649)" fill="#E9AE76"/>
<ellipse rx="30.9358" ry="29.7103" transform="matrix(-1 0 0 1 668.441 318.419)" fill="#E1B48B"/>
<path d="M642.966 402.428C633.184 400.214 627.242 390.536 629.694 380.811C632.145 371.086 642.063 364.997 651.845 367.21L704.759 379.185L695.88 414.403L642.966 402.428Z" fill="#A70B11"/>
<path d="M656.191 417.377C673.305 395.051 668.222 363.706 644.836 347.367C621.688 331.193 589.227 335.764 571.955 357.63L487.488 464.565L618.403 472.878L656.191 417.377Z" fill="#CD2026"/>
<path fill-rule="evenodd" clip-rule="evenodd" d="M637.833 326.982C637.057 324.345 636.641 321.561 636.641 318.682C636.641 302.017 650.584 288.507 667.783 288.507C677.812 288.507 686.734 293.1 692.43 300.234C688.679 317.278 672.732 330.082 653.629 330.082C648.015 330.082 642.673 328.976 637.833 326.982Z" fill="#1F1F1F"/>
<path d="M588.722 301.601C571.508 299.797 562.4 281.381 571.549 266.877C579.887 253.658 598.75 251.424 609.503 262.38L634.939 288.295C638.088 291.504 638.636 296.385 636.286 300.307C634.142 303.886 630.02 305.928 625.828 305.489L588.722 301.601Z" fill="#1F1F1F"/>
<path d="M603.466 368.822C613.497 370.432 623.079 363.63 624.867 353.63C626.655 343.629 619.973 334.217 609.942 332.607L556.512 324.031L550.036 360.247L603.466 368.822Z" fill="#CD2026"/>
<path fill-rule="evenodd" clip-rule="evenodd" d="M655.482 487.019L655.412 486.641C655.412 486.641 633.15 483.631 604.456 481.035C558.937 476.918 485.9 472.713 485.9 472.713L485.894 479.862C485.873 507.226 506.756 529.95 534.045 532.257L587.753 536.796L643.834 541.537L685.009 565.939L770.977 610.765L799.464 573.967L655.482 487.019Z" fill="#FFB800"/>
<path d="M834.604 549.906C826.572 544.582 815.42 546.551 809.696 554.303L769.148 609.214L781.59 617.461C790.783 623.554 803.546 621.301 810.098 612.429L838.783 573.582C844.508 565.83 842.637 555.23 834.604 549.906Z" fill="#1F1F1F"/>
</g>
<path d="M977.748 254.99C977.748 246.929 984.283 240.395 992.344 240.395H993.138C1000.76 240.395 1006.94 246.574 1006.94 254.196C1006.94 261.819 1000.76 267.998 993.138 267.998H977.748V254.99Z" stroke="black"/>
<path d="M998.351 254.198C998.351 257.165 995.804 259.616 992.604 259.616C989.405 259.616 986.857 257.165 986.857 254.198C986.857 251.23 989.405 248.779 992.604 248.779C995.804 248.779 998.351 251.23 998.351 254.198Z" fill="white" stroke="black"/>
<rect x="704.869" y="134.163" width="39.6839" height="37.5443" stroke="#1F1F1F"/>
<mask id="path-35-inside-2_180_3813" fill="white">
<path fill-rule="evenodd" clip-rule="evenodd" d="M737.154 141.124H712.268V147.472H721.358V165.23H728.058V147.472H737.154V141.124Z"/>
</mask>
<path d="M712.268 141.124V140.124H711.268V141.124H712.268ZM737.154 141.124H738.154V140.124H737.154V141.124ZM712.268 147.472H711.268V148.472H712.268V147.472ZM721.358 147.472H722.358V146.472H721.358V147.472ZM721.358 165.23H720.358V166.23H721.358V165.23ZM728.058 165.23V166.23H729.058V165.23H728.058ZM728.058 147.472V146.472H727.058V147.472H728.058ZM737.154 147.472V148.472H738.154V147.472H737.154ZM712.268 142.124H737.154V140.124H712.268V142.124ZM713.268 147.472V141.124H711.268V147.472H713.268ZM721.358 146.472H712.268V148.472H721.358V146.472ZM722.358 165.23V147.472H720.358V165.23H722.358ZM728.058 164.23H721.358V166.23H728.058V164.23ZM727.058 147.472V165.23H729.058V147.472H727.058ZM737.154 146.472H728.058V148.472H737.154V146.472ZM736.154 141.124V147.472H738.154V141.124H736.154Z" fill="#1F1F1F" mask="url(#path-35-inside-2_180_3813)"/>
<path d="M1123.41 492.984L1118.45 497.683L1105.5 485.414L1110.46 480.715L1112.8 482.934L1117.35 478.627C1120.1 476.016 1123.68 476.016 1125.75 477.974C1128.37 480.454 1129.33 483.195 1125.75 486.589L1121.2 490.896L1123.41 492.984Z" fill="#FFB800"/>
<path d="M1108.66 488.417C1104.85 492.028 1100.29 496.352 1098.19 498.336C1095.44 500.947 1096.4 503.426 1097.36 504.34C1096.91 504.775 1097.34 504.366 1096.13 505.515C1095.57 506.037 1095.71 506.689 1096.12 507.081C1096.54 507.473 1097.23 507.603 1097.78 507.081C1098.55 506.35 1098.38 506.516 1099.02 505.906C1099.84 506.69 1102.6 507.212 1105.08 504.862C1107.06 502.983 1111.69 498.597 1115.55 494.943" stroke="#1F1F1F"/>
<path d="M819.533 293.093L821.892 290.858L824.252 288.622L841.356 304.828L836.638 309.298L819.533 293.093Z" fill="#FAFAFA"/>
<path d="M818.354 287.505L821.892 290.858M821.892 290.858L819.533 293.093L836.638 309.298L841.356 304.828L824.252 288.622L821.892 290.858Z" stroke="#1F1F1F"/>
<path d="M823.138 276.168C823.138 284.568 815.942 291.424 807.007 291.424C798.073 291.424 790.877 284.568 790.877 276.168C790.877 267.767 798.073 260.912 807.007 260.912C815.942 260.912 823.138 267.767 823.138 276.168Z" stroke="#1F1F1F"/>
<path d="M931.867 108.339L949.162 146.895" stroke="#1F1F1F"/>
<rect x="0.668454" y="0.269463" width="19.3461" height="12.0651" transform="matrix(0.927636 -0.373485 0.409272 0.912412 924.456 117.067)" fill="#FAFAFA" stroke="black"/>
<rect x="0.668454" y="0.269463" width="29.5191" height="12.0651" transform="matrix(0.927636 -0.373485 0.409272 0.912412 927.256 135.73)" fill="#FAFAFA" stroke="black"/>
<path d="M952.441 385.591C966.09 359.728 980.141 355.925 993.79 370.758C1007.44 385.591 1021.89 396.62 1039.96 379.886" stroke="#1F1F1F"/>
<ellipse cx="997.002" cy="373.801" rx="4.41586" ry="4.18363" fill="#169F32"/>
<path d="M1119.15 288.918C1119.15 288.918 1125.1 276.991 1135.52 276.991C1145.94 276.991 1151.89 288.918 1151.89 288.918C1151.89 288.918 1145.94 300.845 1135.52 300.845C1125.1 300.845 1119.15 288.918 1119.15 288.918Z" stroke="#1F1F1F" stroke-linecap="round" stroke-linejoin="round"/>
<path d="M1135.52 293.392C1137.98 293.392 1139.98 291.389 1139.98 288.919C1139.98 286.449 1137.98 284.446 1135.52 284.446C1133.05 284.446 1131.05 286.449 1131.05 288.919C1131.05 291.389 1133.05 293.392 1135.52 293.392Z" fill="#1F1F1F"/>
<path d="M981.465 627.241L967.33 613.116V641.365L981.465 627.241Z" stroke="#1F1F1F" stroke-linejoin="round"/>
<path d="M988.633 627.241L1002.77 613.116V641.365L988.633 627.241Z" stroke="#1F1F1F" stroke-linejoin="round"/>
<line x1="985.551" y1="613.117" x2="985.551" y2="640.966" stroke="#1F1F1F" stroke-linejoin="round"/>
<path d="M583.431 95.8796C576.405 100.081 566.631 110.379 583.739 117.959" stroke="#1F1F1F"/>
<path d="M559.227 80.5947C559.408 93.5824 569.662 91.5056 571.024 90.839C572.386 90.1725 576.462 87.5235 582.631 87.4463" stroke="#1F1F1F"/>
<path d="M545.791 100.249C554.692 99.4882 557.461 101.401 563.18 118.217" stroke="#1F1F1F"/>
<path d="M545.662 91.1557C551.768 86.5329 551.723 83.286 551.686 80.6884" stroke="#1F1F1F"/>
<path d="M545.517 80.7621L563.843 67.5428L602.912 67.054M545.517 80.7621L583.216 80.2903M545.517 80.7621L546.042 118.426L583.741 117.955M602.912 67.054L583.216 80.2903M602.912 67.054L603.446 105.368L583.741 117.955M583.216 80.2903L583.741 117.955" stroke="#1F1F1F"/>
<path d="M832.921 480.136L834.437 484.783L834.549 485.128H834.912L839.812 485.128L835.849 487.996L835.554 488.209L835.667 488.556L837.182 493.199L833.214 490.327L832.921 490.115L832.628 490.327L828.66 493.199L830.174 488.556L830.287 488.209L829.992 487.996L826.03 485.128L830.93 485.128H831.293L831.405 484.783L832.921 480.136Z" stroke="#1F1F1F"/>
<path d="M14.8613 234.253L14.8613 260.366" stroke="#FFB800" stroke-width="2.0727" stroke-miterlimit="10" stroke-linecap="round" stroke-linejoin="round"/>
<path d="M27.896 247.309H1.82617" stroke="#FFB800" stroke-width="2.0727" stroke-miterlimit="10" stroke-linecap="round" stroke-linejoin="round"/>
<path d="M55.2793 234.253L55.2793 260.366" stroke="#FFB800" stroke-width="2.0727" stroke-miterlimit="10" stroke-linecap="round" stroke-linejoin="round"/>
<path d="M68.314 247.309H42.2441" stroke="#FFB800" stroke-width="2.0727" stroke-miterlimit="10" stroke-linecap="round" stroke-linejoin="round"/>
<path d="M63.3485 778.575L64.5088 783.442L68.9617 780.778L66.1498 784.997L71.2868 786.096L66.1498 787.195L68.9617 791.414L64.5088 788.75L63.3485 793.617L62.1881 788.75L57.7352 791.414L60.5471 787.195L55.4102 786.096L60.5471 784.997L57.7352 780.778L62.1881 783.442L63.3485 778.575Z" fill="#FFB800"/>
<path d="M27.6263 45.293L29.5119 53.2015L36.7479 48.8725L32.1786 55.7279L40.5261 57.5143L32.1786 59.3008L36.7479 66.1562L29.5119 61.8271L27.6263 69.7357L25.7408 61.8271L18.5048 66.1562L23.0741 59.3008L14.7266 57.5143L23.0741 55.7279L18.5048 48.8725L25.7408 53.2015L27.6263 45.293Z" fill="#FFB800"/>
<path d="M983.466 759.972L983.466 759.972C983.185 758.652 982.392 757.497 981.263 756.761C980.133 756.026 978.759 755.77 977.442 756.049L977.441 756.049L909.55 770.533L909.55 770.533C908.233 770.815 907.082 771.61 906.349 772.742C905.616 773.875 905.362 775.254 905.642 776.575L905.642 776.575L906.387 780.079C906.428 780.272 906.391 780.473 906.284 780.637L906.494 780.773L906.284 780.637C906.178 780.802 906.01 780.918 905.819 780.958C905.628 780.999 905.428 780.962 905.264 780.855L905.127 781.065L905.264 780.855C905.099 780.748 904.984 780.58 904.943 780.387L904.197 776.883C903.837 775.177 904.166 773.398 905.112 771.936C906.058 770.473 907.543 769.447 909.242 769.082L977.131 754.599C978.831 754.239 980.604 754.57 982.062 755.519C983.521 756.469 984.544 757.959 984.909 759.665L985.654 763.169L985.654 763.169C985.675 763.264 985.676 763.363 985.659 763.458C985.641 763.554 985.605 763.645 985.553 763.727C985.5 763.808 985.432 763.879 985.352 763.934C985.272 763.989 985.183 764.027 985.088 764.048C984.897 764.088 984.697 764.051 984.533 763.944C984.368 763.837 984.253 763.669 984.212 763.476L983.466 759.972ZM959.875 816.562L950.208 818.624C950.017 818.665 949.817 818.628 949.652 818.521C949.488 818.414 949.372 818.246 949.331 818.053C949.291 817.861 949.328 817.66 949.434 817.495C949.541 817.33 949.708 817.215 949.899 817.174L959.566 815.112C959.758 815.071 959.958 815.108 960.122 815.215C960.286 815.322 960.402 815.49 960.443 815.683C960.484 815.875 960.447 816.076 960.34 816.241C960.234 816.406 960.066 816.521 959.875 816.562ZM929.82 811.564C924.252 812.752 918.715 809.049 917.491 803.293C916.323 797.798 919.969 792.164 925.446 790.995C931.182 789.772 936.809 793.332 937.997 798.919C939.241 804.769 935.65 810.32 929.82 811.564ZM925.754 792.446C921.054 793.449 917.934 798.272 918.936 802.985C919.987 807.927 924.724 811.135 929.511 810.114C934.529 809.043 937.622 804.258 936.553 799.227C935.532 794.428 930.685 791.394 925.754 792.446ZM975.337 801.854C969.77 803.041 964.235 799.338 963.011 793.582C961.843 788.087 965.487 782.453 970.964 781.285C976.7 780.061 982.327 783.622 983.515 789.208C984.759 795.059 981.168 800.61 975.337 801.854ZM971.272 782.735C966.572 783.738 963.453 788.561 964.456 793.274C965.506 798.216 970.244 801.424 975.029 800.403C980.046 799.333 983.14 794.547 982.07 789.516C981.05 784.718 976.203 781.683 971.272 782.735Z" fill="#1F1F1F" stroke="#FAFAFA" stroke-width="0.5"/>
<path d="M959.724 817.232L956.827 810.548L956.827 810.548C956.047 808.749 954.347 808.42 953.149 808.676C951.953 808.931 950.532 809.926 950.551 811.887L950.624 819.171C950.632 820.263 950.259 821.327 949.567 822.183C948.874 823.039 947.906 823.635 946.824 823.868L911.649 831.372C910.407 831.636 909.113 831.402 908.052 830.722C906.99 830.042 906.248 828.972 905.986 827.748L897.293 786.865C896.751 784.318 898.406 781.795 900.99 781.244L989.619 762.336C992.203 761.785 994.74 763.413 995.281 765.96L1003.97 806.844C1004.52 809.391 1002.86 811.913 1000.28 812.464L965.103 819.969C964.02 820.197 962.894 820.049 961.914 819.55C960.934 819.051 960.161 818.232 959.724 817.232ZM959.724 817.232L959.495 817.332L959.724 817.232L959.724 817.232ZM958.218 809.956L958.218 809.956L961.115 816.638L961.115 816.639C961.415 817.324 961.945 817.884 962.615 818.224C963.285 818.565 964.053 818.666 964.791 818.511L964.792 818.511L999.968 811.007C1001.73 810.631 1002.87 808.907 1002.49 807.159L993.801 766.276C993.429 764.528 991.69 763.418 989.929 763.794L901.3 782.702C899.538 783.077 898.402 784.801 898.774 786.549L907.467 827.432C907.839 829.18 909.578 830.29 911.339 829.914L946.515 822.41C948.033 822.086 949.125 820.738 949.112 819.197L949.112 819.197L949.04 811.914L949.04 811.914C949.012 809.238 950.918 807.628 952.839 807.218C954.759 806.808 957.154 807.501 958.218 809.956Z" fill="#1F1F1F" stroke="#FAFAFA" stroke-width="0.5"/>
<rect x="0.635814" y="0.333303" width="41.6771" height="16.8597" rx="8.42983" transform="matrix(0.959037 -0.283281 0.312591 0.949888 958.316 500.369)" stroke="#1F1F1F"/>
<ellipse rx="5.14349" ry="4.91993" transform="matrix(0.959037 -0.283281 0.312591 0.949888 992.682 499.211)" fill="#FFB800"/>
<rect width="31.7619" height="58.2465" transform="matrix(-1 0 0 1 192.459 478.523)" fill="#FF842B"/>
<mask id="mask1_180_3813" style="mask-type:alpha" maskUnits="userSpaceOnUse" x="271" y="182" width="320" height="589">
<path d="M590.104 769.673H272.23V183.004H472.603C537.497 183.004 590.104 235.61 590.104 300.504V769.673Z" fill="#C4C4C4" stroke="#1F1F1F"/>
</mask>
<g mask="url(#mask1_180_3813)">
<mask id="path-70-inside-3_180_3813" fill="white">
<path fill-rule="evenodd" clip-rule="evenodd" d="M494.924 355.226L432.293 396.868C425.119 401.638 415.146 399.893 410.018 392.97C404.89 386.048 406.548 376.569 413.722 371.799L478.937 328.439C479.548 328.033 480.178 327.674 480.825 327.361C483.45 325.468 486.692 324.386 490.172 324.472L563.19 326.271C571.645 326.48 578.311 333.502 578.079 341.957C577.847 350.412 570.804 357.097 562.349 356.888L494.924 355.226Z"/>
</mask>
<path fill-rule="evenodd" clip-rule="evenodd" d="M494.924 355.226L432.293 396.868C425.119 401.638 415.146 399.893 410.018 392.97C404.89 386.048 406.548 376.569 413.722 371.799L478.937 328.439C479.548 328.033 480.178 327.674 480.825 327.361C483.45 325.468 486.692 324.386 490.172 324.472L563.19 326.271C571.645 326.48 578.311 333.502 578.079 341.957C577.847 350.412 570.804 357.097 562.349 356.888L494.924 355.226Z" fill="white"/>
<path d="M494.924 355.226L494.936 354.726L494.778 354.723L494.647 354.81L494.924 355.226ZM432.293 396.868L432.57 397.285H432.57L432.293 396.868ZM410.018 392.97L410.419 392.673H410.419L410.018 392.97ZM413.722 371.799L413.446 371.382L413.722 371.799ZM478.937 328.439L479.214 328.855L479.214 328.855L478.937 328.439ZM480.825 327.361L481.042 327.812L481.082 327.793L481.117 327.767L480.825 327.361ZM490.172 324.472L490.185 323.972L490.172 324.472ZM563.19 326.271L563.202 325.771L563.19 326.271ZM578.079 341.957L578.579 341.971V341.971L578.079 341.957ZM562.349 356.888L562.337 357.388L562.349 356.888ZM494.647 354.81L490.732 357.413L491.286 358.245L495.2 355.643L494.647 354.81ZM482.903 362.618L475.075 367.823L475.628 368.656L483.457 363.451L482.903 362.618ZM467.246 373.028L459.417 378.234L459.971 379.066L467.799 373.861L467.246 373.028ZM451.588 383.439L443.759 388.644L444.313 389.477L452.142 384.272L451.588 383.439ZM435.93 393.849L432.016 396.452L432.57 397.285L436.484 394.682L435.93 393.849ZM432.016 396.452C430.299 397.594 428.416 398.35 426.477 398.741L426.675 399.722C428.736 399.306 430.741 398.501 432.57 397.285L432.016 396.452ZM414.851 396.707C413.161 395.681 411.647 394.33 410.419 392.673L409.616 393.268C410.923 395.033 412.535 396.471 414.333 397.562L414.851 396.707ZM410.419 392.673C409.209 391.039 408.391 389.26 407.945 387.438L406.973 387.676C407.451 389.627 408.326 391.527 409.616 393.268L410.419 392.673ZM409.894 376.298C410.932 374.736 412.306 373.341 413.999 372.215L413.446 371.382C411.642 372.582 410.173 374.072 409.061 375.744L409.894 376.298ZM413.999 372.215L418.075 369.505L417.522 368.672L413.446 371.382L413.999 372.215ZM426.227 364.085L434.379 358.665L433.825 357.832L425.673 363.252L426.227 364.085ZM442.531 353.245L450.683 347.825L450.129 346.992L441.977 352.412L442.531 353.245ZM458.834 342.405L466.986 336.985L466.433 336.152L458.281 341.572L458.834 342.405ZM475.138 331.565L479.214 328.855L478.66 328.022L474.584 330.732L475.138 331.565ZM479.214 328.855C479.361 328.757 479.508 328.663 479.657 328.571L479.133 327.72C478.974 327.818 478.816 327.918 478.66 328.022L479.214 328.855ZM480.572 328.049C480.728 327.967 480.885 327.888 481.042 327.812L480.607 326.911C480.439 326.992 480.272 327.077 480.107 327.164L480.572 328.049ZM481.117 327.767C481.767 327.299 482.455 326.882 483.176 326.522L482.73 325.627C481.96 326.011 481.225 326.456 480.532 326.956L481.117 327.767ZM487.757 325.105C488.541 324.998 489.344 324.951 490.16 324.971L490.185 323.972C489.314 323.95 488.458 324 487.621 324.115L487.757 325.105ZM490.16 324.971L494.724 325.084L494.748 324.084L490.185 323.972L490.16 324.971ZM503.851 325.309L512.978 325.534L513.003 324.534L503.876 324.309L503.851 325.309ZM522.105 325.759L531.232 325.984L531.257 324.984L522.13 324.759L522.105 325.759ZM540.36 326.209L549.487 326.434L549.511 325.434L540.384 325.209L540.36 326.209ZM558.614 326.659L563.178 326.771L563.202 325.771L558.639 325.659L558.614 326.659ZM563.178 326.771C565.186 326.821 567.088 327.267 568.813 328.033L569.219 327.119C567.376 326.301 565.344 325.824 563.202 325.771L563.178 326.771ZM576.612 336.249C577.287 338.012 577.634 339.935 577.579 341.943L578.579 341.971C578.638 339.829 578.268 337.775 577.546 335.892L576.612 336.249ZM577.579 341.943C577.524 343.953 577.071 345.858 576.299 347.586L577.212 347.994C578.037 346.148 578.52 344.114 578.579 341.971L577.579 341.943ZM568.063 355.404C566.297 356.085 564.371 356.438 562.361 356.388L562.337 357.388C564.48 357.441 566.537 357.064 568.423 356.337L568.063 355.404ZM562.361 356.388L558.147 356.284L558.123 357.284L562.337 357.388L562.361 356.388ZM549.719 356.077L541.291 355.869L541.266 356.869L549.694 357.076L549.719 356.077ZM532.863 355.661L524.435 355.453L524.41 356.453L532.838 356.661L532.863 355.661ZM516.006 355.246L507.578 355.038L507.554 356.038L515.982 356.245L516.006 355.246ZM499.15 354.83L494.936 354.726L494.911 355.726L499.125 355.83L499.15 354.83ZM494.924 355.226L494.948 354.227L494.633 354.219L494.37 354.394L494.924 355.226ZM432.293 396.868L432.846 397.701L432.293 396.868ZM410.018 392.97L410.821 392.375H410.821L410.018 392.97ZM413.722 371.799L413.169 370.966L413.722 371.799ZM478.937 328.439L479.491 329.271V329.271L478.937 328.439ZM480.825 327.361L481.26 328.262L481.339 328.224L481.41 328.173L480.825 327.361ZM490.172 324.472L490.197 323.472L490.172 324.472ZM563.19 326.271L563.214 325.271L563.19 326.271ZM578.079 341.957L579.079 341.984V341.984L578.079 341.957ZM562.349 356.888L562.324 357.888L562.349 356.888ZM494.37 354.394L490.455 356.996L491.563 358.662L495.477 356.059L494.37 354.394ZM482.627 362.201L474.798 367.407L475.905 369.072L483.734 363.867L482.627 362.201ZM466.969 372.612L459.14 377.817L460.247 379.483L468.076 374.277L466.969 372.612ZM451.311 383.023L443.482 388.228L444.59 389.893L452.419 384.688L451.311 383.023ZM435.654 393.433L431.739 396.036L432.846 397.701L436.761 395.099L435.654 393.433ZM431.739 396.036C430.078 397.14 428.256 397.873 426.379 398.251L426.774 400.212C428.896 399.784 430.962 398.954 432.846 397.701L431.739 396.036ZM415.111 396.279C413.474 395.286 412.009 393.978 410.821 392.375L409.214 393.566C410.561 395.384 412.223 396.866 414.073 397.989L415.111 396.279ZM410.821 392.375C409.65 390.794 408.86 389.076 408.43 387.319L406.488 387.795C406.981 389.811 407.885 391.771 409.214 393.566L410.821 392.375ZM410.31 376.575C411.312 375.068 412.638 373.721 414.276 372.631L413.169 370.966C411.309 372.202 409.793 373.74 408.645 375.468L410.31 376.575ZM414.276 372.631L418.352 369.921L417.245 368.256L413.169 370.966L414.276 372.631ZM426.504 364.501L434.656 359.081L433.548 357.416L425.397 362.836L426.504 364.501ZM442.808 353.661L450.959 348.241L449.852 346.576L441.7 351.996L442.808 353.661ZM459.111 342.821L467.263 337.401L466.156 335.736L458.004 341.156L459.111 342.821ZM475.415 331.981L479.491 329.271L478.383 327.606L474.308 330.316L475.415 331.981ZM479.491 329.271C479.633 329.177 479.776 329.085 479.92 328.996L478.87 327.294C478.707 327.395 478.544 327.499 478.383 327.606L479.491 329.271ZM480.805 328.491C480.956 328.412 481.107 328.336 481.26 328.262L480.39 326.461C480.217 326.545 480.045 326.631 479.874 326.721L480.805 328.491ZM481.41 328.173C482.038 327.72 482.703 327.317 483.4 326.969L482.506 325.18C481.712 325.576 480.955 326.035 480.24 326.55L481.41 328.173ZM487.825 325.601C488.582 325.497 489.358 325.452 490.148 325.471L490.197 323.472C489.299 323.45 488.416 323.501 487.553 323.619L487.825 325.601ZM490.148 325.471L494.711 325.584L494.761 323.584L490.197 323.472L490.148 325.471ZM503.839 325.809L512.966 326.034L513.015 324.034L503.888 323.809L503.839 325.809ZM522.093 326.259L531.22 326.484L531.269 324.484L522.142 324.259L522.093 326.259ZM540.347 326.708L549.474 326.933L549.524 324.934L540.397 324.709L540.347 326.708ZM558.602 327.158L563.165 327.271L563.214 325.271L558.651 325.159L558.602 327.158ZM563.165 327.271C565.107 327.319 566.944 327.75 568.61 328.49L569.422 326.662C567.52 325.817 565.423 325.326 563.214 325.271L563.165 327.271ZM576.145 336.428C576.797 338.13 577.133 339.988 577.079 341.93L579.079 341.984C579.139 339.776 578.758 337.656 578.013 335.713L576.145 336.428ZM577.079 341.93C577.026 343.872 576.589 345.713 575.843 347.382L577.669 348.198C578.52 346.294 579.018 344.195 579.079 341.984L577.079 341.93ZM567.883 354.937C566.178 355.595 564.317 355.936 562.374 355.888L562.324 357.888C564.535 357.942 566.657 357.554 568.603 356.803L567.883 354.937ZM562.374 355.888L558.16 355.785L558.11 357.784L562.324 357.888L562.374 355.888ZM549.731 355.577L541.303 355.369L541.254 357.368L549.682 357.576L549.731 355.577ZM532.875 355.161L524.447 354.954L524.398 356.953L532.826 357.161L532.875 355.161ZM516.019 354.746L507.59 354.538L507.541 356.538L515.969 356.745L516.019 354.746ZM499.162 354.33L494.948 354.227L494.899 356.226L499.113 356.33L499.162 354.33Z" fill="#1F1F1F" mask="url(#path-70-inside-3_180_3813)"/>
<path d="M654.648 417.416L654.64 417.427L654.632 417.439L652.26 420.912L652.673 421.194L647.929 428.142L647.516 427.86L642.772 434.807L643.185 435.089L638.441 442.037L638.028 441.755L633.284 448.702L633.697 448.984L628.953 455.931L628.54 455.649L623.797 462.597L624.209 462.879L619.466 469.826L619.053 469.544L616.841 472.783L612.43 472.504L612.398 473.003L603.007 472.408L603.038 471.909L593.647 471.315L593.615 471.814L584.224 471.219L584.256 470.72L574.864 470.125L574.833 470.624L565.441 470.03L565.473 469.531L556.082 468.936L556.05 469.435L546.659 468.841L546.69 468.342L537.299 467.747L537.267 468.246L527.876 467.652L527.908 467.153L518.516 466.558L518.485 467.057L509.094 466.462L509.125 465.963L499.734 465.369L499.702 465.868L490.311 465.273L490.343 464.774L486.601 464.537L488.658 461.94L488.266 461.63L493.568 454.937L493.96 455.247L499.262 448.554L498.87 448.244L504.172 441.551L504.564 441.861L509.866 435.168L509.474 434.858L514.776 428.165L515.168 428.475L520.47 421.782L520.078 421.472L525.38 414.779L525.772 415.089L531.074 408.396L530.682 408.086L535.984 401.393L536.375 401.703L541.677 395.01L541.285 394.7L546.587 388.007L546.979 388.317L552.281 381.624L551.889 381.314L557.191 374.621L557.583 374.931L562.885 368.238L562.493 367.928L567.795 361.235L568.187 361.546L570.838 358.199C571.677 357.14 572.552 356.121 573.461 355.144L573.094 354.804C574.957 352.8 576.959 350.969 579.074 349.313L579.382 349.706C581.507 348.043 583.748 346.559 586.081 345.256L585.837 344.82C588.209 343.496 590.674 342.358 593.207 341.411L593.383 341.879C595.898 340.939 598.482 340.187 601.108 339.629L601.004 339.14C603.652 338.576 606.342 338.207 609.049 338.036L609.081 338.535C611.755 338.366 614.446 338.391 617.128 338.615L617.17 338.117C619.86 338.341 622.542 338.763 625.19 339.387L625.076 339.873C627.674 340.485 630.239 341.292 632.747 342.297L632.933 341.833C635.425 342.831 637.861 344.024 640.22 345.415L639.966 345.845C641.115 346.523 642.246 347.248 643.355 348.021C644.721 348.973 646.024 349.975 647.263 351.024L647.586 350.642C650.171 352.831 652.482 355.219 654.513 357.765L654.122 358.077C656.198 360.68 657.978 363.45 659.454 366.338L659.899 366.111C661.42 369.088 662.622 372.191 663.495 375.37L663.013 375.502C663.885 378.676 664.426 381.925 664.629 385.198L665.128 385.167C665.332 388.467 665.196 391.792 664.712 395.091L664.217 395.018C663.744 398.234 662.936 401.424 661.786 404.541L662.255 404.714C661.126 407.772 659.67 410.76 657.88 413.633L657.456 413.369C656.598 414.746 655.663 416.097 654.648 417.416Z" fill="white" stroke="#1F1F1F" stroke-dasharray="9 9"/>
<path d="M601.698 303.12L592.421 302.148L592.489 301.66L587.851 301.174C586.531 301.035 585.26 300.797 584.043 300.47L583.895 300.943C581.277 300.238 578.901 299.126 576.813 297.697L577.113 297.293C574.996 295.845 573.179 294.065 571.713 292.052L571.295 292.342C569.785 290.268 568.64 287.952 567.912 285.501L568.401 285.354C567.695 282.975 567.39 280.467 567.536 277.928L567.029 277.913C567.172 275.409 567.745 272.876 568.793 270.405L569.262 270.581C569.749 269.433 570.34 268.298 571.042 267.186C572.018 265.639 573.14 264.247 574.378 263.012L574.017 262.675C576.684 260.014 579.878 258.067 583.3 256.869L583.462 257.331C586.883 256.133 590.537 255.7 594.115 256.069L594.181 255.58C597.761 255.948 601.264 257.102 604.395 259.076L604.109 259.49C605.562 260.406 606.933 261.503 608.191 262.785L611.37 266.024L611.743 265.681L618.102 272.16L617.729 272.503L624.088 278.982L624.461 278.638L630.82 285.117L630.447 285.46L633.627 288.7C634.367 289.454 634.956 290.305 635.39 291.215L635.852 291C636.787 292.961 637.036 295.183 636.562 297.327L636.065 297.236C635.845 298.231 635.461 299.209 634.908 300.131C634.403 300.974 633.783 301.727 633.076 302.377L633.421 302.729C631.902 304.123 630 305.066 627.959 305.435L627.878 304.952C626.927 305.124 625.944 305.165 624.957 305.062L620.318 304.576L620.251 305.065L610.974 304.093L611.042 303.604L601.765 302.632L601.698 303.12Z" fill="white" stroke="#1F1F1F" stroke-dasharray="9 9"/>
<path d="M604.464 332.446L604.552 331.954L595.647 330.525L595.559 331.017L586.654 329.587L586.742 329.095L577.837 327.666L577.749 328.158L568.844 326.729L568.932 326.237L560.027 324.808L559.939 325.3L555.98 324.664L555.259 328.699L554.765 328.62L553.146 337.674L553.64 337.753L552.021 346.807L551.527 346.728L549.908 355.781L550.402 355.861L549.68 359.895L553.639 360.531L553.551 361.023L562.456 362.452L562.544 361.96L571.449 363.389L571.361 363.881L580.266 365.311L580.354 364.818L589.259 366.248L589.171 366.74L598.076 368.169L598.164 367.677L602.617 368.392C603.798 368.581 604.971 368.651 606.126 368.61L606.135 369.108C608.602 369.02 610.984 368.441 613.166 367.453L612.964 367C615.121 366.023 617.076 364.636 618.71 362.921L619.071 363.261C620.723 361.528 622.055 359.47 622.952 357.17L622.484 356.996C622.904 355.92 623.225 354.789 623.436 353.612C623.646 352.435 623.736 351.267 623.714 350.119L624.215 350.102C624.169 347.65 623.626 345.291 622.669 343.139L622.21 343.347C621.263 341.219 619.9 339.298 618.203 337.703L618.551 337.338C616.835 335.725 614.786 334.434 612.488 333.582L612.306 334.049C611.23 333.651 610.097 333.35 608.917 333.161L604.464 332.446Z" fill="white" stroke="#1F1F1F" stroke-dasharray="9 9"/>
<path d="M471.601 592.171L471.785 592.104L471.87 591.932L473.511 588.62L473.055 588.395L476.335 581.772L476.792 581.997L480.072 575.373L479.616 575.148L482.897 568.525L483.353 568.75L486.634 562.126L486.178 561.901L489.459 555.278L489.915 555.503L491.556 552.191L491.56 552.181L493.164 548.752L492.703 548.537L495.912 541.678L496.372 541.893L499.581 535.035L499.12 534.819L502.328 527.961L502.789 528.176L505.997 521.318L505.536 521.102L508.744 514.243L509.205 514.459L510.66 511.349L515.265 511.918L515.315 511.428L525.249 512.655L525.199 513.146L535.133 514.373L535.183 513.883L545.117 515.11L545.066 515.601L555 516.828L555.05 516.338L564.984 517.565L564.934 518.056L574.867 519.283L574.918 518.793L584.851 520.02L584.801 520.511L588.872 521.014L586.922 523.482L587.326 523.791L582.34 530.104L581.937 529.795L576.952 536.108L577.355 536.417L572.37 542.73L571.966 542.421L566.981 548.735L567.384 549.043L562.399 555.356L561.996 555.048L557.011 561.361L557.414 561.669L552.428 567.982L552.025 567.674L547.04 573.987L547.443 574.295L542.458 580.609L542.055 580.3L539.562 583.457L539.553 583.467L539.545 583.479L537.125 586.941L537.545 587.227L532.703 594.151L532.283 593.864L527.442 600.788L527.862 601.075L523.02 607.998L522.601 607.712L517.759 614.636L518.179 614.922L513.338 621.846L512.918 621.56L510.584 624.897L506.673 626.321L506.86 626.785L498.746 629.739L498.559 629.275L490.445 632.229L490.632 632.692L482.518 635.646L482.331 635.183L474.217 638.136L474.404 638.6L466.29 641.554L466.103 641.09L457.989 644.044L458.176 644.508L450.062 647.462L449.875 646.998L445.818 648.475L445.811 648.478L441.778 650.014L441.973 650.476L433.908 653.549L433.713 653.088L425.648 656.162L425.843 656.623L417.778 659.696L417.583 659.235L409.518 662.309L409.713 662.77L401.648 665.844L401.453 665.382L393.388 668.456L393.583 668.917L385.518 671.991L385.323 671.53L381.807 672.87L380.835 669.707L380.351 669.838L378.084 662.458L378.568 662.327L376.3 654.947L375.816 655.078L373.549 647.698L374.033 647.567L371.765 640.187L371.281 640.318L369.014 632.938L369.498 632.807L368.498 629.555L372.381 628.148L372.194 627.684L380.822 624.555L381.009 625.019L389.636 621.891L389.45 621.427L398.077 618.298L398.264 618.762L406.892 615.634L406.705 615.17L415.333 612.042L415.52 612.506L424.148 609.377L423.961 608.913L432.589 605.785L432.776 606.249L441.403 603.12L441.217 602.656L449.844 599.528L450.031 599.992L458.659 596.864L458.472 596.399L467.1 593.271L467.287 593.735L471.601 592.171Z" fill="white" stroke="#1F1F1F" stroke-dasharray="9 9"/>
<path d="M371.049 704.742C367.381 704.247 364.005 702.329 361.702 699.431L362.095 699.131C361.025 697.784 360.195 696.217 359.69 694.477L358.596 690.709L358.112 690.835L355.924 683.298L356.408 683.172L354.22 675.635L353.736 675.761L351.549 668.225L352.032 668.098L349.844 660.562L349.361 660.688L347.173 653.151L347.657 653.025L346.563 649.256C346.052 647.498 345.918 645.73 346.113 644.036L345.613 643.968C346.032 640.324 347.918 637.005 350.834 634.779L351.148 635.174C352.504 634.139 354.091 633.349 355.863 632.888L359.179 632.024L359.039 631.543L365.671 629.816L365.81 630.296L368.642 629.558L369.922 633.966L370.406 633.84L373.244 643.618L372.76 643.744L375.599 653.522L376.083 653.396L378.921 663.173L378.437 663.299L381.276 673.077L381.759 672.951L384.598 682.729L384.114 682.855L385.533 687.744C386.038 689.483 386.171 691.232 385.978 692.908L386.478 692.975C386.063 696.581 384.197 699.865 381.312 702.068L380.998 701.672C379.657 702.696 378.087 703.477 376.334 703.934C374.581 704.391 372.811 704.48 371.106 704.25L371.049 704.742Z" fill="white" stroke="#1F1F1F" stroke-dasharray="9 9"/>
<mask id="path-77-inside-4_180_3813" fill="white">
<path fill-rule="evenodd" clip-rule="evenodd" d="M654.627 487.163L654.474 486.339C654.474 486.339 632.169 483.315 603.418 480.711C557.809 476.579 484.626 472.366 484.626 472.366L484.618 479.868C484.589 507.236 505.471 529.968 532.763 532.278L586.664 536.84L642.897 541.599L684.071 566.002L770.04 610.828L790.163 584.423L654.627 487.163Z"/>
</mask>
<path fill-rule="evenodd" clip-rule="evenodd" d="M654.627 487.163L654.474 486.339C654.474 486.339 632.169 483.315 603.418 480.711C557.809 476.579 484.626 472.366 484.626 472.366L484.618 479.868C484.589 507.236 505.471 529.968 532.763 532.278L586.664 536.84L642.897 541.599L684.071 566.002L770.04 610.828L790.163 584.423L654.627 487.163Z" fill="white"/>
<path d="M654.627 487.163L654.134 487.258L654.171 487.454L654.332 487.57L654.627 487.163ZM654.474 486.339L654.967 486.244L654.902 485.892L654.546 485.844L654.474 486.339ZM603.418 480.711L603.368 481.208L603.418 480.711ZM484.626 472.366L484.66 471.868L484.126 471.837L484.126 472.371L484.626 472.366ZM484.618 479.868L484.118 479.872L484.618 479.868ZM532.763 532.278L532.716 532.776L532.763 532.278ZM586.664 536.84L586.618 537.338L586.618 537.338L586.664 536.84ZM642.897 541.599L643.155 541.169L643.057 541.111L642.944 541.102L642.897 541.599ZM684.071 566.002L683.813 566.432L683.825 566.439L683.836 566.445L684.071 566.002ZM770.04 610.828L769.805 611.271L770.179 611.466L770.437 611.128L770.04 610.828ZM790.163 584.423L790.561 584.723L790.872 584.314L790.458 584.016L790.163 584.423ZM655.119 487.068L655.081 486.862L654.096 487.052L654.134 487.258L655.119 487.068ZM655.005 486.45L654.967 486.244L653.982 486.434L654.02 486.64L655.005 486.45ZM654.474 486.339C654.546 485.844 654.546 485.844 654.546 485.844C654.546 485.844 654.546 485.844 654.546 485.844C654.546 485.844 654.546 485.844 654.546 485.844C654.546 485.844 654.546 485.844 654.545 485.844C654.544 485.844 654.543 485.844 654.542 485.843C654.539 485.843 654.534 485.842 654.529 485.842C654.517 485.84 654.499 485.838 654.476 485.834C654.429 485.828 654.36 485.819 654.268 485.807C654.084 485.782 653.81 485.746 653.452 485.698C652.734 485.604 651.675 485.466 650.31 485.292L650.174 486.283C651.538 486.457 652.595 486.595 653.312 486.689C653.67 486.736 653.943 486.772 654.126 486.797C654.218 486.809 654.287 486.818 654.333 486.825C654.356 486.828 654.374 486.83 654.385 486.832C654.391 486.833 654.395 486.833 654.398 486.833C654.4 486.834 654.401 486.834 654.402 486.834C654.402 486.834 654.402 486.834 654.402 486.834C654.402 486.834 654.402 486.834 654.403 486.834C654.403 486.834 654.403 486.834 654.403 486.834C654.403 486.834 654.403 486.834 654.474 486.339ZM641.805 484.245C639.276 483.942 636.424 483.609 633.3 483.256L633.178 484.249C636.3 484.602 639.15 484.935 641.677 485.237L641.805 484.245ZM624.785 482.32C622.07 482.03 619.221 481.734 616.26 481.436L616.15 482.431C619.109 482.728 621.957 483.024 624.67 483.314L624.785 482.32ZM607.737 480.607C606.332 480.475 604.908 480.344 603.467 480.213L603.368 481.208C604.807 481.339 606.23 481.47 607.634 481.602L607.737 480.607ZM603.467 480.213C602.08 480.088 600.668 479.962 599.232 479.836L599.135 480.831C600.57 480.957 601.981 481.083 603.368 481.208L603.467 480.213ZM590.761 479.116C587.987 478.886 585.155 478.658 582.283 478.431L582.195 479.427C585.066 479.654 587.897 479.882 590.669 480.111L590.761 479.116ZM573.797 477.774C570.984 477.56 568.149 477.349 565.308 477.14L565.226 478.137C568.066 478.345 570.899 478.556 573.711 478.77L573.797 477.774ZM556.822 476.526C553.977 476.324 551.141 476.124 548.331 475.929L548.252 476.926C551.062 477.121 553.897 477.32 556.741 477.523L556.822 476.526ZM539.842 475.348C536.964 475.153 534.13 474.964 531.359 474.78L531.284 475.777C534.054 475.961 536.887 476.15 539.765 476.345L539.842 475.348ZM522.867 474.225C519.926 474.034 517.088 473.852 514.377 473.681L514.304 474.678C517.014 474.85 519.852 475.031 522.793 475.222L522.867 474.225ZM505.874 473.147C502.761 472.954 499.91 472.779 497.378 472.625L497.307 473.622C499.839 473.776 502.689 473.951 505.802 474.144L505.874 473.147ZM488.865 472.114C487.512 472.034 486.461 471.972 485.748 471.931C485.391 471.91 485.119 471.894 484.936 471.884C484.845 471.878 484.776 471.874 484.729 471.872C484.706 471.87 484.689 471.869 484.677 471.869C484.671 471.868 484.667 471.868 484.664 471.868C484.663 471.868 484.662 471.868 484.661 471.868C484.66 471.868 484.66 471.868 484.66 471.868C484.66 471.868 484.66 471.868 484.66 471.868C484.66 471.868 484.66 471.868 484.66 471.868C484.66 471.868 484.66 471.868 484.626 472.366C484.593 472.865 484.593 472.865 484.593 472.865C484.593 472.865 484.593 472.865 484.593 472.865C484.593 472.865 484.593 472.865 484.593 472.865C484.593 472.865 484.593 472.865 484.594 472.865C484.594 472.865 484.596 472.865 484.597 472.865C484.6 472.865 484.604 472.866 484.61 472.866C484.622 472.867 484.639 472.868 484.662 472.869C484.709 472.872 484.778 472.876 484.869 472.881C485.052 472.892 485.324 472.907 485.68 472.928C486.393 472.97 487.444 473.031 488.796 473.111L488.865 472.114ZM484.126 472.371L484.124 474.246L485.125 474.238L485.127 472.362L484.126 472.371ZM484.12 477.997L484.118 479.872L485.119 479.864L485.121 477.988L484.12 477.997ZM484.118 479.872C484.116 481.536 484.191 483.182 484.339 484.809L485.336 484.709C485.19 483.113 485.117 481.497 485.119 479.864L484.118 479.872ZM486.142 494.503C487.05 497.693 488.249 500.763 489.71 503.681L490.606 503.228C489.172 500.364 487.996 497.352 487.105 494.222L486.142 494.503ZM494.915 512.032C496.904 514.647 499.132 517.073 501.57 519.277L502.245 518.533C499.853 516.37 497.666 513.989 495.714 511.423L494.915 512.032ZM509.451 525.172C512.236 526.876 515.195 528.333 518.298 529.51L518.661 528.575C515.616 527.42 512.713 525.991 509.98 524.319L509.451 525.172ZM527.812 532.133C529.421 532.42 531.057 532.635 532.716 532.776L532.81 531.78C531.181 531.642 529.575 531.431 527.996 531.15L527.812 532.133ZM532.716 532.776L537.208 533.156L537.302 532.16L532.81 531.78L532.716 532.776ZM546.191 533.916L555.175 534.677L555.269 533.681L546.285 532.921L546.191 533.916ZM564.159 535.437L573.142 536.197L573.236 535.202L564.252 534.441L564.159 535.437ZM582.126 536.958L586.618 537.338L586.711 536.342L582.22 535.962L582.126 536.958ZM586.618 537.338L591.304 537.735L591.397 536.739L586.711 536.342L586.618 537.338ZM600.676 538.528L610.048 539.321L610.141 538.325L600.769 537.532L600.676 538.528ZM619.42 540.114L628.792 540.907L628.885 539.912L619.513 539.119L619.42 540.114ZM638.164 541.701L642.85 542.097L642.944 541.102L638.258 540.705L638.164 541.701ZM642.638 542.03L646.069 544.063L646.586 543.203L643.155 541.169L642.638 542.03ZM652.932 548.13L659.794 552.197L660.311 551.337L653.449 547.27L652.932 548.13ZM666.657 556.264L673.519 560.331L674.036 559.471L667.174 555.404L666.657 556.264ZM680.382 564.398L683.813 566.432L684.33 565.571L680.899 563.538L680.382 564.398ZM683.836 566.445L688.135 568.686L688.605 567.8L684.306 565.558L683.836 566.445ZM696.732 573.169L705.329 577.651L705.798 576.765L697.202 572.282L696.732 573.169ZM713.925 582.134L722.522 586.617L722.992 585.73L714.395 581.247L713.925 582.134ZM731.119 591.099L739.716 595.582L740.186 594.695L731.589 590.213L731.119 591.099ZM748.313 600.064L756.91 604.547L757.379 603.66L748.783 599.178L748.313 600.064ZM765.506 609.03L769.805 611.271L770.275 610.384L765.976 608.143L765.506 609.03ZM770.437 611.128L772.952 607.827L772.158 607.227L769.643 610.527L770.437 611.128ZM777.983 601.226L783.014 594.625L782.22 594.024L777.189 600.626L777.983 601.226ZM788.045 588.023L790.561 584.723L789.766 584.123L787.251 587.423L788.045 588.023ZM790.458 584.016L786.693 581.314L786.104 582.128L789.869 584.829L790.458 584.016ZM779.163 575.911L771.633 570.508L771.044 571.321L778.574 576.724L779.163 575.911ZM764.104 565.105L756.574 559.701L755.985 560.514L763.514 565.918L764.104 565.105ZM749.044 554.298L741.514 548.895L740.925 549.708L748.455 555.111L749.044 554.298ZM733.984 543.491L726.454 538.088L725.865 538.901L733.395 544.305L733.984 543.491ZM718.925 532.685L711.395 527.281L710.806 528.095L718.335 533.498L718.925 532.685ZM703.865 521.878L696.335 516.475L695.746 517.288L703.276 522.691L703.865 521.878ZM688.805 511.072L681.276 505.668L680.686 506.481L688.216 511.885L688.805 511.072ZM673.746 500.265L666.216 494.862L665.627 495.675L673.157 501.078L673.746 500.265ZM658.686 489.458L654.921 486.757L654.332 487.57L658.097 490.271L658.686 489.458ZM654.627 487.163L653.642 487.353L653.715 487.745L654.037 487.976L654.627 487.163ZM654.474 486.339L655.459 486.149L655.329 485.445L654.618 485.349L654.474 486.339ZM603.418 480.711L603.318 481.706L603.418 480.711ZM484.626 472.366L484.693 471.369L483.626 471.307L483.625 472.375L484.626 472.366ZM484.618 479.868L483.617 479.876L484.618 479.868ZM532.763 532.278L532.669 533.274L532.763 532.278ZM586.664 536.84L586.571 537.836L586.664 536.84ZM642.897 541.599L643.413 540.739L643.218 540.623L642.99 540.604L642.897 541.599ZM684.071 566.002L683.555 566.862L683.578 566.876L683.602 566.888L684.071 566.002ZM770.04 610.828L769.57 611.714L770.318 612.104L770.834 611.428L770.04 610.828ZM790.163 584.423L790.958 585.023L791.582 584.204L790.753 583.61L790.163 584.423ZM655.611 486.973L655.573 486.767L653.604 487.147L653.642 487.353L655.611 486.973ZM655.497 486.355L655.459 486.149L653.49 486.529L653.528 486.735L655.497 486.355ZM654.474 486.339C654.618 485.349 654.618 485.349 654.618 485.349C654.618 485.349 654.618 485.349 654.618 485.349C654.618 485.349 654.618 485.349 654.618 485.349C654.618 485.349 654.617 485.349 654.617 485.349C654.616 485.349 654.615 485.349 654.614 485.348C654.611 485.348 654.606 485.347 654.6 485.346C654.588 485.345 654.571 485.343 654.547 485.339C654.501 485.333 654.431 485.324 654.339 485.311C654.155 485.287 653.881 485.25 653.522 485.203C652.803 485.109 651.744 484.971 650.377 484.797L650.106 486.779C651.469 486.953 652.526 487.09 653.242 487.184C653.599 487.231 653.872 487.268 654.055 487.292C654.146 487.304 654.216 487.314 654.262 487.32C654.285 487.323 654.302 487.325 654.314 487.327C654.319 487.328 654.324 487.328 654.327 487.329C654.328 487.329 654.329 487.329 654.33 487.329C654.33 487.329 654.33 487.329 654.33 487.329C654.331 487.329 654.331 487.329 654.331 487.329C654.331 487.329 654.331 487.329 654.331 487.329C654.331 487.329 654.331 487.329 654.474 486.339ZM641.869 483.749C639.339 483.446 636.486 483.113 633.361 482.76L633.118 484.745C636.238 485.098 639.087 485.431 641.613 485.733L641.869 483.749ZM624.843 481.823C622.127 481.533 619.277 481.237 616.314 480.939L616.095 482.928C619.053 483.225 621.9 483.521 624.612 483.81L624.843 481.823ZM607.789 480.11C606.383 479.978 604.958 479.846 603.517 479.716L603.318 481.706C604.756 481.836 606.179 481.968 607.583 482.1L607.789 480.11ZM603.517 479.716C602.13 479.59 600.716 479.464 599.281 479.338L599.087 481.329C600.521 481.455 601.932 481.58 603.318 481.706L603.517 479.716ZM590.807 478.618C588.032 478.388 585.2 478.16 582.327 477.933L582.15 479.925C585.021 480.152 587.851 480.38 590.623 480.609L590.807 478.618ZM573.839 477.276C571.026 477.062 568.191 476.85 565.35 476.642L565.184 478.635C568.024 478.843 570.857 479.055 573.669 479.268L573.839 477.276ZM556.862 476.028C554.017 475.825 551.181 475.626 548.37 475.431L548.212 477.425C551.022 477.619 553.857 477.819 556.701 478.021L556.862 476.028ZM539.88 474.849C537.002 474.655 534.168 474.465 531.397 474.282L531.246 476.276C534.016 476.459 536.849 476.648 539.726 476.843L539.88 474.849ZM522.904 473.726C519.963 473.536 517.124 473.354 514.413 473.182L514.268 475.176C516.978 475.348 519.815 475.53 522.756 475.72L522.904 473.726ZM505.91 472.648C502.796 472.455 499.945 472.28 497.413 472.126L497.272 474.121C499.804 474.275 502.654 474.45 505.767 474.643L505.91 472.648ZM488.899 471.615C487.547 471.535 486.495 471.474 485.782 471.432C485.425 471.411 485.153 471.395 484.97 471.385C484.879 471.38 484.809 471.376 484.763 471.373C484.74 471.372 484.722 471.371 484.711 471.37C484.705 471.37 484.701 471.369 484.698 471.369C484.696 471.369 484.695 471.369 484.694 471.369C484.694 471.369 484.694 471.369 484.693 471.369C484.693 471.369 484.693 471.369 484.693 471.369C484.693 471.369 484.693 471.369 484.693 471.369C484.693 471.369 484.693 471.369 484.626 472.366C484.559 473.364 484.559 473.364 484.559 473.364C484.559 473.364 484.559 473.364 484.559 473.364C484.559 473.364 484.559 473.364 484.559 473.364C484.56 473.364 484.56 473.364 484.56 473.364C484.561 473.364 484.562 473.364 484.564 473.364C484.566 473.364 484.571 473.364 484.577 473.365C484.588 473.365 484.606 473.367 484.629 473.368C484.675 473.371 484.744 473.375 484.835 473.38C485.018 473.39 485.29 473.406 485.646 473.427C486.359 473.469 487.41 473.53 488.762 473.61L488.899 471.615ZM483.625 472.375L483.623 474.25L485.625 474.233L485.627 472.358L483.625 472.375ZM483.619 478.001L483.617 479.876L485.619 479.859L485.621 477.984L483.619 478.001ZM483.617 479.876C483.616 481.555 483.691 483.217 483.841 484.859L485.834 484.659C485.69 483.078 485.617 481.477 485.619 479.859L483.617 479.876ZM485.66 494.644C486.577 497.864 487.787 500.963 489.262 503.908L491.054 503.001C489.634 500.165 488.469 497.181 487.586 494.081L485.66 494.644ZM494.515 512.336C496.523 514.975 498.772 517.424 501.232 519.648L502.583 518.162C500.214 516.019 498.047 513.66 496.113 511.118L494.515 512.336ZM509.187 525.599C511.997 527.319 514.984 528.789 518.117 529.977L518.843 528.108C515.827 526.964 512.951 525.549 510.244 523.892L509.187 525.599ZM527.719 532.625C529.343 532.915 530.994 533.132 532.669 533.274L532.857 531.282C531.243 531.146 529.653 530.937 528.089 530.658L527.719 532.625ZM532.669 533.274L537.161 533.654L537.348 531.663L532.857 531.282L532.669 533.274ZM546.144 534.414L555.128 535.174L555.316 533.183L546.332 532.423L546.144 534.414ZM564.112 535.935L573.095 536.695L573.283 534.704L564.299 533.944L564.112 535.935ZM582.079 537.456L586.571 537.836L586.758 535.845L582.267 535.464L582.079 537.456ZM586.571 537.836L591.257 538.232L591.444 536.241L586.758 535.845L586.571 537.836ZM600.629 539.026L610.001 539.819L610.188 537.828L600.816 537.034L600.629 539.026ZM619.373 540.612L628.745 541.405L628.932 539.414L619.56 538.621L619.373 540.612ZM638.117 542.198L642.803 542.595L642.99 540.604L638.304 540.207L638.117 542.198ZM642.38 542.46L645.811 544.493L646.845 542.772L643.413 540.739L642.38 542.46ZM652.673 548.56L659.536 552.627L660.57 550.907L653.707 546.84L652.673 548.56ZM666.398 556.694L673.261 560.761L674.295 559.041L667.432 554.974L666.398 556.694ZM680.123 564.828L683.555 566.862L684.588 565.141L681.157 563.108L680.123 564.828ZM683.602 566.888L687.9 569.129L688.84 567.356L684.541 565.115L683.602 566.888ZM696.497 573.612L705.094 578.095L706.033 576.322L697.437 571.839L696.497 573.612ZM713.69 582.577L722.287 587.06L723.227 585.287L714.63 580.804L713.69 582.577ZM730.884 591.542L739.481 596.025L740.421 594.252L731.824 589.769L730.884 591.542ZM748.078 600.508L756.675 604.99L757.614 603.217L749.018 598.735L748.078 600.508ZM765.271 609.473L769.57 611.714L770.51 609.941L766.211 607.7L765.271 609.473ZM770.834 611.428L773.35 608.127L771.761 606.927L769.245 610.227L770.834 611.428ZM778.381 601.526L783.411 594.925L781.823 593.724L776.792 600.326L778.381 601.526ZM788.442 588.324L790.958 585.023L789.369 583.823L786.853 587.123L788.442 588.324ZM790.753 583.61L786.988 580.908L785.809 582.534L789.574 585.236L790.753 583.61ZM779.458 575.505L771.928 570.101L770.75 571.728L778.279 577.131L779.458 575.505ZM764.398 564.698L756.868 559.295L755.69 560.921L763.22 566.324L764.398 564.698ZM749.339 553.891L741.809 548.488L740.63 550.114L748.16 555.518L749.339 553.891ZM734.279 543.085L726.749 537.681L725.571 539.308L733.1 544.711L734.279 543.085ZM719.219 532.278L711.689 526.875L710.511 528.501L718.041 533.905L719.219 532.278ZM704.16 521.472L696.63 516.068L695.451 517.695L702.981 523.098L704.16 521.472ZM689.1 510.665L681.57 505.262L680.392 506.888L687.922 512.291L689.1 510.665ZM674.04 499.858L666.511 494.455L665.332 496.081L672.862 501.485L674.04 499.858ZM658.981 489.052L655.216 486.35L654.037 487.976L657.802 490.678L658.981 489.052Z" fill="#1F1F1F" mask="url(#path-77-inside-4_180_3813)"/>
<path d="M480.752 325.036L425.441 337.677" stroke="#1F1F1F"/>
<path d="M479.167 326.573L502.518 279.164" stroke="#1F1F1F"/>
<ellipse rx="5.25232" ry="5.26059" transform="matrix(-0.715843 0.698262 0.735864 0.67713 504.746 274.872)" fill="#FFB800"/>
<ellipse rx="5.25232" ry="5.26059" transform="matrix(-0.715843 0.698262 0.735864 0.67713 425.441 338.102)" fill="#FFB800"/>
<ellipse rx="5.32194" ry="5.33031" transform="matrix(-0.715843 0.698262 0.735864 0.67713 479.945 325.348)" fill="#FFB800"/>
<path d="M438.338 303.126L448.858 290.293L456.89 296.388L455.449 298.145L464.329 301.617L472.722 318.396L453.866 314.91L448.053 307.168L446.37 309.221L438.338 303.126Z" fill="white"/>
<path d="M455.449 298.145L456.89 296.388L448.858 290.293L438.338 303.126L446.37 309.221L448.053 307.168M455.449 298.145L464.329 301.617L472.722 318.396M455.449 298.145L448.053 307.168M472.722 318.396L453.866 314.91L448.053 307.168M472.722 318.396L461.478 309.862" stroke="#1F1F1F"/>
</g>
<path d="M730.059 732.207C700.026 732.207 675.592 756.513 675.592 786.39H676.562C676.562 757.045 700.561 733.171 730.059 733.171C748.188 733.171 762.935 747.843 762.935 765.876C762.935 776.921 753.902 785.907 742.8 785.907C736.042 785.907 730.544 780.438 730.544 773.717C730.544 769.66 733.862 766.36 737.94 766.36C740.352 766.36 742.314 768.311 742.314 770.71C742.314 772.102 741.176 773.234 739.777 773.234C739.031 773.234 738.426 772.632 738.426 771.891H737.455C737.455 773.164 738.497 774.2 739.777 774.2C741.711 774.2 743.285 772.634 743.285 770.71C743.285 767.779 740.887 765.394 737.94 765.394C733.327 765.394 729.574 769.127 729.574 773.717C729.574 780.971 735.506 786.873 742.8 786.873C754.438 786.873 763.906 777.454 763.906 765.876C763.906 747.311 748.722 732.207 730.059 732.207Z" fill="#1F1F1F"/>
<path d="M730.059 732.207C700.026 732.207 675.592 756.513 675.592 786.39H676.562C676.562 757.045 700.561 733.171 730.059 733.171C748.188 733.171 762.935 747.843 762.935 765.876C762.935 776.921 753.902 785.907 742.8 785.907C736.042 785.907 730.544 780.438 730.544 773.717C730.544 769.66 733.862 766.36 737.94 766.36C740.352 766.36 742.314 768.311 742.314 770.71C742.314 772.102 741.176 773.234 739.777 773.234C739.031 773.234 738.426 772.632 738.426 771.891H737.455C737.455 773.164 738.497 774.2 739.777 774.2C741.711 774.2 743.285 772.634 743.285 770.71C743.285 767.779 740.887 765.394 737.94 765.394C733.327 765.394 729.574 769.127 729.574 773.717C729.574 780.971 735.506 786.873 742.8 786.873C754.438 786.873 763.906 777.454 763.906 765.876C763.906 747.311 748.722 732.207 730.059 732.207Z" stroke="#FAFAFA"/>
</svg>
