<svg width="736" height="464" viewBox="0 0 736 464" fill="none" xmlns="http://www.w3.org/2000/svg">
<rect width="126.432" height="38.5217" transform="matrix(-1 0 0 1 333.391 364.73)" fill="#F5F5F5"/>
<rect width="423.32" height="238.952" transform="matrix(-1 0 0 1 613.613 0)" fill="#FAFAFA"/>
<ellipse rx="5.3415" ry="5.33971" transform="matrix(-1 0 0 1 239.354 21.3592)" fill="#DD3B41"/>
<ellipse rx="5.3415" ry="5.33971" transform="matrix(-1 0 0 1 223.33 21.3592)" fill="#FFB800"/>
<ellipse rx="5.3415" ry="5.33971" transform="matrix(-1 0 0 1 207.299 21.3592)" fill="#169F32"/>
<rect width="68.986" height="12.9971" transform="matrix(-1 0 0 1 340.504 109.049)" fill="#EBEBEB"/>
<rect width="17.9961" height="17.9961" transform="matrix(-1 0 0 1 276.523 201.029)" fill="#43BE5C"/>
<path d="M320.014 147.043L309.516 165.039H330.512L320.014 147.043Z" fill="#D7D7D7"/>
<circle r="8.99803" transform="matrix(-1 0 0 1 280.522 156.041)" fill="#D7D7D7"/>
<circle r="8.99803" transform="matrix(-1 0 0 1 280.522 54.0605)" fill="#CD2026"/>
<rect width="22.0225" height="62.3501" rx="11.0113" transform="matrix(-0.346009 -0.938231 -0.938235 0.345999 151.246 232.662)" fill="#A6672E"/>
<path d="M75.844 233.781C68.8777 236.261 65.2411 243.919 67.7213 250.885V250.885C70.2016 257.851 77.8594 261.488 84.8257 259.008L112.795 249.05L103.813 223.823L75.844 233.781Z" fill="#EDAB00"/>
<rect width="22.4058" height="74.8896" rx="11.2029" transform="matrix(-0.680757 -0.732509 -0.73252 0.680745 194.086 190.164)" fill="#A6672E"/>
<path d="M105.941 344.082H24.4413V346.725C24.4413 351.695 28.4707 355.725 33.4413 355.725H96.9414C101.912 355.725 105.941 351.695 105.941 346.725V344.082Z" fill="#A6672E"/>
<path d="M0.000991821 256.762C0.5047 264.599 2.49435 283.255 6.42327 295.183H57.4237C58.683 289.829 61.0504 274.651 60.4459 256.762C51.0014 256.763 21.9123 256.764 0.000991821 256.762Z" fill="#E1B48B"/>
<path d="M111.766 461.673H105.944L73.3448 355.725H86.1517L111.766 461.673Z" fill="#E1B48B"/>
<path d="M19.793 461.673H25.6143L58.2138 355.725H45.4069L19.793 461.673Z" fill="#E1B48B"/>
<path d="M138.898 319.193C138.096 307.434 127.912 298.551 116.153 299.353L28.4417 305.336V305.336C30.0462 328.856 50.4131 346.621 73.9325 345.017L119.058 341.939C130.817 341.136 139.7 330.953 138.898 319.193V319.193Z" fill="#414141"/>
<path d="M160.498 445.412L131.974 445.412L102.007 323.867C99.8988 315.315 104.126 306.464 112.104 302.728C122.875 297.685 135.536 303.994 137.995 315.631L142.04 334.768L160.498 445.412Z" fill="#414141"/>
<path d="M73.3235 428.193L101.11 444.434L137.64 324.783C141.089 313.486 133.175 301.903 121.396 301.011C112.463 300.334 104.336 306.175 102.13 314.857L73.3235 428.193Z" fill="#414141"/>
<path d="M181.625 455.851C181.625 451.35 177.976 447.701 173.475 447.701H132.726V450.665C132.726 458.03 138.697 464.001 146.062 464.001H173.475C177.976 464.001 181.625 460.352 181.625 455.851V455.851Z" fill="#1F1F1F"/>
<path d="M114.836 455.527C114.836 451.804 112.208 448.598 108.557 447.868L102.798 446.718C101.13 446.384 99.5304 445.769 98.0689 444.898L72.9168 429.914C69.4233 433.257 68.999 438.69 71.9311 442.535L83.0985 457.177C86.2222 461.273 91.0781 463.676 96.229 463.676H106.687C111.187 463.676 114.836 460.028 114.836 455.527Z" fill="#1F1F1F"/>
<path d="M86.0528 247.484C85.7345 231.075 72.1746 218.031 55.7657 218.35V218.35C39.3569 218.668 26.3129 232.228 26.6311 248.637L27.3896 287.743L86.8112 286.591L86.0528 247.484Z" fill="#FFB800"/>
<rect width="19.3796" height="89.6485" rx="9.68982" transform="matrix(0.760211 -0.649676 -0.649688 -0.760201 93.9102 359.521)" fill="#A6672E"/>
<rect width="22.2041" height="50.4751" rx="11.102" transform="matrix(0.996823 0.0796437 0.0796462 -0.996823 38.918 300.896)" fill="#A6672E"/>
<path d="M70.7554 241.324C72.1892 234.07 67.4708 227.027 60.2166 225.593V225.593C52.9623 224.159 45.9193 228.878 44.4854 236.132L38.7287 265.258L64.9987 270.45L70.7554 241.324Z" fill="#EDAB00"/>
<path d="M62.1562 159.098L31.495 170.171L41.2585 197.205C44.3164 205.672 53.659 210.057 62.1259 206.999V206.999C70.5928 203.941 74.9777 194.599 71.9198 186.132L62.1562 159.098Z" fill="#A6672E"/>
<path d="M41.7278 178.08L37.7237 178.836L41.6128 199.429C33.1239 188.986 21.8993 173.156 29.6586 164.364C34.0506 159.388 53.64 153.318 62.7163 148.05C64.3307 153.935 69.6213 162.03 63.9924 167.359C58.3636 172.687 47.448 177 41.7278 178.08Z" fill="#1F1F1F"/>
<path d="M74.0292 217.208L70.6439 223.691L43.1222 221.446L41.8197 210.918L74.0292 217.208Z" fill="#EDAB00"/>
<path d="M359.928 69.7891L357.316 82.6079L347.075 74.4672L353.313 85.9661L340.236 86.3128L352.406 91.1113L342.611 99.783L355.018 95.6359L353.089 108.575L359.928 97.4228L366.767 108.575L364.837 95.6359L377.245 99.783L367.45 91.1113L379.62 86.3128L366.542 85.9661L372.781 74.4672L362.54 82.6079L359.928 69.7891Z" fill="#FFB800"/>
<circle r="28.4071" transform="matrix(-1 0 0 1 485.007 144.782)" fill="#1F1F1F"/>
<path d="M538.93 442.352H489.838V456.999C489.838 460.589 492.748 463.499 496.338 463.499H538.93C544.77 463.499 549.504 458.765 549.504 452.926C549.504 447.086 544.77 442.352 538.93 442.352Z" fill="#EBEBEB" stroke="#D7D7D7"/>
<path d="M432.043 442.352H481.135V456.999C481.135 460.589 478.225 463.499 474.635 463.499H432.043C426.203 463.499 421.469 458.765 421.469 452.926C421.469 447.086 426.203 442.352 432.043 442.352Z" fill="#EBEBEB" stroke="#D7D7D7"/>
<rect x="457.055" y="192.389" width="24.3803" height="73.392" rx="12.1902" transform="rotate(112.376 457.055 192.389)" fill="#E1B48B"/>
<rect x="409.832" y="185.629" width="24.3803" height="76.4769" rx="12.1902" transform="rotate(156.421 409.832 185.629)" fill="#E1B48B"/>
<path d="M474.733 184.98C484.52 187.047 490.777 196.657 488.709 206.443V206.443C486.641 216.23 477.031 222.487 467.245 220.419L422.605 210.987L430.093 175.547L474.733 184.98Z" fill="#CD2026"/>
<rect width="24.3803" height="114.982" rx="12.1902" transform="matrix(-0.774193 0.63295 0.63295 0.774193 515.91 207.112)" fill="#E1B48B"/>
<path d="M511.721 192.37C505.39 184.626 493.98 183.481 486.236 189.812V189.812C478.492 196.143 477.347 207.553 483.678 215.297L512.557 250.62L540.6 227.693L511.721 192.37Z" fill="#CD2026"/>
<path d="M535.461 235.889L485.466 185.895L435.471 235.889L448.524 248.941C468.927 269.344 502.006 269.344 522.408 248.941L535.461 235.889Z" fill="#CD2026"/>
<mask id="mask0_309_4002" style="mask-type:alpha" maskUnits="userSpaceOnUse" x="456" y="116" width="58" height="58">
<circle r="28.4071" transform="matrix(-1 0 0 1 485.003 144.782)" fill="#1F1F1F"/>
</mask>
<g mask="url(#mask0_309_4002)">
<path d="M481.284 135.175L458.731 123.75L439.689 161.338L456.529 165.36C476.542 156.406 479.176 143.765 481.284 135.175Z" fill="#E1B48B"/>
</g>
<rect width="35" height="169" transform="matrix(-1 0 0 1 522 271)" fill="#570DB4"/>
<rect width="36" height="169" transform="matrix(-1 0 0 1 483 271)" fill="#570DB4"/>
<path d="M522.359 271.225H446.512V280.705C446.512 301.649 463.491 318.628 484.436 318.628V318.628C505.38 318.628 522.359 301.649 522.359 280.705V271.225Z" fill="#570DB4"/>
<path d="M601.542 368L635.827 392.787L622.732 432.892H580.352L567.257 392.787L601.542 368Z" fill="#EBEBEB"/>
<ellipse cx="660.971" cy="417.445" rx="24.3576" ry="24.2375" fill="#F5F5F5"/>
<rect width="33.1217" height="30.0588" transform="matrix(0.985965 0.166954 -0.168565 0.985691 570.562 422.291)" fill="#FAFAFA"/>
<rect x="596.668" y="412.596" width="46.7666" height="41.6886" fill="#F5F5F5"/>
<path d="M596.184 451.377C586.441 451.377 564.032 444.105 548.93 463.98L689.232 463.98V424.23C676.566 424.23 667.309 444.59 653.669 444.59C640.516 444.59 633.695 438.773 622.491 438.773C613.235 438.773 607.876 451.377 596.184 451.377Z" fill="#A26AE9"/>
<path d="M720.245 451.377C723.493 451.377 730.962 444.105 735.996 463.98H689.23V424.23C693.451 424.23 694.426 444.59 698.973 444.59C703.357 444.59 706.442 438.773 710.177 438.773C713.262 438.773 716.348 451.377 720.245 451.377Z" fill="#A26AE9"/>
<path d="M83.4847 40.334L101.441 58.2907L83.4847 76.2474L65.528 58.2907L83.4847 40.334Z" fill="#F5F5F5"/>
<path d="M64.9456 40.334L82.9023 58.2907L64.9456 76.2474L46.9889 58.2907L64.9456 40.334Z" fill="#43BE5C"/>
<circle cx="643.378" cy="87.2864" r="3.4993" fill="#43BE5C"/>
<circle cx="630.378" cy="303.243" r="3.4993" fill="#43BE5C"/>
<circle cx="187.959" cy="327.738" r="8.99819" fill="#FF842B"/>
<circle cx="171.464" cy="109.48" r="3.4993" fill="#DD3B41"/>
<circle cx="91.9797" cy="131.777" r="3.9992" fill="#FF842B"/>
<path d="M383.926 288.744L386.393 293.265L390.921 295.739L386.393 298.213L383.926 302.741L381.452 298.213L376.924 295.739L381.452 293.265L383.926 288.744Z" fill="#FFB800"/>
<path d="M715.866 240.754L718.333 245.274L722.86 247.749L718.333 250.223L715.866 254.751L713.391 250.223L708.863 247.749L713.391 245.274L715.866 240.754Z" fill="#FFB800"/>
<path d="M540.395 30.7969L541.276 32.4113L542.894 33.2951L541.276 34.1788L540.395 35.7959L539.512 34.1788L537.895 33.2951L539.512 32.4113L540.395 30.7969Z" fill="#FF842B"/>
<path d="M635.877 117.778L686.227 117.778L635.877 168.127L635.877 117.778Z" fill="#F5F5F5"/>
<path d="M651.31 152.688L670.793 152.688L670.793 133.206L651.31 133.206L651.31 152.688Z" fill="#FFB800"/>
<path d="M670.793 133.206L670.793 152.688L651.31 152.688L670.793 133.206Z" fill="#7128CE"/>
</svg>
