<svg width="805" height="460" viewBox="0 0 805 460" fill="none" xmlns="http://www.w3.org/2000/svg">
<g clip-path="url(#clip0_1388_14959)">
<rect width="805" height="460" fill="white"/>
<path d="M148.951 332.337L142.037 325.619L148.951 318.9" stroke="#570DB4" stroke-width="0.74537"/>
<path d="M141.711 332.337L134.797 325.619L141.711 318.9" stroke="#570DB4" stroke-width="0.74537"/>
<path d="M134.469 332.337L127.554 325.619L134.469 318.9" stroke="#570DB4" stroke-width="0.74537"/>
<path d="M127.229 332.337L120.314 325.619L127.229 318.9" stroke="#570DB4" stroke-width="0.74537"/>
<circle cx="304.856" cy="78.3453" r="5.59028" stroke="#FF842B" stroke-width="0.74537"/>
<path d="M17.5742 100.223L23.3925 107.742L29.5146 100.441L35.3328 107.742L40.8471 100.986L46.7522 107.96L52.0059 101.095L57.0426 107.851L62.7306 100.877" stroke="#A7A7A7" stroke-width="0.74537" stroke-miterlimit="10" stroke-linecap="round" stroke-linejoin="round"/>
<rect x="418.203" y="36.8956" width="4.43892" height="4.43892" stroke="#1F1F1F" stroke-width="0.74537"/>
<path d="M322.745 414.458H89.8171C83.1799 414.458 84.2269 415.472 84.2269 408.835L84.0515 147.211C84.0515 140.573 82.8071 141.864 89.4444 141.864H323.491C330.13 141.864 328.318 140.201 328.318 146.838V408.835C328.318 415.473 329.384 414.458 322.745 414.458Z" fill="#A6672E"/>
<path d="M315.647 162.109V397.282C315.647 403.268 316.433 402.5 310.448 402.5L106.253 403.228C105.965 403.228 100.255 403.264 99.9669 403.236C94.3939 402.811 95.4082 404.089 95.4082 398.392V162.482C95.4082 156.497 94.3556 157.454 100.34 157.454H310.908C316.893 157.454 315.647 156.124 315.647 162.109Z" fill="#F9E7D7"/>
<path d="M116.984 403.236H107.055C106.719 403.236 106.383 403.222 106.047 403.195V361.105C106.047 359.705 107.358 358.579 108.989 358.579H114.122C115.753 358.579 117.064 359.705 117.064 361.105V365.58V403.236H116.984Z" fill="#F7C537"/>
<path d="M116.984 403.236V366.129C116.984 365.937 117.017 365.759 117.064 365.58C117.352 364.441 118.52 363.603 119.926 363.603H125.043C126.674 363.603 128.001 364.729 128.001 366.129V403.236H117.064H116.984Z" fill="#F79F3E"/>
<path d="M138.937 403.236H128V357.247C128 355.847 129.327 354.708 130.958 354.708H136.075C137.706 354.708 139.017 355.847 139.017 357.247V403.236H138.937Z" fill="#F2513B"/>
<path d="M150.081 363.79V403.236H139.064V363.79C139.064 363.561 139.096 363.332 139.144 363.117C139.464 361.772 140.711 360.78 142.214 360.78H146.931C148.674 360.78 150.081 362.124 150.081 363.79Z" fill="#507849"/>
<path d="M161.018 403.236H150.082V358.79C150.082 357.313 151.393 356.126 153.024 356.126H158.155C159.786 356.126 161.099 357.313 161.099 358.79V403.236H161.018Z" fill="#F7C537"/>
<path d="M161.099 403.236H172.034V366.129C172.034 364.729 170.708 363.603 169.077 363.603H163.96C162.552 363.603 161.386 364.441 161.099 365.58C161.049 365.759 161.018 365.937 161.018 366.129V403.236H161.099Z" fill="#719968"/>
<path d="M183.05 361.64V403.236H172.033V361.64C172.033 360.322 173.361 359.265 174.992 359.265H180.108C181.739 359.265 183.05 360.322 183.05 361.64Z" fill="#F79F3E"/>
<path d="M194.118 367.818V403.236H183.102V367.818C183.102 367.612 183.133 367.406 183.181 367.214C183.501 366.006 184.749 365.114 186.251 365.114H190.968C192.711 365.114 194.118 366.322 194.118 367.818Z" fill="#F7C537"/>
<path d="M231.588 217.067H303.847C306.37 217.067 308.417 215.022 308.417 212.499C308.417 209.975 306.37 207.93 303.847 207.93H231.588V217.067Z" fill="#507849"/>
<path d="M231.698 217.067H277.031C279.385 217.067 281.293 215.159 281.293 212.805V212.193C281.293 209.838 279.385 207.93 277.031 207.93H231.698C230.859 207.93 230.18 208.61 230.18 209.447V215.55C230.18 216.388 230.859 217.067 231.698 217.067Z" fill="#6B9363"/>
<path d="M230.18 215.302H276.313C277.915 215.302 279.214 214.004 279.214 212.402C279.214 210.8 277.915 209.502 276.313 209.502H230.18V215.302Z" fill="#91BF86"/>
<path d="M288.89 207.931H245.836C243.312 207.931 241.266 205.885 241.266 203.362C241.266 200.839 243.312 198.793 245.836 198.793H288.89C289.679 198.793 290.32 199.434 290.32 200.224V206.5C290.32 207.291 289.679 207.931 288.89 207.931Z" fill="#FF9E3E"/>
<path d="M299.388 207.931H256.334C253.809 207.931 251.764 205.885 251.764 203.362C251.764 200.839 253.809 198.793 256.334 198.793H299.388C300.177 198.793 300.817 199.434 300.817 200.224V206.5C300.817 207.291 300.177 207.931 299.388 207.931Z" fill="#FFBE7D"/>
<path d="M300.819 206.166H256.664C255.062 206.166 253.764 204.867 253.764 203.265C253.764 201.663 255.062 200.365 256.664 200.365H300.819V206.166Z" fill="white"/>
<path d="M318.522 226.656H89.1543V217.068H318.522V226.656Z" fill="#A6672E"/>
<path d="M322.704 314.734H93.3359V305.145H322.704V314.734Z" fill="#A6672E"/>
<path d="M245.721 305.176H309.007C312.138 305.176 314.677 302.637 314.677 299.506C314.677 296.375 312.138 293.836 309.007 293.836H245.721C245.638 293.836 245.572 293.902 245.572 293.983V305.026C245.572 305.109 245.638 305.176 245.721 305.176Z" fill="#D84427"/>
<path d="M244.226 305.176H293.153C296.284 305.176 298.823 302.637 298.823 299.506C298.823 296.375 296.284 293.836 293.153 293.836H244.226C243.246 293.836 242.451 294.63 242.451 295.61V303.401C242.451 304.381 243.246 305.176 244.226 305.176Z" fill="#F2513B"/>
<path d="M242.451 302.986H292.929C294.917 302.986 296.529 301.373 296.529 299.385C296.529 297.398 294.917 295.786 292.929 295.786H242.451V302.986Z" fill="white"/>
<path d="M250.902 293.925H301.762C304.893 293.925 307.431 291.387 307.431 288.256C307.431 285.124 304.893 282.586 301.762 282.586H250.902C250.544 282.586 250.254 282.876 250.254 283.233V293.279C250.254 293.636 250.544 293.925 250.902 293.925Z" fill="#FFB255"/>
<path d="M249.288 293.925H288.645C291.776 293.925 294.316 291.387 294.316 288.256C294.316 285.124 291.776 282.586 288.645 282.586H249.288C248.395 282.586 247.672 283.308 247.672 284.199V292.311C247.672 293.202 248.395 293.925 249.288 293.925Z" fill="#FFC688"/>
<path d="M247.672 291.736H288.816C290.804 291.736 292.417 290.124 292.417 288.136C292.417 286.147 290.804 284.537 288.816 284.537H247.672V291.736Z" fill="#FFF2E6"/>
<path d="M278.059 114.565C278.059 114.565 253.535 87.7349 255.987 86.5282C258.439 85.3201 268.349 97.0425 268.349 97.0425C268.349 97.0425 257.143 77.5335 258.894 76.7414C260.645 75.9479 279.316 108.067 279.316 108.067C279.316 108.067 273.605 72.1892 275.685 71.5632C277.765 70.9386 284.127 107.326 284.127 107.326C284.127 107.326 289.023 78.1033 291.387 79.6271C293.753 81.1509 289.099 106.686 289.099 106.686C289.099 106.686 299.518 85.747 299.129 88.9182C298.739 92.088 294.718 107.457 294.718 107.457C294.718 107.457 311.901 80.7816 311.428 85.1183C310.955 89.455 295.826 115.323 295.826 115.323L278.059 114.565Z" fill="#719968"/>
<path d="M297.79 142.043L279.532 141.816C278.541 141.804 277.721 141.089 277.636 140.162L275.173 113.527C275.075 112.462 275.975 111.551 277.113 111.567L300.96 111.863C302.098 111.877 302.975 112.809 302.851 113.871L299.726 140.437C299.618 141.36 298.78 142.055 297.79 142.043Z" fill="#A05842"/>
<path d="M293.747 141.993L275.489 141.765C274.498 141.752 273.678 141.037 273.593 140.11L271.13 113.477C271.032 112.411 271.932 111.501 273.07 111.515L296.917 111.811C298.055 111.825 298.933 112.759 298.808 113.82L295.684 140.386C295.576 141.31 294.739 142.004 293.747 141.993Z" fill="#B56A4D"/>
<path d="M509.5 284.648H454.313C451.448 284.648 449.125 282.324 449.125 279.459V278.713C449.125 275.847 451.448 273.525 454.313 273.525H509.5C510.52 273.525 511.346 274.351 511.346 275.371V282.8C511.346 283.82 510.52 284.648 509.5 284.648Z" fill="#F7C537"/>
<path d="M517.899 284.764H462.714C459.848 284.764 457.525 282.441 457.525 279.576V278.831C457.525 275.964 459.848 273.643 462.714 273.643H517.899C518.92 273.643 519.747 274.468 519.747 275.489V282.918C519.747 283.937 518.92 284.764 517.899 284.764Z" fill="#FFD56E"/>
<path d="M519.747 282.618H463.589C461.639 282.618 460.057 281.035 460.057 279.086C460.057 277.134 461.639 275.555 463.589 275.555H519.747V282.618Z" fill="white"/>
<path d="M446.489 273.731H508.565C511.637 273.731 514.126 271.24 514.126 268.168C514.126 265.098 511.637 262.607 508.565 262.607H446.489C446.408 262.607 446.342 262.673 446.342 262.754V273.586C446.342 273.665 446.408 273.731 446.489 273.731Z" fill="#D84427"/>
<path d="M445.024 273.731H493.015C496.088 273.731 498.577 271.24 498.577 268.168C498.577 265.098 496.088 262.607 493.015 262.607H445.024C444.063 262.607 443.283 263.387 443.283 264.348V271.99C443.283 272.951 444.063 273.731 445.024 273.731Z" fill="#F2513B"/>
<path d="M443.283 271.582H492.796C494.747 271.582 496.327 270.002 496.327 268.051C496.327 266.101 494.747 264.52 492.796 264.52H443.283V271.582Z" fill="white"/>
<path d="M451.571 262.695H501.458C504.53 262.695 507.019 260.206 507.019 257.134C507.019 254.063 504.53 251.573 501.458 251.573H451.571C451.22 251.573 450.936 251.857 450.936 252.208V262.06C450.936 262.411 451.22 262.695 451.571 262.695Z" fill="#E8821C"/>
<path d="M449.988 262.695H488.594C491.666 262.695 494.155 260.206 494.155 257.134C494.155 254.063 491.666 251.573 488.594 251.573H449.988C449.115 251.573 448.406 252.281 448.406 253.156V261.112C448.406 261.986 449.115 262.695 449.988 262.695Z" fill="#FF9E3E"/>
<path d="M448.406 260.547H488.762C490.712 260.547 492.293 258.965 492.293 257.015C492.293 255.066 490.712 253.485 488.762 253.485H448.406V260.547Z" fill="#FFBE7D"/>
<path d="M436.373 287.047H392.983V273.924C392.983 269.481 392.094 270.366 396.537 270.366H432.687C437.129 270.366 436.373 269.481 436.373 273.924V287.047Z" fill="#C5C5C5"/>
<path d="M512.551 307.795H369.518C362.982 307.795 363.546 302.496 363.546 295.96C363.546 289.424 362.423 284.127 368.96 284.127H512.551C519.089 284.127 524.386 289.424 524.386 295.96C524.386 302.496 519.089 307.795 512.551 307.795Z" fill="#A6672E"/>
<path d="M395.643 412.431C392.981 412.431 390.822 410.271 390.822 407.61V304.706H400.464V407.61C400.464 410.271 398.305 412.431 395.643 412.431Z" fill="#A6672E"/>
<path d="M436.374 252.761C436.374 265.156 426.326 275.204 413.931 275.204C401.536 275.204 391.488 265.156 391.488 252.761C391.488 240.367 401.536 230.319 413.931 230.319C426.326 230.319 436.374 240.367 436.374 252.761Z" fill="#C5C5C5"/>
<path d="M429.338 252.761C429.338 261.271 422.44 268.168 413.931 268.168C405.422 268.168 398.523 261.271 398.523 252.761C398.523 244.252 405.422 237.353 413.931 237.353C422.44 237.353 429.338 244.252 429.338 252.761Z" fill="#EBEBEB"/>
<path d="M412.837 255.107C412.732 255.107 412.629 255.083 412.532 255.033C412.307 254.919 412.164 254.687 412.164 254.434V245.757C412.164 245.384 412.466 245.084 412.837 245.084C413.21 245.084 413.511 245.384 413.511 245.757V253.115L424.412 245.21C424.713 244.998 425.133 245.058 425.354 245.361C425.572 245.661 425.504 246.084 425.204 246.302L413.233 254.98C413.116 255.064 412.977 255.107 412.837 255.107Z" fill="#414141"/>
<path fill-rule="evenodd" clip-rule="evenodd" d="M651.575 157.493V103.331V102.069H651.545C650.887 88.4341 639.624 77.5815 625.826 77.5815C612.028 77.5815 600.765 88.4341 600.107 102.069H600.076V103.331V157.34C600.635 157.09 601.297 157.138 601.821 157.494L602.692 158.086C603.789 158.831 605.229 158.831 606.326 158.086L606.398 158.037C607.538 157.262 609.035 157.262 610.176 158.037C611.316 158.811 612.813 158.811 613.953 158.037C615.093 157.262 616.591 157.262 617.731 158.037C618.871 158.811 620.368 158.811 621.508 158.037C622.649 157.262 624.146 157.262 625.286 158.037C626.426 158.811 627.923 158.811 629.064 158.037C630.204 157.262 631.701 157.262 632.841 158.037C633.981 158.811 635.479 158.811 636.619 158.037L636.669 158.003C637.779 157.249 639.237 157.249 640.347 158.003L640.588 158.167C641.603 158.856 642.944 158.823 643.923 158.084L644.086 157.961C645.03 157.25 646.334 157.264 647.262 157.995L647.591 158.254C648.377 158.873 649.491 158.849 650.25 158.197L650.61 157.887C650.892 157.645 651.232 157.515 651.575 157.493Z" fill="#1F1F1F"/>
<circle cx="600.743" cy="108.294" r="4.84654" stroke="#FFB800" stroke-width="0.459965"/>
<circle cx="625.061" cy="106.976" r="23.5159" fill="#E1B48B"/>
<path d="M648.76 106.425C637.703 103.954 627.092 88.3466 623.414 80.2539C628.033 79.9514 638.793 80.922 644.882 87.2245C650.97 93.527 650.168 102.252 648.76 106.425Z" fill="#1F1F1F"/>
<circle cx="645.127" cy="108.294" r="4.84654" stroke="#FFB800" stroke-width="0.459965"/>
<path d="M614.272 91.0929C620.876 91.9013 624.058 85.293 625.144 82.964C607.557 78.0256 604.655 92.0042 605.082 98.5347C605.394 95.7173 607.668 90.2846 614.272 91.0929Z" fill="#1F1F1F"/>
<path d="M602.172 301.853L583.572 415.622" stroke="#1F1F1F" stroke-width="1.10231"/>
<path d="M659.703 301.853L678.303 415.622" stroke="#1F1F1F" stroke-width="1.10231"/>
<path d="M694.786 177.523H658.486L644.916 268.234H585.009V302.452H677.607C679.068 302.452 680.308 301.378 680.516 299.932L697.695 180.883C697.951 179.111 696.576 177.523 694.786 177.523Z" fill="#FF842B"/>
<rect width="30.4972" height="76.4267" rx="15.2486" transform="matrix(0.559331 -0.828944 -0.828944 -0.559331 563.514 213.879)" fill="#D49F6E"/>
<rect width="30.4972" height="75.3244" rx="15.2486" transform="matrix(-0.361936 -0.932203 -0.932203 0.361936 622.129 185.284)" fill="#D49F6E"/>
<path d="M632.173 187.733C643.095 183.493 648.512 171.201 644.271 160.279C640.03 149.357 627.739 143.941 616.817 148.181L576.276 163.922L591.632 203.474L632.173 187.733Z" fill="#FFB800"/>
<ellipse cx="625.978" cy="190.751" rx="54.5643" ry="55.4828" fill="#CD2026"/>
<rect width="30.4972" height="75.3244" rx="15.2486" transform="matrix(-0.76082 -0.648963 -0.648963 0.76082 661.078 186.693)" fill="#E1B48B"/>
<path d="M671.08 184.088C678.684 175.174 677.621 161.783 668.707 154.18C659.793 146.576 646.403 147.639 638.8 156.553L610.577 189.64L642.857 217.175L671.08 184.088Z" fill="#A70B11"/>
<path d="M612.568 248.071V294.001H534.121C521.438 294.001 511.156 283.719 511.156 271.036C511.156 258.353 521.438 248.071 534.121 248.071H612.568Z" fill="#1F1F1F"/>
<path d="M639.941 294.001C652.625 294.001 662.906 283.719 662.906 271.036V248.071H584.459C571.776 248.071 561.494 258.353 561.494 271.036C561.494 283.719 571.776 294.001 584.459 294.001H639.941Z" fill="#414141"/>
<path d="M448.477 401.331C448.477 394.339 454.145 388.67 461.138 388.67H516.795V408.088C516.795 411.348 514.152 413.991 510.892 413.991H461.138C454.145 413.991 448.477 408.323 448.477 401.331Z" fill="#C5C5C5" stroke="#7D7D7D" stroke-width="0.477667" stroke-linecap="round"/>
<path d="M503.225 401.699C503.225 394.706 508.893 389.038 515.886 389.038H571.543V408.455C571.543 411.716 568.9 414.359 565.64 414.359H515.886C508.893 414.359 503.225 408.691 503.225 401.699Z" fill="#C5C5C5" stroke="#7D7D7D" stroke-width="0.477667" stroke-linecap="round"/>
<path d="M511.972 265.632C515.583 253.399 528.583 246.564 540.708 250.521C552.594 254.401 559.084 267.181 555.205 279.067L519.486 388.499L475.697 388.499L511.972 265.632Z" fill="#1F1F1F"/>
<path d="M602.545 278.258C605.645 265.96 597.966 253.421 585.667 250.321C573.542 247.265 560.983 254.415 557.684 266.477L524.015 389.6L574.48 389.6L602.545 278.258Z" fill="#414141"/>
<path d="M561.942 231.298H594.641C596.466 231.298 597.744 229.818 597.493 227.991L589.982 173.217C589.731 171.392 588.048 169.911 586.222 169.911H553.523C551.697 169.911 550.419 171.392 550.67 173.217L558.181 227.991C558.433 229.818 560.115 231.298 561.942 231.298Z" fill="#C28A57"/>
<path d="M557.733 231.298H590.431C592.258 231.298 593.534 229.818 593.285 227.991L585.773 173.217C585.523 171.392 583.84 169.911 582.013 169.911H549.314C547.488 169.911 546.211 171.392 546.461 173.217L553.973 227.991C554.222 229.818 555.906 231.298 557.733 231.298Z" fill="white"/>
<path d="M571.221 177.494H560.091C558.411 177.494 557.013 176.234 556.84 174.563L556.362 169.96C556.335 169.701 556.524 169.469 556.782 169.443C557.036 169.415 557.272 169.604 557.299 169.863L557.777 174.467C557.901 175.656 558.895 176.553 560.091 176.553H571.221C571.882 176.553 572.491 176.284 572.937 175.796C573.383 175.307 573.596 174.676 573.538 174.017L573.186 170.134C573.162 169.874 573.354 169.646 573.612 169.623C573.868 169.599 574.101 169.79 574.123 170.049L574.474 173.933C574.557 174.844 574.251 175.755 573.631 176.431C573.014 177.107 572.135 177.494 571.221 177.494Z" fill="#FF842B"/>
<rect width="30.4972" height="76.4267" rx="15.2486" transform="matrix(0.0475517 -0.998869 -0.998869 -0.0475517 624.975 238.443)" fill="#E1B48B"/>
<path d="M33.541 414.426L683.553 414.426" stroke="#1F1F1F" stroke-width="0.74537"/>
<path d="M698.59 414.426H786.992" stroke="#1F1F1F" stroke-width="0.74537"/>
<path fill-rule="evenodd" clip-rule="evenodd" d="M490.454 41.7402H587.416V91.4273H587.416V100.352L579.456 91.4273H490.454V41.7402Z" fill="white"/>
<path d="M587.416 41.7402V41.2558H587.9V41.7402H587.416ZM490.454 41.7402H489.969V41.2558H490.454V41.7402ZM587.416 91.4273H587.9V91.9117H587.416V91.4273ZM587.416 91.4273H586.932V90.9429H587.416V91.4273ZM587.416 100.352H587.9V101.622L587.054 100.674L587.416 100.352ZM579.456 91.4273V90.9429H579.673L579.818 91.1049L579.456 91.4273ZM490.454 91.4273V91.9117H489.969V91.4273H490.454ZM587.416 42.2246H490.454V41.2558H587.416V42.2246ZM586.932 91.4273V41.7402H587.9V91.4273H586.932ZM587.416 90.9429H587.416V91.9117H587.416V90.9429ZM586.932 100.352V91.4273H587.9V100.352H586.932ZM579.818 91.1049L587.777 100.029L587.054 100.674L579.095 91.7498L579.818 91.1049ZM490.454 90.9429H579.456V91.9117H490.454V90.9429ZM490.938 41.7402V91.4273H489.969V41.7402H490.938Z" fill="#FF842B"/>
<path d="M537.93 53.8376C540.379 53.8376 542.358 54.5302 543.866 55.9154C545.375 57.3005 546.13 59.1557 546.13 61.4808C546.13 64.078 545.326 66.0073 543.718 67.2688C542.11 68.5056 539.934 69.124 537.188 69.124L537.077 72.6488H534.145L533.997 66.7865H535.073C537.522 66.7865 539.439 66.4155 540.824 65.6734C542.209 64.9314 542.902 63.5338 542.902 61.4808C542.902 59.9967 542.457 58.8217 541.566 57.956C540.676 57.0903 539.476 56.6574 537.967 56.6574C536.434 56.6574 535.221 57.0779 534.331 57.9189C533.465 58.7352 533.032 59.8606 533.032 61.2953H529.842C529.842 59.8112 530.175 58.5126 530.843 57.3995C531.511 56.2616 532.451 55.3835 533.663 54.7652C534.9 54.1468 536.322 53.8376 537.93 53.8376ZM535.593 80.2548C534.949 80.2548 534.405 80.0322 533.96 79.587C533.515 79.1418 533.292 78.5976 533.292 77.9545C533.292 77.3113 533.515 76.7672 533.96 76.3219C534.405 75.8767 534.949 75.6541 535.593 75.6541C536.211 75.6541 536.73 75.8767 537.151 76.3219C537.596 76.7672 537.819 77.3113 537.819 77.9545C537.819 78.5976 537.596 79.1418 537.151 79.587C536.73 80.0322 536.211 80.2548 535.593 80.2548Z" fill="#FF842B"/>
<path d="M714.07 375.951V205.256" stroke="#398F4B" stroke-width="0.822633"/>
<path fill-rule="evenodd" clip-rule="evenodd" d="M636.38 314.254H659.094V337.523C675.206 342.393 686.938 357.353 686.938 375.054C686.938 396.704 669.386 414.255 647.736 414.255C626.086 414.255 608.535 396.704 608.535 375.054C608.535 357.353 620.267 342.391 636.38 337.523V314.254Z" fill="#C28A57"/>
<path d="M718.084 321.478C718.084 300.911 734.757 284.238 755.324 284.238C755.324 304.805 738.651 321.478 718.084 321.478Z" fill="#43BE5C"/>
<path d="M673.01 244.131C673.01 264.698 689.683 281.371 710.25 281.371C710.25 260.804 693.577 244.131 673.01 244.131Z" fill="#43BE5C"/>
<path d="M713.128 184.106C723.612 194.07 724.035 210.646 714.071 221.13C703.587 211.167 703.165 194.591 713.128 184.106Z" fill="#43BE5C"/>
<path d="M717.893 252.211C717.893 240.006 727.787 230.111 739.993 230.111C739.993 242.317 730.098 252.211 717.893 252.211Z" fill="#43BE5C"/>
<path d="M684.471 339.98C684.471 354.67 696.38 366.58 711.071 366.58C711.071 351.889 699.161 339.98 684.471 339.98Z" fill="#43BE5C"/>
<path d="M751.312 375.951H677.897V377.547C677.897 397.82 694.331 414.255 714.605 414.255C734.878 414.255 751.312 397.82 751.312 377.547V375.951Z" fill="#A6672E"/>
<path d="M647.578 314.522L639.001 275.836" stroke="#8A49DD" stroke-width="0.822633"/>
<path d="M647.527 314.321L651.645 302.183" stroke="#8A49DD" stroke-width="0.822633"/>
<circle cx="9.61996" cy="9.61996" r="9.61996" transform="matrix(-1 0 0 1 646.592 257.23)" fill="#8A49DD"/>
<circle cx="3.88953" cy="3.88953" r="3.88953" transform="matrix(-1 0 0 1 640.979 262.891)" fill="white"/>
<circle cx="6.25314" cy="6.25314" r="6.25314" transform="matrix(-1 0 0 1 659.152 290.351)" fill="#8A49DD"/>
<circle cx="2.52826" cy="2.52826" r="2.52826" transform="matrix(-1 0 0 1 655.426 294.075)" fill="white"/>
<circle cx="24.2508" cy="24.2508" r="24.2508" transform="matrix(-1 0 0 1 179.043 77.5288)" fill="#E1B48B"/>
<path d="M172.209 88.5159C176.688 86.1992 175.62 80.472 174.526 77.8979C176.379 69.4036 169.12 67.9235 165.259 68.2452C162.016 59.442 155.156 61.8745 152.131 64.1911C144.409 58.7856 140.291 64.6416 139.197 68.2452C131.32 68.3997 131.539 75.6456 132.633 79.2493C128.926 81.2571 129.93 86.2636 130.896 88.5159C130.587 93.9214 129.544 99.906 132.633 107.628C134.564 106.856 145.683 100.447 146.147 94.8866C146.726 87.9367 149.043 84.0756 155.8 83.8826C162.556 83.6895 166.61 91.4117 172.209 88.5159Z" fill="#1F1F1F"/>
<path d="M193.059 303.259L211.658 417.028" stroke="#1F1F1F" stroke-width="1.10231"/>
<path d="M135.529 303.259L116.93 417.028" stroke="#1F1F1F" stroke-width="1.10231"/>
<path d="M100.451 178.93H136.751L150.321 269.64H210.227V303.858H117.629C116.168 303.858 114.929 302.785 114.72 301.339L97.5414 182.289C97.2857 180.517 98.6602 178.93 100.451 178.93Z" fill="#FF842B"/>
<rect width="25.3955" height="67.8422" rx="12.6977" transform="matrix(-0.870317 0.492491 0.492491 0.870317 180.391 171.595)" fill="#D59F6E"/>
<path d="M177.787 155.057C172.656 145.99 161.145 142.798 152.077 147.93C143.01 153.061 139.818 164.571 144.95 173.639L168.356 215.002L201.193 196.42L177.787 155.057Z" fill="#EDAB00"/>
<path d="M178.994 158.354C178.994 143.134 166.656 130.796 151.436 130.796C136.217 130.796 123.879 143.134 123.879 158.354V239.924H178.994V158.354Z" fill="#FFB800"/>
<path d="M156.436 250.067V290.485H245.355C256.516 290.485 265.564 281.437 265.564 270.276C265.564 259.115 256.516 250.067 245.355 250.067H156.436Z" fill="#1F1F1F"/>
<path d="M263.665 264.017C260.198 253.287 248.662 247.427 237.952 250.957C227.287 254.472 221.49 265.967 225.005 276.633L261.31 386.79L303.335 386.79L263.665 264.017Z" fill="#1F1F1F"/>
<path d="M342.999 393.698C342.999 386.423 337.102 380.525 329.827 380.525H271.827V400.871C271.827 404.184 274.513 406.87 277.826 406.87H329.827C337.102 406.87 342.999 400.973 342.999 393.698Z" fill="#C5C5C5" stroke="#7D7D7D" stroke-width="0.477667" stroke-linecap="round"/>
<path d="M123.732 250.067V272.664C123.732 285.144 133.85 295.262 146.33 295.262H204.017C216.497 295.262 226.615 285.144 226.615 272.664C226.615 260.184 216.497 250.067 204.017 250.067H123.732Z" fill="#414141"/>
<path d="M236.354 384.698L281.182 384.698L227.556 262.81C222.966 252.376 210.698 247.738 200.344 252.507C190.252 257.156 185.725 269.034 190.181 279.213L236.354 384.698Z" fill="#414141"/>
<path d="M312.136 394.064C312.136 386.789 306.239 380.892 298.964 380.892H240.964V401.238C240.964 404.551 243.65 407.237 246.963 407.237H298.964C306.239 407.237 312.136 401.339 312.136 394.064Z" fill="#C5C5C5" stroke="#7D7D7D" stroke-width="0.477667" stroke-linecap="round"/>
<rect width="25.3955" height="67.8422" rx="12.6977" transform="matrix(-0.978186 0.207731 0.207731 0.978186 164.252 182.206)" fill="#E1B48B"/>
<path d="M165.306 157.092C163.141 146.901 153.125 140.393 142.933 142.558C132.741 144.722 126.234 154.738 128.398 164.93L138.271 211.419L175.178 203.581L165.306 157.092Z" fill="#EDAB00"/>
<rect width="25.3955" height="82.3539" rx="12.6977" transform="matrix(-0.577322 0.816517 0.816517 0.577322 161.195 223.106)" fill="#E1B48B"/>
<rect x="257.08" y="239.496" width="25.3531" height="73.8547" rx="12.6765" transform="rotate(112.121 257.08 239.496)" fill="#D59F6E"/>
<path fill-rule="evenodd" clip-rule="evenodd" d="M214.16 75.0127C230.758 75.0127 244.213 61.5576 244.213 44.96C244.213 28.3623 230.758 14.9072 214.16 14.9072C197.562 14.9072 184.107 28.3623 184.107 44.96C184.107 58.5067 193.071 69.96 205.39 73.7129C204.991 76.3297 203.38 79.8809 198.916 81.9813C201.843 82.1144 208.402 80.8335 212.964 74.9894C213.361 75.0049 213.76 75.0127 214.16 75.0127Z" fill="white"/>
<path d="M205.39 73.7129L205.758 73.7691L205.807 73.4503L205.499 73.3564L205.39 73.7129ZM198.916 81.9813L198.758 81.6441L198.9 82.3536L198.916 81.9813ZM212.964 74.9894L212.979 74.617L212.788 74.6095L212.67 74.76L212.964 74.9894ZM243.84 44.96C243.84 61.3518 230.552 74.64 214.16 74.64V75.3854C230.964 75.3854 244.586 61.7635 244.586 44.96H243.84ZM214.16 15.2799C230.552 15.2799 243.84 28.5681 243.84 44.96H244.586C244.586 28.1565 230.964 14.5345 214.16 14.5345V15.2799ZM184.48 44.96C184.48 28.5681 197.768 15.2799 214.16 15.2799V14.5345C197.357 14.5345 183.735 28.1565 183.735 44.96H184.48ZM205.499 73.3564C193.332 69.6499 184.48 58.3382 184.48 44.96H183.735C183.735 58.6753 192.81 70.2701 205.281 74.0694L205.499 73.3564ZM199.075 82.3186C203.671 80.1558 205.344 76.4849 205.758 73.7691L205.022 73.6567C204.638 76.1746 203.089 79.6061 198.758 81.6441L199.075 82.3186ZM212.67 74.76C208.199 80.4882 201.768 81.7379 198.933 81.609L198.9 82.3536C201.918 82.4908 208.605 81.1788 213.258 75.2187L212.67 74.76ZM214.16 74.64C213.764 74.64 213.371 74.6323 212.979 74.617L212.95 75.3618C213.351 75.3775 213.755 75.3854 214.16 75.3854V74.64Z" fill="#169F32"/>
<circle cx="2.23611" cy="2.23611" r="2.23611" transform="matrix(-1 0 0 1 225.848 42.4858)" fill="#169F32"/>
<circle cx="2.23611" cy="2.23611" r="2.23611" transform="matrix(-1 0 0 1 216.158 42.4858)" fill="#169F32"/>
<circle cx="2.23611" cy="2.23611" r="2.23611" transform="matrix(-1 0 0 1 206.469 42.4858)" fill="#169F32"/>
<path d="M790.646 160.578C790.865 160.19 791.424 160.19 791.643 160.578L802.776 180.371C802.99 180.752 802.715 181.223 802.278 181.223H780.011C779.574 181.223 779.299 180.752 779.513 180.371L790.646 160.578Z" stroke="#43BE5C" stroke-width="0.74537"/>
<path d="M669.971 48.0268C670.16 47.5165 670.882 47.5165 671.071 48.0268L674.162 56.3808C674.297 56.7453 674.584 57.0326 674.949 57.1675L683.303 60.2588C683.813 60.4476 683.813 61.1694 683.303 61.3582L674.949 64.4495C674.584 64.5844 674.297 64.8717 674.162 65.2362L671.071 73.5902C670.882 74.1005 670.16 74.1005 669.971 73.5902L666.88 65.2362C666.745 64.8717 666.458 64.5844 666.093 64.4495L657.739 61.3582C657.229 61.1694 657.229 60.4476 657.739 60.2588L666.093 57.1675C666.458 57.0326 666.745 56.7453 666.88 56.3808L669.971 48.0268Z" stroke="#B589ED" stroke-width="0.74537" stroke-linejoin="round"/>
<path d="M48.3325 328.286C48.5214 327.776 49.2431 327.776 49.432 328.286L52.5232 336.64C52.6581 337.005 52.9455 337.292 53.3099 337.427L61.664 340.518C62.1743 340.707 62.1743 341.429 61.664 341.617L53.3099 344.709C52.9454 344.844 52.6581 345.131 52.5232 345.495L49.432 353.85C49.2431 354.36 48.5214 354.36 48.3325 353.85L45.2412 345.495C45.1064 345.131 44.819 344.844 44.4546 344.709L36.1005 341.617C35.5902 341.429 35.5902 340.707 36.1005 340.518L44.4546 337.427C44.819 337.292 45.1064 337.005 45.2412 336.64L48.3325 328.286Z" stroke="#B589ED" stroke-width="0.74537" stroke-linejoin="round"/>
</g>
<defs>
<clipPath id="clip0_1388_14959">
<rect width="805" height="460" fill="white"/>
</clipPath>
</defs>
</svg>
