<svg width="1534" height="586" viewBox="0 0 1534 586" fill="none" xmlns="http://www.w3.org/2000/svg">
<path d="M372 155.857C375.563 150.56 385.54 140.673 396.942 143.498C411.194 147.029 411.194 194.701 396.942 191.169C385.54 188.344 392.191 179.398 396.942 175.278C408.225 167.627 429.722 168.216 425.447 231.78C421.171 295.343 452 313 484.238 313C513 313 529.053 288.152 535.903 275.921C553.5 244.5 566.5 228.248 592.913 228.248C592.913 228.248 602 226.5 628.544 238.842C644.5 244.5 653.842 240.255 662.393 231.78C673.083 221.186 688.897 187.855 696.243 180.575C703.369 173.513 706.932 166.45 726.529 164.685C726.529 164.685 752 175.278 752 191.169" stroke="#A7A7A7"/>
<rect x="103" y="327" width="412" height="202" fill="#FFE2C8"/>
<rect x="103" y="327" width="412" height="202" fill="#FFEEC2"/>
<rect x="1035" y="88" width="412" height="202" fill="#FFE2C8"/>
<rect x="103" y="88" width="412" height="202" fill="#EBEBEB"/>
<path d="M311 326.999C318.5 311.5 336.77 298.5 362 298.5C393.537 298.5 411.201 308.676 444 349.499C470.239 382.158 480 404.502 498.5 431.31C505.5 441.453 520 468.002 545.5 466.5C574.6 464.785 567.517 408.615 620.5 387.499C673.483 366.384 674.402 445.654 740 417.5C749.671 410.461 772.546 406.817 767.5 341.499C766.659 334.461 769.699 311.004 785.847 306.499C806.031 300.869 802.246 322.407 785.847 320.999C779.96 318.653 771.466 304.616 774.493 293.354C777.521 282.093 796.78 279.277 806.031 279.277H908.5C942.56 260.977 950.533 222.165 961.195 200.446C984 153.993 1046 151.647 1086 180.499C1126 209.352 1171.07 216.333 1184 215.5C1208.5 213.922 1224.1 198.928 1235.5 186.5C1271.5 147.266 1320.32 142.501 1337.12 171.999C1351 204.771 1327.03 217.038 1316.94 210C1306.85 202.961 1314.19 182.12 1337.12 195.923C1366.46 213.578 1386.51 229.73 1373 261.502C1357.48 298.001 1305.76 297.148 1286 303.002C1259 311.001 1248 343.502 1303.5 343.502" stroke="#A7A7A7"/>
<rect x="1035" y="327" width="412" height="202" fill="#B2E7BC"/>
<rect x="569" y="88" width="412" height="202" fill="#EAD9FF"/>
<path d="M1446 391C1462.83 396.167 1501.44 419.398 1480.5 450C1467.5 469 1440.5 463.154 1425.5 457C1406.5 449.205 1317.5 407.5 1303 402C1288.5 396.5 1265.8 401 1255 427" stroke="#A7A7A7"/>
<path d="M790 184.259C793.394 188.078 802.982 196.478 814.182 199.532C817.549 200.808 827.002 202.642 836.553 201.81C846.197 200.97 857.6 194.95 855.5 185.5V185.5C854.231 179.79 850.5 176.003 844 180.001C837.5 183.999 832 198.653 844 201.653C856 204.653 858.182 198.578 874.5 201.653C890.818 204.729 907.345 214.871 908.364 238.29C909.636 267.562 888.818 289.41 886 294.001C881.758 299.092 874.5 316.501 893.091 328.653C913.58 342.047 953.758 346.047 973.273 343.926C995.5 340.001 1017 359 1002.5 390.501C994.566 407.737 987.473 443.047 1017 468.501C1046.53 493.956 1074.77 489.608 1083.5 489.001C1098.77 487.94 1134.91 478.835 1143.82 478.835C1152.73 478.835 1159.09 481.381 1168 492.835C1172.67 497.926 1184.8 507.09 1196 503.017" stroke="#A7A7A7"/>
<rect x="569" y="327" width="412" height="202" fill="#FFF0F1"/>
<path fill-rule="evenodd" clip-rule="evenodd" d="M474 317H344V382.617V383.617V394.582L353.78 383.617H474V317Z" fill="#FFEEC2"/>
<path d="M344 317V316H343V317H344ZM474 317H475V316H474V317ZM344 394.582H343V397.206L344.746 395.248L344 394.582ZM353.78 383.617V382.617H353.332L353.034 382.951L353.78 383.617ZM474 383.617V384.617H475V383.617H474ZM344 318H474V316H344V318ZM345 382.617V317H343V382.617H345ZM345 383.617V382.617H343V383.617H345ZM345 394.582V383.617H343V394.582H345ZM353.034 382.951L343.254 393.917L344.746 395.248L354.526 384.283L353.034 382.951ZM474 382.617H353.78V384.617H474V382.617ZM473 317V383.617H475V317H473Z" fill="#FFB800"/>
<circle cx="390.574" cy="350.633" r="4.52736" fill="#FFB800"/>
<circle cx="409.324" cy="350.633" r="4.52736" fill="#FFB800"/>
<circle cx="428.09" cy="350.633" r="4.52736" fill="#FFB800"/>
<path fill-rule="evenodd" clip-rule="evenodd" d="M1183.69 159.418C1156.25 159.418 1134 137.172 1134 109.73C1134 82.2888 1156.25 60.043 1183.69 60.043C1211.13 60.043 1233.38 82.2888 1233.38 109.73C1233.38 132.128 1218.56 151.064 1198.19 157.269C1198.85 161.595 1201.51 167.468 1208.89 170.941C1204.05 171.161 1193.21 169.043 1185.66 159.379C1185.01 159.405 1184.35 159.418 1183.69 159.418Z" fill="#FFE2C8"/>
<path d="M1198.19 157.269L1197.2 157.419L1197.07 156.564L1197.9 156.312L1198.19 157.269ZM1208.89 170.941L1209.32 170.036L1208.94 171.94L1208.89 170.941ZM1185.66 159.379L1185.63 158.38L1186.14 158.36L1186.45 158.764L1185.66 159.379ZM1135 109.73C1135 136.62 1156.8 158.418 1183.69 158.418V160.418C1155.69 160.418 1133 137.724 1133 109.73H1135ZM1183.69 61.043C1156.8 61.043 1135 82.8411 1135 109.73H1133C1133 81.7365 1155.69 59.043 1183.69 59.043V61.043ZM1232.38 109.73C1232.38 82.8411 1210.58 61.043 1183.69 61.043V59.043C1211.68 59.043 1234.38 81.7365 1234.38 109.73H1232.38ZM1197.9 156.312C1217.86 150.232 1232.38 131.675 1232.38 109.73H1234.38C1234.38 132.58 1219.26 151.896 1198.48 158.225L1197.9 156.312ZM1208.47 171.846C1200.73 168.205 1197.9 162.012 1197.2 157.419L1199.18 157.118C1199.8 161.179 1202.29 166.73 1209.32 170.036L1208.47 171.846ZM1186.45 158.764C1193.75 168.117 1204.25 170.151 1208.85 169.942L1208.94 171.94C1203.85 172.171 1192.66 169.97 1184.88 159.995L1186.45 158.764ZM1183.69 158.418C1184.34 158.418 1184.98 158.405 1185.63 158.38L1185.7 160.379C1185.03 160.405 1184.36 160.418 1183.69 160.418V158.418Z" fill="#FFAE74"/>
<circle cx="1168.06" cy="109.338" r="3.69706" fill="#FFAE74"/>
<circle cx="1184.08" cy="109.338" r="3.69706" fill="#FFAE74"/>
<circle cx="1200.1" cy="109.338" r="3.69706" fill="#FFAE74"/>
<path fill-rule="evenodd" clip-rule="evenodd" d="M610.716 110C624.363 110 635.432 121.117 635.432 134.823C635.432 141.164 633.06 146.952 629.165 151.348C627.721 153.546 610.716 167.977 610.716 167.977V159.645C597.069 159.645 586 148.529 586 134.823C586 121.117 597.069 110 610.716 110ZM596.462 139.46C596.37 138.643 597.012 137.941 597.825 137.941H623.229C624.043 137.941 624.673 138.643 624.593 139.46C623.836 146.607 617.844 152.154 610.533 152.154C603.222 152.154 597.218 146.595 596.462 139.46ZM608.765 129.615C609.645 129.107 609.645 127.836 608.765 127.328L599.603 122.038C598.722 121.529 597.622 122.165 597.622 123.181V133.761C597.622 134.778 598.722 135.413 599.603 134.905L608.765 129.615ZM618.435 135.276C622.193 135.276 625.24 132.229 625.24 128.471C625.24 124.712 622.193 121.666 618.435 121.666C614.676 121.666 611.63 124.712 611.63 128.471C611.63 132.229 614.676 135.276 618.435 135.276ZM618.435 131.939C616.52 131.939 614.967 130.386 614.967 128.471C614.967 126.555 616.52 125.003 618.435 125.003C620.35 125.003 621.903 126.555 621.903 128.471C621.903 130.386 620.35 131.939 618.435 131.939Z" fill="white"/>
<rect x="642" y="116" width="58" height="16" rx="1" fill="white"/>
<rect x="642" y="136" width="45" height="4" rx="1" fill="white"/>
<mask id="mask0_2766_10516" style="mask-type:alpha" maskUnits="userSpaceOnUse" x="103" y="88" width="412" height="202">
<rect x="103" y="88" width="412" height="202" fill="#F5F5F5"/>
</mask>
<g mask="url(#mask0_2766_10516)">
<g opacity="0.4">
<line y1="-0.5" x2="31.7079" y2="-0.5" transform="matrix(0.808032 -0.589139 -0.405538 -0.914078 326.211 140.297)" stroke="#7D7D7D"/>
<line y1="-0.5" x2="20.318" y2="-0.5" transform="matrix(0.986559 -0.163407 -0.042004 -0.999117 327.008 142.766)" stroke="#7D7D7D"/>
<line y1="-0.5" x2="18.173" y2="-0.5" transform="matrix(0.649166 -0.760647 -0.616666 -0.787225 324.727 137.43)" stroke="#7D7D7D"/>
<line y1="-0.5" x2="14.9841" y2="-0.5" transform="matrix(0.983089 0.183127 0.0191727 -0.999816 326.477 146.637)" stroke="#7D7D7D"/>
</g>
<circle cx="24.9127" cy="24.9127" r="24.9127" transform="matrix(-1 0 0 1 319.172 127.152)" fill="#C28A57"/>
<path d="M291.242 117.43C299.18 129.555 290.343 139.399 284.933 142.805C277.391 154.352 265.484 152.611 260.473 150.296C259.824 149.095 264.288 145.512 266.602 143.871C264.307 143.734 261.158 139.123 259.871 136.835C260.33 135.575 266.499 134.338 269.526 133.878C267.354 132.304 266.792 127.251 266.783 124.921C268.327 124.448 272.93 125.837 275.039 126.591C275.732 119.661 277.603 118.108 278.452 118.198C280.333 117.902 283.313 122.191 284.568 124.373C284.713 122.089 289.078 118.793 291.242 117.43Z" fill="#1F1F1F"/>
<rect x="375.062" y="193.777" width="31.3296" height="78.5127" rx="15.6648" transform="rotate(-157.111 375.062 193.777)" fill="#C7905E"/>
<rect x="326.406" y="223.219" width="31.3296" height="77.3803" rx="15.6648" transform="rotate(-126.568 326.406 223.219)" fill="#C7905E"/>
<path d="M323.035 233.286C313.368 240.456 299.718 238.433 292.547 228.766C285.377 219.099 287.4 205.45 297.067 198.279L332.949 171.662L358.917 206.669L323.035 233.286Z" fill="#EDAB00"/>
<ellipse cx="56.0535" cy="56.9972" rx="56.0535" ry="56.9972" transform="matrix(-1 0 0 1 350.109 181.73)" fill="#FFB800"/>
<rect x="267.453" y="211.207" width="31.3296" height="77.3803" rx="15.6648" transform="rotate(30.4103 267.453 211.207)" fill="#C28A57"/>
<path d="M266.617 200.623C272.709 190.243 286.063 186.767 296.443 192.86C306.824 198.952 310.3 212.306 304.207 222.686L281.592 261.216L244.002 239.153L266.617 200.623Z" fill="#EDAB00"/>
<rect x="225.203" y="277.055" width="31.3296" height="78.5127" rx="15.6648" transform="rotate(-47.8507 225.203 277.055)" fill="#C28A57"/>
</g>
<mask id="mask1_2766_10516" style="mask-type:alpha" maskUnits="userSpaceOnUse" x="103" y="327" width="412" height="202">
<rect x="103" y="327" width="412" height="202" fill="#FFB800"/>
</mask>
<g mask="url(#mask1_2766_10516)">
<circle cx="22.4958" cy="22.4958" r="22.4958" transform="matrix(-1 0 0 1 332.281 373.914)" fill="#E1B48B"/>
<path fill-rule="evenodd" clip-rule="evenodd" d="M317.336 375.214C314.97 374.37 312.422 373.91 309.766 373.91C298.249 373.91 288.748 382.56 287.378 393.731C289.981 394.851 292.848 395.471 295.859 395.471C307.305 395.471 316.663 386.515 317.336 375.214Z" fill="#1F1F1F"/>
<path d="M272.508 374.367C265.772 371.001 263.715 362.364 268.212 356.323C273.241 349.568 283.461 349.891 288.054 356.95L296.645 370.155C298.428 372.897 298.316 376.46 296.362 379.084C294.101 382.121 289.988 383.1 286.601 381.408L272.508 374.367Z" fill="#1F1F1F"/>
<rect width="29.6535" height="72.9408" rx="14.8268" transform="matrix(0.420006 0.907521 0.907521 -0.420006 337.477 491.551)" fill="#D49F6E"/>
<rect width="29.6535" height="59.6479" rx="14.8268" transform="matrix(-0.747677 0.664063 0.664063 0.747677 336.922 454.891)" fill="#D49F6E"/>
<path d="M328.163 433.728C320.6 425.212 307.565 424.44 299.05 432.003C290.534 439.567 289.762 452.601 297.325 461.117L325.4 492.726L356.238 465.337L328.163 433.728Z" fill="#DD3B41"/>
<path d="M344.641 501.477H294.536V598.788C294.536 612.624 305.753 623.84 319.589 623.84C333.424 623.84 344.641 612.624 344.641 598.788V501.477Z" fill="#1F1F1F"/>
<rect width="29.6535" height="59.6479" rx="14.8268" transform="matrix(-0.89315 -0.449759 -0.449759 0.89315 294.492 471.676)" fill="#E1B48B"/>
<path d="M268.633 501.477H318.737V598.788C318.737 612.624 307.521 623.84 293.685 623.84C279.849 623.84 268.633 612.624 268.633 598.788V501.477Z" fill="#414141"/>
<path d="M355.203 423.422H259.085V443.191C259.085 469.733 280.602 491.25 307.144 491.25C333.686 491.25 355.203 469.733 355.203 443.191V423.422Z" fill="#CD2026"/>
<path d="M309.373 454.939C314.496 444.766 310.402 432.367 300.229 427.244C290.057 422.122 277.658 426.216 272.535 436.388L253.521 474.147L290.359 492.698L309.373 454.939Z" fill="#A70B11"/>
<rect width="29.6535" height="72.9408" rx="14.8268" transform="matrix(-0.651994 0.758224 0.758224 0.651994 260.359 485.457)" fill="#E1B48B"/>
<path d="M405.572 469.252L403.001 466.977L400.431 464.702L386.21 480.768C384.954 482.188 385.086 484.357 386.506 485.614C387.925 486.871 390.095 486.738 391.351 485.319L405.572 469.252Z" fill="#CD2026"/>
<path d="M402.908 467.121L406.538 463.018" stroke="#1F1F1F"/>
<circle cx="17.1109" cy="17.1109" r="16.6109" transform="matrix(-0.998148 0.0608384 0.0608384 0.998148 433.352 432)" stroke="#1F1F1F"/>
<path d="M407.578 458.973C409.768 460.771 416.643 464.48 424.426 460.521" stroke="black" stroke-linecap="round" stroke-linejoin="round"/>
</g>
<mask id="mask2_2766_10516" style="mask-type:alpha" maskUnits="userSpaceOnUse" x="569" y="327" width="412" height="202">
<rect x="569" y="327" width="412" height="202" fill="#E2CBFF"/>
</mask>
<g mask="url(#mask2_2766_10516)">
<circle cx="785.524" cy="386.59" r="24.7268" fill="#E1B48B"/>
<path fill-rule="evenodd" clip-rule="evenodd" d="M763.245 362.796C762.056 365.594 760.895 371.821 765.764 374.34C769.094 376.062 771.922 374.329 775.003 372.44C777.554 370.877 780.278 369.207 783.604 369.302C790.95 369.512 793.469 373.71 794.099 381.266C794.254 383.133 795.515 385.088 797.246 386.924V386.723V381.056C798.693 381.056 800.081 381.653 801.105 382.715C802.128 383.778 802.703 385.22 802.703 386.723C802.703 388.121 802.206 389.465 801.313 390.501C804.518 392.924 807.79 394.718 808.791 395.118C811.681 387.893 811.244 382.067 810.852 376.837C810.789 375.99 810.727 375.159 810.68 374.34C811.729 371.891 812.821 366.448 808.791 364.265C809.98 360.347 810.218 352.469 801.655 352.302C800.465 348.384 795.988 342.017 787.592 347.894C784.304 345.375 776.846 342.731 773.32 352.302C769.122 351.952 761.231 353.561 763.245 362.796Z" fill="#1F1F1F"/>
<rect x="815.945" y="497.777" width="31.4704" height="83.9211" rx="15.7352" transform="rotate(-37.0053 815.945 497.777)" fill="#D49F6E"/>
<rect x="788.664" y="461.574" width="31.4704" height="77.1775" rx="15.7352" transform="rotate(-37.0053 788.664 461.574)" fill="#D49F6E"/>
<path d="M776.934 456.784C769.648 447.117 771.578 433.375 781.245 426.09C790.911 418.804 804.653 420.734 811.939 430.401L839.111 466.453L804.106 492.836L776.934 456.784Z" fill="#007618"/>
<path d="M817.648 525.348H747.589V547.639C747.589 559.951 757.57 569.931 769.881 569.931H795.357C807.668 569.931 817.648 559.95 817.648 547.639V525.348Z" fill="#414141"/>
<path d="M747.539 525.348L792.171 539.529L767.95 615.761C764.034 628.086 750.868 634.902 738.543 630.986C726.218 627.07 719.401 613.904 723.317 601.579L747.539 525.348Z" fill="#414141"/>
<path d="M770.289 543.242L813.567 525.348L844.129 599.266C849.071 611.217 843.388 624.911 831.438 629.852C819.487 634.793 805.793 629.111 800.852 617.16L770.289 543.242Z" fill="#414141"/>
<rect x="662.289" y="501.938" width="49.2204" height="8.2707" transform="rotate(-32.3286 662.289 501.938)" fill="#FFB800"/>
<path d="M714.667 474.001C713.371 471.953 710.66 471.344 708.612 472.64L703.727 475.732L708.42 483.148L713.306 480.056C715.354 478.76 715.963 476.049 714.667 474.001Z" fill="#CD2026"/>
<path d="M657.995 508.998L661.994 502.001L666.495 508.999L657.995 508.998Z" fill="#E1B48B"/>
<path d="M758.986 416.324H817.651V516.76H747.281L758.986 416.324Z" fill="#169F32"/>
<rect x="757.484" y="479.641" width="31.4704" height="83.9211" rx="15.7352" transform="rotate(87.5609 757.484 479.641)" fill="#E1B48B"/>
<rect x="775.703" y="438.738" width="31.4704" height="77.1775" rx="15.7352" transform="rotate(42.8271 775.703 438.738)" fill="#E1B48B"/>
<path d="M778.777 426.052C787.016 417.163 800.901 416.636 809.79 424.875C818.68 433.115 819.206 447 810.967 455.889L780.384 488.884L748.194 459.047L778.777 426.052Z" fill="#007618"/>
</g>
<mask id="mask3_2766_10516" style="mask-type:alpha" maskUnits="userSpaceOnUse" x="1035" y="327" width="412" height="202">
<rect x="1035" y="327" width="412" height="202" fill="#9DF2F8"/>
</mask>
<g mask="url(#mask3_2766_10516)">
<path fill-rule="evenodd" clip-rule="evenodd" d="M1290.6 432.6V377.651V376.37H1290.57C1289.9 362.538 1278.47 351.527 1264.48 351.527C1250.48 351.527 1239.05 362.538 1238.38 376.37H1238.35V377.651V432.446C1238.92 432.19 1239.59 432.238 1240.12 432.6L1241.01 433.201C1242.12 433.956 1243.58 433.956 1244.7 433.201L1244.77 433.151C1245.93 432.366 1247.44 432.366 1248.6 433.151C1249.76 433.937 1251.28 433.937 1252.43 433.151C1253.59 432.366 1255.11 432.366 1256.27 433.151C1257.42 433.937 1258.94 433.937 1260.1 433.151C1261.25 432.366 1262.77 432.366 1263.93 433.151C1265.09 433.937 1266.61 433.937 1267.76 433.151C1268.92 432.366 1270.44 432.366 1271.6 433.151C1272.75 433.937 1274.27 433.937 1275.43 433.151L1275.48 433.117C1276.6 432.352 1278.08 432.352 1279.21 433.117L1279.45 433.283C1280.48 433.982 1281.84 433.949 1282.84 433.199L1283 433.074C1283.96 432.353 1285.28 432.367 1286.23 433.109L1286.56 433.371C1287.36 433.999 1288.49 433.975 1289.26 433.314L1289.62 432.999C1289.91 432.754 1290.25 432.623 1290.6 432.6Z" fill="#1F1F1F"/>
<circle cx="1239.03" cy="382.685" r="4.9169" stroke="#FFB800" stroke-width="0.466642"/>
<circle cx="1263.7" cy="381.349" r="23.8573" fill="#FDD8B6"/>
<path d="M1287.75 380.79C1276.53 378.282 1265.76 362.448 1262.03 354.238C1266.72 353.931 1277.63 354.916 1283.81 361.31C1289.99 367.704 1289.17 376.556 1287.75 380.79Z" fill="#1F1F1F"/>
<circle cx="1284.06" cy="382.685" r="4.9169" stroke="#FFB800" stroke-width="0.466642"/>
<path d="M1252.76 365.235C1259.46 366.055 1262.69 359.351 1263.79 356.988C1245.95 351.978 1243 366.16 1243.44 372.785C1243.75 369.927 1246.06 364.415 1252.76 365.235Z" fill="#1F1F1F"/>
<rect x="1228.04" y="469.949" width="31.3127" height="83.5005" rx="15.6563" transform="rotate(97.8964 1228.04 469.949)" fill="#EBC5A1"/>
<rect x="1244.6" y="428.805" width="31.3127" height="76.7906" rx="15.6563" transform="rotate(45.9498 1244.6 428.805)" fill="#EBC5A1"/>
<path d="M1247.9 416.639C1256.55 408.265 1270.36 408.494 1278.73 417.15C1287.11 425.806 1286.88 439.612 1278.22 447.986L1245.94 479.217L1215.61 447.87L1247.9 416.639Z" fill="#F9D208"/>
<path d="M1245.44 522.629V569.225H1165.85C1152.98 569.225 1142.55 558.794 1142.55 545.927C1142.55 533.06 1152.98 522.629 1165.85 522.629H1245.44Z" fill="#1F1F1F"/>
<path d="M1323.63 449.938H1286.8L1273.03 541.964H1212.26V576.679H1306.2C1307.68 576.679 1308.94 575.59 1309.15 574.123L1326.58 453.346C1326.84 451.548 1325.44 449.938 1323.63 449.938Z" fill="#FF842B"/>
<path d="M1273.21 569.223C1286.08 569.223 1296.51 558.792 1296.51 545.925V522.626H1216.92C1204.05 522.626 1193.62 533.057 1193.62 545.925C1193.62 558.792 1204.05 569.223 1216.92 569.223H1273.21Z" fill="#414141"/>
<path d="M1239.26 410.051H1294.64L1297.63 515.947H1227.61L1239.26 410.051Z" fill="#FFB800"/>
<path fill-rule="evenodd" clip-rule="evenodd" d="M1172.25 414.895C1173.28 414.895 1174.2 415.557 1174.53 416.539L1192.41 470.196H1236.49V477.409H1125.89V472.599H1125.89L1107.71 418.059C1107.19 416.502 1108.35 414.895 1109.99 414.895H1172.25Z" fill="#414141"/>
<circle cx="4.80871" cy="4.80871" r="4.80871" transform="matrix(-1 0 0 1 1152.34 438.938)" fill="#C4C4C4"/>
<rect x="1246.57" y="433.809" width="31.3127" height="76.7906" rx="15.6563" transform="rotate(42.9442 1246.57 433.809)" fill="#FDD8B6"/>
<path d="M1249.66 421.191C1257.88 412.363 1271.7 411.867 1280.52 420.083C1289.35 428.299 1289.85 442.116 1281.63 450.944L1251.13 483.711L1219.17 453.958L1249.66 421.191Z" fill="#EDAB00"/>
<rect x="1232.02" y="474.027" width="31.3127" height="83.5005" rx="15.6563" transform="rotate(91.438 1232.02 474.027)" fill="#FDD8B6"/>
<path d="M1143.38 540.443C1147.04 528.033 1160.23 521.098 1172.53 525.113C1184.59 529.049 1191.18 542.015 1187.24 554.073L1151 665.094L1106.58 665.094L1143.38 540.443Z" fill="#1F1F1F"/>
<path d="M1235.27 553.256C1238.42 540.779 1230.63 528.058 1218.15 524.913C1205.85 521.812 1193.11 529.066 1189.76 541.303L1155.6 666.213L1206.8 666.213L1235.27 553.256Z" fill="#414141"/>
</g>
<mask id="mask4_2766_10516" style="mask-type:alpha" maskUnits="userSpaceOnUse" x="569" y="88" width="412" height="202">
<rect x="569" y="88" width="412" height="202" fill="#8A49DD"/>
</mask>
<g mask="url(#mask4_2766_10516)">
<circle cx="22.4338" cy="22.4338" r="22.4338" transform="matrix(-1 0 0 1 801.297 128)" fill="#E1B48B"/>
<path fill-rule="evenodd" clip-rule="evenodd" d="M779.203 128.049C778.721 128.016 778.235 128 777.745 128C765.935 128 756.358 137.561 756.331 149.365C756.813 149.398 757.299 149.414 757.789 149.414C769.599 149.414 779.177 139.853 779.203 128.049Z" fill="#1F1F1F"/>
<path fill-rule="evenodd" clip-rule="evenodd" d="M777.711 128.114C778.44 128.038 779.181 128 779.93 128C790.415 128 799.141 135.536 800.985 145.487C800.255 145.562 799.515 145.601 798.766 145.601C788.28 145.601 779.555 138.065 777.711 128.114Z" fill="#1F1F1F"/>
<circle cx="13.2563" cy="13.2563" r="13.2563" transform="matrix(-1 0 0 1 792.125 101.488)" fill="#1F1F1F"/>
<path d="M720.253 308.654L726.975 206.342C727.069 204.912 728.255 203.801 729.688 203.801H820.541C821.967 203.801 823.15 204.902 823.253 206.324L830.661 308.635C830.775 310.21 829.528 311.551 827.949 311.551H722.966C721.394 311.551 720.15 310.222 720.253 308.654Z" fill="#FF842A"/>
<path d="M735.086 281.602L771.526 295.73L753.523 342.162C749.622 352.224 738.302 357.219 728.239 353.317V353.317C718.177 349.416 713.182 338.096 717.084 328.033L735.086 281.602Z" fill="#7128CE"/>
<path d="M815.305 280.617L778.865 294.746L796.867 341.177C800.769 351.24 812.089 356.234 822.151 352.333V352.333C832.214 348.431 837.209 337.111 833.307 327.049L815.305 280.617Z" fill="#7128CE"/>
<path d="M842.664 241.414L790.977 189.727C783.544 182.294 771.492 182.294 764.058 189.727L712.078 241.708L729.086 258.716C755.672 285.302 798.873 285.205 825.579 258.499L842.664 241.414Z" fill="#CD2026"/>
<path d="M734 279.938H816.597V300.672C816.597 311.184 808.075 319.707 797.562 319.707H753.035C742.522 319.707 734 311.184 734 300.672V279.938Z" fill="#7128CE"/>
<rect x="841.125" y="230.438" width="28.2052" height="75.2137" rx="14.1026" transform="rotate(43.6998 841.125 230.438)" fill="#E1B48B"/>
<rect width="28.2051" height="75.2137" rx="14.1026" transform="matrix(-0.484163 0.874978 0.874978 0.484163 712.406 235.016)" fill="#E1B48B"/>
<rect x="794.086" y="218.641" width="28.2051" height="69.1698" rx="14.1026" transform="rotate(-42.4951 794.086 218.641)" fill="#E1B48B"/>
<rect width="28.2051" height="69.1698" rx="14.1026" transform="matrix(-0.787283 -0.616592 -0.616592 0.787283 761.805 218.148)" fill="#E1B48B"/>
<path d="M782.974 214.963C775.636 206.954 776.18 194.512 784.19 187.174V187.174C792.199 179.836 804.641 180.38 811.979 188.39L839.217 218.12L810.212 244.693L782.974 214.963Z" fill="#CD2026"/>
<path d="M772.599 213.629C779.297 205.077 777.794 192.715 769.242 186.017V186.017C760.69 179.319 748.327 180.822 741.629 189.374L716.768 221.118L747.738 245.373L772.599 213.629Z" fill="#CD2026"/>
<path d="M750.352 242.023L719.382 217.768L716.762 221.113L747.732 245.369L750.352 242.023Z" fill="#A70B11"/>
<path d="M836.336 214.875L807.643 241.785L810.55 244.884L839.243 217.974L836.336 214.875Z" fill="#A70B11"/>
<path d="M748.199 284.536C736.666 279.262 723.455 272.987 723.055 273.151C723.042 274.675 724.094 276.103 724.201 276.146C733.715 280.004 748.888 288.759 755.838 290.653C762.902 292.577 769.478 287.533 771.176 284.982C770.369 285.563 769.516 286.073 768.647 286.517C762.188 289.817 754.795 287.553 748.199 284.536Z" fill="#C28A57"/>
<path d="M822.734 249.863C823.736 249.837 827.412 250.53 829.653 253.567" stroke="#C28A57" stroke-width="0.339906" stroke-linecap="round"/>
</g>
<mask id="mask5_2766_10516" style="mask-type:alpha" maskUnits="userSpaceOnUse" x="1035" y="88" width="412" height="202">
<rect x="1035" y="88" width="412" height="202" fill="#8A49DD"/>
</mask>
<g mask="url(#mask5_2766_10516)">
<circle cx="1264.9" cy="149.751" r="27.8254" fill="#E1B48B"/>
<path fill-rule="evenodd" clip-rule="evenodd" d="M1253.69 124.407C1256.68 123.142 1259.96 122.377 1263.4 122.225C1278.15 121.573 1290.75 132.358 1292.33 146.613C1289.34 147.879 1286.07 148.643 1282.62 148.796C1267.87 149.447 1255.27 138.663 1253.69 124.407Z" fill="#1F1F1F"/>
<rect x="1254.03" y="206.266" width="24.8742" height="77.9953" rx="12.4371" transform="rotate(50.9056 1254.03 206.266)" fill="#D49F6E"/>
<rect x="1228.88" y="255.953" width="24.8742" height="81.3681" rx="12.4371" transform="rotate(131.73 1228.88 255.953)" fill="#D49F6E"/>
<path d="M1264.69 191.633C1272.01 185.687 1282.76 186.799 1288.7 194.117C1294.65 201.435 1293.54 212.187 1286.22 218.133L1240.92 254.939L1219.39 228.439L1264.69 191.633Z" fill="#007618"/>
<path d="M1241.83 182.133H1299.47V265.41C1299.47 281.327 1286.56 294.23 1270.65 294.23C1254.73 294.23 1241.83 281.327 1241.83 265.41V182.133Z" fill="#169F32"/>
<rect x="1248.04" y="270.008" width="24.8742" height="81.3681" rx="12.4371" transform="rotate(111.405 1248.04 270.008)" fill="#E1B48B"/>
<rect x="1253.51" y="213.336" width="24.8742" height="77.9953" rx="12.4371" transform="rotate(29.0725 1253.51 213.336)" fill="#E1B48B"/>
<path d="M1257.96 195.789C1262.54 187.548 1272.94 184.581 1281.18 189.163C1289.42 193.745 1292.39 204.139 1287.8 212.38L1259.44 263.393L1229.6 246.801L1257.96 195.789Z" fill="#007618"/>
</g>
</svg>
